SplineFontDB: 3.2
FontName: PixelCode-
FullName: Pixel Code
FamilyName: Pixel Code
Weight: Book
Copyright: Copyright c Qwerasd 2024
Version: 2.2
ItalicAngle: 0
UnderlinePosition: -280
UnderlineWidth: 112
Ascent: 806
Descent: 202
InvalidEm: 0
sfntRevision: 0x00020083
LayerCount: 2
Layer: 0 0 "Back" 1
Layer: 1 0 "Fore" 0
XUID: [1021 303 -1819028496 14298536]
StyleMap: 0x0040
FSType: 4
OS2Version: 4
OS2_WeightWidthSlopeOnly: 0
OS2_UseTypoMetrics: 1
CreationTime: 1712958226
ModificationTime: 1739313082
PfmFamily: 17
TTFWeight: 400
TTFWidth: 5
LineGap: 0
VLineGap: 0
Panose: 2 0 0 9 0 0 0 8 0 3
OS2TypoAscent: 1119
OS2TypoAOffset: 0
OS2TypoDescent: -223
OS2TypoDOffset: 0
OS2TypoLinegap: 0
OS2WinAscent: 1120
OS2WinAOffset: 0
OS2WinDescent: 224
OS2WinDOffset: 0
HheadAscent: 1119
HheadAOffset: 0
HheadDescent: -223
HheadDOffset: 0
OS2SubXSize: 655
OS2SubYSize: 605
OS2SubXOff: 0
OS2SubYOff: 76
OS2SupXSize: 655
OS2SupYSize: 605
OS2SupXOff: 0
OS2SupYOff: 353
OS2StrikeYSize: 112
OS2StrikeYPos: 336
OS2CapHeight: 784
OS2XHeight: 560
OS2Vendor: 'qwer'
OS2CodePages: 000000bf.cf430000
OS2UnicodeRanges: a0000ab7.1200b821.00040020.00000000
Lookup: 1 0 0 "Single Substitution lookup 0" { "Single Substitution lookup 0 subtable"  } []
Lookup: 6 0 0 "'ss20' Style Set 20 lookup 1" { "'ss20' Style Set 20 lookup 1 subtable"  } ['ss20' ('DFLT' <'dflt' > ) ]
Lookup: 1 0 0 "'onum' Oldstyle Figures lookup 2" { "'onum' Oldstyle Figures lookup 2 subtable" ("oldstyle") } ['onum' ('DFLT' <'dflt' > ) ]
Lookup: 1 0 0 "'ss01' Style Set 1 lookup 3" { "'ss01' Style Set 1 lookup 3 subtable"  } ['ss01' ('DFLT' <'dflt' > ) ]
Lookup: 4 0 1 "'liga' Standard Ligatures lookup 4" { "'liga' Standard Ligatures lookup 4 subtable"  } ['liga' ('DFLT' <'dflt' > ) ]
Lookup: 6 0 0 "'liga' Standard Ligatures lookup 5" { "'liga' Standard Ligatures lookup 5 subtable"  } ['liga' ('DFLT' <'dflt' > ) ]
Lookup: 4 0 0 "Ligature Substitution lookup 6" { "Ligature Substitution lookup 6 subtable"  } []

StartChar: .notdef
Encoding: 0 0 0
Width: 672
GlyphClass: 1
Flags: W
LayerCount: 2
Fore
SplineSet
224 112 m 1
 224 0 l 1
 336 0 l 1
 336 -112 l 1
 224 -112 l 1
 224 0 l 1
 112 0 l 1
 112 112 l 1
 0 112 l 1
 0 560 l 1
 112 560 l 1
 112 672 l 1
 224 672 l 1
 224 784 l 1
 336 784 l 1
 336 672 l 1
 448 672 l 1
 448 560 l 1
 560 560 l 1
 560 112 l 1
 448 112 l 1
 448 0 l 1
 336 0 l 1
 336 112 l 1
 224 112 l 1
224 672 m 1
 224 560 l 1
 336 560 l 1
 336 672 l 1
 224 672 l 1
112 560 m 1
 112 448 l 1
 224 448 l 1
 224 560 l 1
 112 560 l 1
336 560 m 1
 336 336 l 1
 448 336 l 1
 448 560 l 1
 336 560 l 1
224 336 m 1
 224 224 l 1
 336 224 l 1
 336 336 l 1
 224 336 l 1
EndSplineSet
EndChar

StartChar: uni2705
Encoding: 9989 9989 1
Width: 1344
GlyphClass: 1
Flags: W
LayerCount: 2
Fore
SplineSet
224 896 m 1
 1008 896 l 1
 1008 784 l 1
 1120 784 l 1
 1120 0 l 1
 1008 0 l 1
 1008 -112 l 1
 224 -112 l 1
 224 0 l 1
 112 0 l 1
 112 784 l 1
 224 784 l 1
 224 896 l 1
784 784 m 1
 784 672 l 1
 672 672 l 1
 672 448 l 1
 560 448 l 1
 560 224 l 1
 448 224 l 1
 448 336 l 1
 336 336 l 1
 336 112 l 1
 448 112 l 1
 448 0 l 1
 560 0 l 1
 560 112 l 1
 672 112 l 1
 672 336 l 1
 784 336 l 1
 784 560 l 1
 896 560 l 1
 896 784 l 1
 784 784 l 1
EndSplineSet
EndChar

StartChar: uni270C
Encoding: 9996 9996 2
Width: 672
GlyphClass: 1
Flags: W
LayerCount: 2
Fore
SplineSet
448 448 m 1
 336 448 l 1
 336 672 l 1
 448 672 l 1
 448 448 l 1
336 224 m 1
 336 112 l 1
 448 112 l 1
 448 0 l 1
 112 0 l 1
 112 112 l 1
 0 112 l 1
 0 448 l 1
 112 448 l 1
 112 672 l 1
 224 672 l 1
 224 448 l 1
 336 448 l 1
 336 336 l 1
 560 336 l 1
 560 112 l 1
 448 112 l 1
 448 224 l 1
 336 224 l 1
224 336 m 1
 224 224 l 1
 336 224 l 1
 336 336 l 1
 224 336 l 1
EndSplineSet
EndChar

StartChar: uni2713
Encoding: 10003 10003 3
Width: 672
GlyphClass: 1
Flags: W
LayerCount: 2
Fore
SplineSet
448 784 m 1
 560 784 l 1
 560 672 l 1
 448 672 l 1
 448 448 l 1
 336 448 l 1
 336 224 l 1
 224 224 l 1
 224 448 l 1
 336 448 l 1
 336 672 l 1
 448 672 l 1
 448 784 l 1
224 224 m 1
 224 0 l 1
 112 0 l 1
 112 224 l 1
 0 224 l 1
 0 336 l 1
 112 336 l 1
 112 224 l 1
 224 224 l 1
EndSplineSet
EndChar

StartChar: uni2714
Encoding: 10004 10004 4
Width: 672
GlyphClass: 1
Flags: W
LayerCount: 2
Fore
SplineSet
448 784 m 1
 560 784 l 1
 560 560 l 1
 448 560 l 1
 448 336 l 1
 336 336 l 1
 336 112 l 1
 224 112 l 1
 224 0 l 1
 112 0 l 1
 112 112 l 1
 0 112 l 1
 0 336 l 1
 112 336 l 1
 112 224 l 1
 224 224 l 1
 224 448 l 1
 336 448 l 1
 336 672 l 1
 448 672 l 1
 448 784 l 1
EndSplineSet
EndChar

StartChar: uni2715
Encoding: 10005 10005 5
Width: 672
GlyphClass: 1
Flags: W
LayerCount: 2
Fore
SplineSet
448 336 m 1
 336 336 l 1
 336 448 l 1
 448 448 l 1
 448 560 l 1
 560 560 l 1
 560 448 l 1
 448 448 l 1
 448 336 l 1
0 560 m 1
 112 560 l 1
 112 448 l 1
 224 448 l 1
 224 336 l 1
 336 336 l 1
 336 224 l 1
 448 224 l 1
 448 112 l 1
 560 112 l 1
 560 0 l 1
 448 0 l 1
 448 112 l 1
 336 112 l 1
 336 224 l 1
 224 224 l 1
 224 112 l 1
 112 112 l 1
 112 0 l 1
 0 0 l 1
 0 112 l 1
 112 112 l 1
 112 224 l 1
 224 224 l 1
 224 336 l 1
 112 336 l 1
 112 448 l 1
 0 448 l 1
 0 560 l 1
EndSplineSet
EndChar

StartChar: uni2716
Encoding: 10006 10006 6
Width: 672
GlyphClass: 1
Flags: W
LayerCount: 2
Fore
SplineSet
0 784 m 1
 112 784 l 1
 112 672 l 1
 224 672 l 1
 224 560 l 1
 336 560 l 1
 336 672 l 1
 448 672 l 1
 448 784 l 1
 560 784 l 1
 560 560 l 1
 448 560 l 1
 448 448 l 1
 336 448 l 1
 336 336 l 1
 448 336 l 1
 448 224 l 1
 560 224 l 1
 560 0 l 1
 448 0 l 1
 448 112 l 1
 336 112 l 1
 336 224 l 1
 224 224 l 1
 224 112 l 1
 112 112 l 1
 112 0 l 1
 0 0 l 1
 0 224 l 1
 112 224 l 1
 112 336 l 1
 224 336 l 1
 224 448 l 1
 112 448 l 1
 112 560 l 1
 0 560 l 1
 0 784 l 1
EndSplineSet
EndChar

StartChar: uni2717
Encoding: 10007 10007 7
Width: 672
GlyphClass: 1
Flags: W
LayerCount: 2
Fore
SplineSet
448 784 m 1
 560 784 l 1
 560 672 l 1
 448 672 l 1
 448 448 l 1
 336 448 l 1
 336 672 l 1
 448 672 l 1
 448 784 l 1
112 112 m 1
 112 0 l 1
 0 0 l 1
 0 112 l 1
 112 112 l 1
 112 336 l 1
 224 336 l 1
 224 448 l 1
 112 448 l 1
 112 560 l 1
 0 560 l 1
 0 672 l 1
 112 672 l 1
 112 560 l 1
 224 560 l 1
 224 448 l 1
 336 448 l 1
 336 336 l 1
 448 336 l 1
 448 224 l 1
 560 224 l 1
 560 112 l 1
 448 112 l 1
 448 224 l 1
 336 224 l 1
 336 336 l 1
 224 336 l 1
 224 112 l 1
 112 112 l 1
EndSplineSet
EndChar

StartChar: uni2718
Encoding: 10008 10008 8
Width: 672
GlyphClass: 1
Flags: W
LayerCount: 2
Fore
SplineSet
448 784 m 1
 560 784 l 1
 560 560 l 1
 448 560 l 1
 448 448 l 1
 336 448 l 1
 336 336 l 1
 448 336 l 1
 448 224 l 1
 560 224 l 1
 560 112 l 1
 336 112 l 1
 336 224 l 1
 224 224 l 1
 224 112 l 1
 112 112 l 1
 112 0 l 1
 0 0 l 1
 0 224 l 1
 112 224 l 1
 112 336 l 1
 224 336 l 1
 224 448 l 1
 112 448 l 1
 112 560 l 1
 0 560 l 1
 0 672 l 1
 224 672 l 1
 224 560 l 1
 336 560 l 1
 336 672 l 1
 448 672 l 1
 448 784 l 1
EndSplineSet
EndChar

StartChar: uni2728
Encoding: 10024 10024 9
Width: 1344
GlyphClass: 1
Flags: W
LayerCount: 2
Fore
SplineSet
336 784 m 1
 336 896 l 1
 448 896 l 1
 448 784 l 1
 560 784 l 1
 560 672 l 1
 448 672 l 1
 448 784 l 1
 336 784 l 1
 336 672 l 1
 448 672 l 1
 448 560 l 1
 336 560 l 1
 336 672 l 1
 224 672 l 1
 224 784 l 1
 336 784 l 1
784 560 m 1
 784 784 l 1
 896 784 l 1
 896 560 l 1
 1008 560 l 1
 1008 448 l 1
 1232 448 l 1
 1232 336 l 1
 1008 336 l 1
 1008 224 l 1
 896 224 l 1
 896 336 l 1
 1008 336 l 1
 1008 448 l 1
 896 448 l 1
 896 560 l 1
 784 560 l 1
 784 448 l 1
 672 448 l 1
 672 336 l 1
 784 336 l 1
 784 224 l 1
 896 224 l 1
 896 0 l 1
 784 0 l 1
 784 224 l 1
 672 224 l 1
 672 336 l 1
 448 336 l 1
 448 448 l 1
 672 448 l 1
 672 560 l 1
 784 560 l 1
224 112 m 1
 224 336 l 1
 336 336 l 1
 336 112 l 1
 560 112 l 1
 560 0 l 1
 336 0 l 1
 336 112 l 1
 224 112 l 1
 224 0 l 1
 336 0 l 1
 336 -224 l 1
 224 -224 l 1
 224 0 l 1
 0 0 l 1
 0 112 l 1
 224 112 l 1
EndSplineSet
EndChar

StartChar: uni274C
Encoding: 10060 10060 10
Width: 1344
GlyphClass: 1
Flags: W
LayerCount: 2
Fore
SplineSet
112 896 m 1
 336 896 l 1
 336 784 l 1
 448 784 l 1
 448 672 l 1
 560 672 l 1
 560 560 l 1
 672 560 l 1
 672 672 l 1
 784 672 l 1
 784 784 l 1
 896 784 l 1
 896 896 l 1
 1120 896 l 1
 1120 672 l 1
 1008 672 l 1
 1008 560 l 1
 896 560 l 1
 896 448 l 1
 784 448 l 1
 784 336 l 1
 896 336 l 1
 896 224 l 1
 1008 224 l 1
 1008 112 l 1
 1120 112 l 1
 1120 -112 l 1
 896 -112 l 1
 896 0 l 1
 784 0 l 1
 784 112 l 1
 672 112 l 1
 672 224 l 1
 560 224 l 1
 560 112 l 1
 448 112 l 1
 448 0 l 1
 336 0 l 1
 336 -112 l 1
 112 -112 l 1
 112 112 l 1
 224 112 l 1
 224 224 l 1
 336 224 l 1
 336 336 l 1
 448 336 l 1
 448 448 l 1
 336 448 l 1
 336 560 l 1
 224 560 l 1
 224 672 l 1
 112 672 l 1
 112 896 l 1
EndSplineSet
EndChar

StartChar: uni274E
Encoding: 10062 10062 11
Width: 1344
GlyphClass: 1
Flags: W
LayerCount: 2
Fore
SplineSet
224 896 m 1
 1008 896 l 1
 1008 784 l 1
 1120 784 l 1
 1120 0 l 1
 1008 0 l 1
 1008 -112 l 1
 224 -112 l 1
 224 0 l 1
 112 0 l 1
 112 784 l 1
 224 784 l 1
 224 896 l 1
336 784 m 1
 336 560 l 1
 448 560 l 1
 448 448 l 1
 560 448 l 1
 560 336 l 1
 448 336 l 1
 448 224 l 1
 336 224 l 1
 336 0 l 1
 448 0 l 1
 448 112 l 1
 560 112 l 1
 560 224 l 1
 672 224 l 1
 672 112 l 1
 784 112 l 1
 784 0 l 1
 896 0 l 1
 896 224 l 1
 784 224 l 1
 784 336 l 1
 672 336 l 1
 672 448 l 1
 784 448 l 1
 784 560 l 1
 896 560 l 1
 896 784 l 1
 784 784 l 1
 784 672 l 1
 672 672 l 1
 672 560 l 1
 560 560 l 1
 560 672 l 1
 448 672 l 1
 448 784 l 1
 336 784 l 1
EndSplineSet
EndChar

StartChar: uni274F
Encoding: 10063 10063 12
Width: 672
GlyphClass: 1
Flags: W
LayerCount: 2
Fore
SplineSet
0 560 m 1
 448 560 l 1
 448 448 l 1
 560 448 l 1
 560 0 l 1
 112 0 l 1
 112 112 l 1
 0 112 l 1
 0 560 l 1
112 448 m 1
 112 224 l 1
 336 224 l 1
 336 448 l 1
 112 448 l 1
EndSplineSet
EndChar

StartChar: uni2750
Encoding: 10064 10064 13
Width: 672
GlyphClass: 1
Flags: W
LayerCount: 2
Fore
SplineSet
112 560 m 1
 560 560 l 1
 560 112 l 1
 448 112 l 1
 448 0 l 1
 0 0 l 1
 0 448 l 1
 112 448 l 1
 112 560 l 1
112 336 m 1
 112 112 l 1
 336 112 l 1
 336 336 l 1
 112 336 l 1
EndSplineSet
EndChar

StartChar: uni275B
Encoding: 10075 10075 14
Width: 672
GlyphClass: 1
Flags: W
LayerCount: 2
Fore
SplineSet
224 784 m 1
 336 784 l 1
 336 672 l 1
 224 672 l 1
 224 560 l 1
 448 560 l 1
 448 336 l 1
 224 336 l 1
 224 448 l 1
 112 448 l 1
 112 672 l 1
 224 672 l 1
 224 784 l 1
EndSplineSet
EndChar

StartChar: uni275C
Encoding: 10076 10076 15
Width: 672
GlyphClass: 1
Flags: W
LayerCount: 2
Fore
SplineSet
112 784 m 1
 336 784 l 1
 336 672 l 1
 448 672 l 1
 448 448 l 1
 336 448 l 1
 336 336 l 1
 224 336 l 1
 224 448 l 1
 336 448 l 1
 336 560 l 1
 112 560 l 1
 112 784 l 1
EndSplineSet
EndChar

StartChar: uni275D
Encoding: 10077 10077 16
Width: 672
GlyphClass: 1
Flags: W
LayerCount: 2
Fore
SplineSet
112 784 m 1
 224 784 l 1
 224 672 l 1
 112 672 l 1
 112 560 l 1
 224 560 l 1
 224 336 l 1
 0 336 l 1
 0 672 l 1
 112 672 l 1
 112 784 l 1
448 784 m 1
 560 784 l 1
 560 672 l 1
 448 672 l 1
 448 560 l 1
 560 560 l 1
 560 336 l 1
 336 336 l 1
 336 672 l 1
 448 672 l 1
 448 784 l 1
EndSplineSet
EndChar

StartChar: uni275E
Encoding: 10078 10078 17
Width: 672
GlyphClass: 1
Flags: W
LayerCount: 2
Fore
SplineSet
0 784 m 1
 224 784 l 1
 224 448 l 1
 112 448 l 1
 112 336 l 1
 0 336 l 1
 0 448 l 1
 112 448 l 1
 112 560 l 1
 0 560 l 1
 0 784 l 1
336 784 m 1
 560 784 l 1
 560 448 l 1
 448 448 l 1
 448 336 l 1
 336 336 l 1
 336 448 l 1
 448 448 l 1
 448 560 l 1
 336 560 l 1
 336 784 l 1
EndSplineSet
EndChar

StartChar: uni2762
Encoding: 10082 10082 18
Width: 672
GlyphClass: 1
Flags: W
LayerCount: 2
Fore
SplineSet
224 784 m 1
 336 784 l 1
 336 672 l 1
 448 672 l 1
 448 336 l 1
 336 336 l 1
 336 224 l 1
 224 224 l 1
 224 336 l 1
 112 336 l 1
 112 672 l 1
 224 672 l 1
 224 784 l 1
224 112 m 1
 336 112 l 1
 336 0 l 1
 224 0 l 1
 224 112 l 1
EndSplineSet
EndChar

StartChar: uni2763
Encoding: 10083 10083 19
Width: 672
GlyphClass: 1
Flags: W
LayerCount: 2
Fore
SplineSet
112 672 m 1
 224 672 l 1
 224 560 l 1
 336 560 l 1
 336 672 l 1
 448 672 l 1
 448 560 l 1
 560 560 l 1
 560 448 l 1
 448 448 l 1
 448 336 l 1
 336 336 l 1
 336 224 l 1
 224 224 l 1
 224 336 l 1
 112 336 l 1
 112 448 l 1
 0 448 l 1
 0 560 l 1
 112 560 l 1
 112 672 l 1
224 112 m 1
 336 112 l 1
 336 0 l 1
 224 0 l 1
 224 112 l 1
EndSplineSet
EndChar

StartChar: uni2764
Encoding: 10084 10084 20
Width: 672
GlyphClass: 1
Flags: W
LayerCount: 2
Fore
SplineSet
112 672 m 1
 224 672 l 1
 224 560 l 1
 336 560 l 1
 336 672 l 1
 448 672 l 1
 448 560 l 1
 560 560 l 1
 560 336 l 1
 448 336 l 1
 448 224 l 1
 336 224 l 1
 336 112 l 1
 224 112 l 1
 224 224 l 1
 112 224 l 1
 112 336 l 1
 0 336 l 1
 0 560 l 1
 112 560 l 1
 112 672 l 1
EndSplineSet
EndChar

StartChar: uni2765
Encoding: 10085 10085 21
Width: 672
GlyphClass: 1
Flags: W
LayerCount: 2
Fore
SplineSet
112 672 m 1
 336 672 l 1
 336 560 l 1
 448 560 l 1
 448 448 l 1
 560 448 l 1
 560 336 l 1
 448 336 l 1
 448 224 l 1
 336 224 l 1
 336 112 l 1
 112 112 l 1
 112 224 l 1
 0 224 l 1
 0 336 l 1
 112 336 l 1
 112 448 l 1
 0 448 l 1
 0 560 l 1
 112 560 l 1
 112 672 l 1
EndSplineSet
EndChar

StartChar: uni2768
Encoding: 10088 10088 22
Width: 672
GlyphClass: 1
Flags: W
LayerCount: 2
Fore
SplineSet
336 784 m 1
 560 784 l 1
 560 672 l 1
 448 672 l 1
 448 560 l 1
 336 560 l 1
 336 224 l 1
 448 224 l 1
 448 112 l 1
 560 112 l 1
 560 0 l 1
 336 0 l 1
 336 112 l 1
 224 112 l 1
 224 224 l 1
 112 224 l 1
 112 560 l 1
 224 560 l 1
 224 672 l 1
 336 672 l 1
 336 784 l 1
EndSplineSet
EndChar

StartChar: uni2769
Encoding: 10089 10089 23
Width: 672
GlyphClass: 1
Flags: W
LayerCount: 2
Fore
SplineSet
0 784 m 1
 224 784 l 1
 224 672 l 1
 336 672 l 1
 336 560 l 1
 448 560 l 1
 448 224 l 1
 336 224 l 1
 336 112 l 1
 224 112 l 1
 224 0 l 1
 0 0 l 1
 0 112 l 1
 112 112 l 1
 112 224 l 1
 224 224 l 1
 224 560 l 1
 112 560 l 1
 112 672 l 1
 0 672 l 1
 0 784 l 1
EndSplineSet
EndChar

StartChar: uni276A
Encoding: 10090 10090 24
Width: 672
GlyphClass: 1
Flags: W
LayerCount: 2
Fore
SplineSet
336 784 m 1
 560 784 l 1
 560 672 l 1
 448 672 l 1
 448 448 l 1
 336 448 l 1
 336 336 l 1
 448 336 l 1
 448 112 l 1
 560 112 l 1
 560 0 l 1
 336 0 l 1
 336 112 l 1
 224 112 l 1
 224 224 l 1
 112 224 l 1
 112 560 l 1
 224 560 l 1
 224 672 l 1
 336 672 l 1
 336 784 l 1
EndSplineSet
EndChar

StartChar: uni276B
Encoding: 10091 10091 25
Width: 672
GlyphClass: 1
Flags: W
LayerCount: 2
Fore
SplineSet
0 784 m 1
 224 784 l 1
 224 672 l 1
 336 672 l 1
 336 560 l 1
 448 560 l 1
 448 224 l 1
 336 224 l 1
 336 112 l 1
 224 112 l 1
 224 0 l 1
 0 0 l 1
 0 112 l 1
 112 112 l 1
 112 336 l 1
 224 336 l 1
 224 448 l 1
 112 448 l 1
 112 672 l 1
 0 672 l 1
 0 784 l 1
EndSplineSet
EndChar

StartChar: uni276C
Encoding: 10092 10092 26
Width: 672
GlyphClass: 1
Flags: W
LayerCount: 2
Fore
SplineSet
336 784 m 1
 448 784 l 1
 448 672 l 1
 336 672 l 1
 336 448 l 1
 224 448 l 1
 224 336 l 1
 336 336 l 1
 336 112 l 1
 448 112 l 1
 448 0 l 1
 336 0 l 1
 336 112 l 1
 224 112 l 1
 224 224 l 1
 112 224 l 1
 112 336 l 1
 0 336 l 1
 0 448 l 1
 112 448 l 1
 112 560 l 1
 224 560 l 1
 224 672 l 1
 336 672 l 1
 336 784 l 1
EndSplineSet
EndChar

StartChar: uni276D
Encoding: 10093 10093 27
Width: 672
GlyphClass: 1
Flags: W
LayerCount: 2
Fore
SplineSet
112 784 m 1
 224 784 l 1
 224 672 l 1
 336 672 l 1
 336 560 l 1
 448 560 l 1
 448 448 l 1
 560 448 l 1
 560 336 l 1
 448 336 l 1
 448 224 l 1
 336 224 l 1
 336 112 l 1
 224 112 l 1
 224 0 l 1
 112 0 l 1
 112 112 l 1
 224 112 l 1
 224 336 l 1
 336 336 l 1
 336 448 l 1
 224 448 l 1
 224 672 l 1
 112 672 l 1
 112 784 l 1
EndSplineSet
EndChar

StartChar: uni276E
Encoding: 10094 10094 28
Width: 672
GlyphClass: 1
Flags: W
LayerCount: 2
Fore
SplineSet
336 784 m 1
 560 784 l 1
 560 672 l 1
 448 672 l 1
 448 560 l 1
 336 560 l 1
 336 448 l 1
 224 448 l 1
 224 336 l 1
 336 336 l 1
 336 224 l 1
 448 224 l 1
 448 112 l 1
 560 112 l 1
 560 0 l 1
 336 0 l 1
 336 112 l 1
 224 112 l 1
 224 224 l 1
 112 224 l 1
 112 336 l 1
 0 336 l 1
 0 448 l 1
 112 448 l 1
 112 560 l 1
 224 560 l 1
 224 672 l 1
 336 672 l 1
 336 784 l 1
EndSplineSet
EndChar

StartChar: uni276F
Encoding: 10095 10095 29
Width: 672
GlyphClass: 1
Flags: W
LayerCount: 2
Fore
SplineSet
0 784 m 1
 224 784 l 1
 224 672 l 1
 336 672 l 1
 336 560 l 1
 448 560 l 1
 448 448 l 1
 560 448 l 1
 560 336 l 1
 448 336 l 1
 448 224 l 1
 336 224 l 1
 336 112 l 1
 224 112 l 1
 224 0 l 1
 0 0 l 1
 0 112 l 1
 112 112 l 1
 112 224 l 1
 224 224 l 1
 224 336 l 1
 336 336 l 1
 336 448 l 1
 224 448 l 1
 224 560 l 1
 112 560 l 1
 112 672 l 1
 0 672 l 1
 0 784 l 1
EndSplineSet
EndChar

StartChar: uni2770
Encoding: 10096 10096 30
Width: 672
GlyphClass: 1
Flags: W
LayerCount: 2
Fore
SplineSet
336 784 m 1
 560 784 l 1
 560 672 l 1
 448 672 l 1
 448 448 l 1
 336 448 l 1
 336 336 l 1
 448 336 l 1
 448 112 l 1
 560 112 l 1
 560 0 l 1
 336 0 l 1
 336 112 l 1
 224 112 l 1
 224 224 l 1
 112 224 l 1
 112 336 l 1
 0 336 l 1
 0 448 l 1
 112 448 l 1
 112 560 l 1
 224 560 l 1
 224 672 l 1
 336 672 l 1
 336 784 l 1
EndSplineSet
EndChar

StartChar: uni2771
Encoding: 10097 10097 31
Width: 672
GlyphClass: 1
Flags: W
LayerCount: 2
Fore
SplineSet
0 784 m 1
 224 784 l 1
 224 672 l 1
 336 672 l 1
 336 560 l 1
 448 560 l 1
 448 448 l 1
 560 448 l 1
 560 336 l 1
 448 336 l 1
 448 224 l 1
 336 224 l 1
 336 112 l 1
 224 112 l 1
 224 0 l 1
 0 0 l 1
 0 112 l 1
 112 112 l 1
 112 336 l 1
 224 336 l 1
 224 448 l 1
 112 448 l 1
 112 672 l 1
 0 672 l 1
 0 784 l 1
EndSplineSet
EndChar

StartChar: uni2772
Encoding: 10098 10098 32
Width: 672
GlyphClass: 1
Flags: W
LayerCount: 2
Fore
SplineSet
336 784 m 1
 448 784 l 1
 448 672 l 1
 336 672 l 1
 336 560 l 1
 224 560 l 1
 224 224 l 1
 336 224 l 1
 336 112 l 1
 448 112 l 1
 448 0 l 1
 336 0 l 1
 336 112 l 1
 224 112 l 1
 224 224 l 1
 112 224 l 1
 112 560 l 1
 224 560 l 1
 224 672 l 1
 336 672 l 1
 336 784 l 1
EndSplineSet
EndChar

StartChar: uni2773
Encoding: 10099 10099 33
Width: 672
GlyphClass: 1
Flags: W
LayerCount: 2
Fore
SplineSet
112 784 m 1
 224 784 l 1
 224 672 l 1
 336 672 l 1
 336 560 l 1
 448 560 l 1
 448 224 l 1
 336 224 l 1
 336 112 l 1
 224 112 l 1
 224 0 l 1
 112 0 l 1
 112 112 l 1
 224 112 l 1
 224 224 l 1
 336 224 l 1
 336 560 l 1
 224 560 l 1
 224 672 l 1
 112 672 l 1
 112 784 l 1
EndSplineSet
EndChar

StartChar: uni2774
Encoding: 10100 10100 34
Width: 672
GlyphClass: 1
Flags: W
LayerCount: 2
Fore
SplineSet
336 784 m 1
 560 784 l 1
 560 672 l 1
 448 672 l 1
 448 112 l 1
 560 112 l 1
 560 0 l 1
 336 0 l 1
 336 112 l 1
 224 112 l 1
 224 336 l 1
 112 336 l 1
 112 448 l 1
 224 448 l 1
 224 672 l 1
 336 672 l 1
 336 784 l 1
EndSplineSet
EndChar

StartChar: uni2775
Encoding: 10101 10101 35
Width: 672
GlyphClass: 1
Flags: W
LayerCount: 2
Fore
SplineSet
0 784 m 1
 224 784 l 1
 224 672 l 1
 336 672 l 1
 336 448 l 1
 448 448 l 1
 448 336 l 1
 336 336 l 1
 336 112 l 1
 224 112 l 1
 224 0 l 1
 0 0 l 1
 0 112 l 1
 112 112 l 1
 112 672 l 1
 0 672 l 1
 0 784 l 1
EndSplineSet
EndChar

StartChar: uni2776
Encoding: 10102 10102 36
Width: 672
GlyphClass: 1
Flags: W
LayerCount: 2
Fore
SplineSet
224 672 m 1
 224 560 l 1
 112 560 l 1
 112 448 l 1
 224 448 l 1
 224 224 l 1
 112 224 l 1
 112 112 l 1
 448 112 l 1
 448 0 l 1
 112 0 l 1
 112 112 l 1
 0 112 l 1
 0 672 l 1
 112 672 l 1
 112 784 l 1
 448 784 l 1
 448 672 l 1
 560 672 l 1
 560 112 l 1
 448 112 l 1
 448 224 l 1
 336 224 l 1
 336 672 l 1
 224 672 l 1
EndSplineSet
EndChar

StartChar: uni2777
Encoding: 10103 10103 37
Width: 672
GlyphClass: 1
Flags: W
LayerCount: 2
Fore
SplineSet
112 336 m 1
 112 112 l 1
 448 112 l 1
 448 0 l 1
 112 0 l 1
 112 112 l 1
 0 112 l 1
 0 672 l 1
 112 672 l 1
 112 784 l 1
 448 784 l 1
 448 672 l 1
 560 672 l 1
 560 112 l 1
 448 112 l 1
 448 224 l 1
 224 224 l 1
 224 336 l 1
 112 336 l 1
112 672 m 1
 112 560 l 1
 336 560 l 1
 336 672 l 1
 112 672 l 1
336 560 m 1
 336 448 l 1
 448 448 l 1
 448 560 l 1
 336 560 l 1
224 448 m 1
 224 336 l 1
 336 336 l 1
 336 448 l 1
 224 448 l 1
EndSplineSet
EndChar

StartChar: uni2778
Encoding: 10104 10104 38
Width: 672
GlyphClass: 1
Flags: W
LayerCount: 2
Fore
SplineSet
112 672 m 1
 112 784 l 1
 448 784 l 1
 448 672 l 1
 560 672 l 1
 560 112 l 1
 448 112 l 1
 448 0 l 1
 112 0 l 1
 112 112 l 1
 0 112 l 1
 0 672 l 1
 112 672 l 1
112 672 m 1
 112 560 l 1
 336 560 l 1
 336 672 l 1
 112 672 l 1
336 560 m 1
 336 448 l 1
 448 448 l 1
 448 560 l 1
 336 560 l 1
224 448 m 1
 224 336 l 1
 336 336 l 1
 336 448 l 1
 224 448 l 1
336 336 m 1
 336 224 l 1
 448 224 l 1
 448 336 l 1
 336 336 l 1
112 224 m 1
 112 112 l 1
 336 112 l 1
 336 224 l 1
 112 224 l 1
EndSplineSet
EndChar

StartChar: uni2779
Encoding: 10105 10105 39
Width: 672
GlyphClass: 1
Flags: W
LayerCount: 2
Fore
SplineSet
112 672 m 1
 112 784 l 1
 448 784 l 1
 448 672 l 1
 560 672 l 1
 560 112 l 1
 448 112 l 1
 448 672 l 1
 336 672 l 1
 336 448 l 1
 224 448 l 1
 224 672 l 1
 112 672 l 1
 112 336 l 1
 336 336 l 1
 336 112 l 1
 448 112 l 1
 448 0 l 1
 112 0 l 1
 112 112 l 1
 0 112 l 1
 0 672 l 1
 112 672 l 1
EndSplineSet
EndChar

StartChar: uni277A
Encoding: 10106 10106 40
Width: 672
GlyphClass: 1
Flags: W
LayerCount: 2
Fore
SplineSet
112 672 m 1
 112 784 l 1
 448 784 l 1
 448 672 l 1
 560 672 l 1
 560 112 l 1
 448 112 l 1
 448 0 l 1
 112 0 l 1
 112 112 l 1
 0 112 l 1
 0 672 l 1
 112 672 l 1
112 672 m 1
 112 336 l 1
 336 336 l 1
 336 224 l 1
 448 224 l 1
 448 448 l 1
 224 448 l 1
 224 560 l 1
 448 560 l 1
 448 672 l 1
 112 672 l 1
112 224 m 1
 112 112 l 1
 336 112 l 1
 336 224 l 1
 112 224 l 1
EndSplineSet
EndChar

StartChar: uni277B
Encoding: 10107 10107 41
Width: 672
GlyphClass: 1
Flags: W
LayerCount: 2
Fore
SplineSet
112 784 m 1
 448 784 l 1
 448 672 l 1
 560 672 l 1
 560 112 l 1
 448 112 l 1
 448 0 l 1
 112 0 l 1
 112 112 l 1
 0 112 l 1
 0 672 l 1
 112 672 l 1
 112 784 l 1
224 672 m 1
 224 560 l 1
 448 560 l 1
 448 672 l 1
 224 672 l 1
112 560 m 1
 112 224 l 1
 224 224 l 1
 224 336 l 1
 336 336 l 1
 336 448 l 1
 224 448 l 1
 224 560 l 1
 112 560 l 1
336 336 m 1
 336 224 l 1
 448 224 l 1
 448 336 l 1
 336 336 l 1
224 224 m 1
 224 112 l 1
 336 112 l 1
 336 224 l 1
 224 224 l 1
EndSplineSet
EndChar

StartChar: uni277C
Encoding: 10108 10108 42
Width: 672
GlyphClass: 1
Flags: W
LayerCount: 2
Fore
SplineSet
112 672 m 1
 112 784 l 1
 448 784 l 1
 448 672 l 1
 560 672 l 1
 560 112 l 1
 448 112 l 1
 448 0 l 1
 112 0 l 1
 112 112 l 1
 0 112 l 1
 0 672 l 1
 112 672 l 1
112 672 m 1
 112 560 l 1
 336 560 l 1
 336 448 l 1
 448 448 l 1
 448 672 l 1
 112 672 l 1
224 448 m 1
 224 112 l 1
 336 112 l 1
 336 448 l 1
 224 448 l 1
EndSplineSet
EndChar

StartChar: uni277D
Encoding: 10109 10109 43
Width: 672
GlyphClass: 1
Flags: W
LayerCount: 2
Fore
SplineSet
112 784 m 1
 448 784 l 1
 448 672 l 1
 560 672 l 1
 560 112 l 1
 448 112 l 1
 448 0 l 1
 112 0 l 1
 112 112 l 1
 0 112 l 1
 0 672 l 1
 112 672 l 1
 112 784 l 1
224 672 m 1
 224 560 l 1
 336 560 l 1
 336 672 l 1
 224 672 l 1
112 560 m 1
 112 448 l 1
 224 448 l 1
 224 560 l 1
 112 560 l 1
336 560 m 1
 336 448 l 1
 448 448 l 1
 448 560 l 1
 336 560 l 1
224 448 m 1
 224 336 l 1
 336 336 l 1
 336 448 l 1
 224 448 l 1
112 336 m 1
 112 224 l 1
 224 224 l 1
 224 336 l 1
 112 336 l 1
336 336 m 1
 336 224 l 1
 448 224 l 1
 448 336 l 1
 336 336 l 1
224 224 m 1
 224 112 l 1
 336 112 l 1
 336 224 l 1
 224 224 l 1
EndSplineSet
EndChar

StartChar: uni277E
Encoding: 10110 10110 44
Width: 672
GlyphClass: 1
Flags: W
LayerCount: 2
Fore
SplineSet
112 784 m 1
 448 784 l 1
 448 672 l 1
 560 672 l 1
 560 112 l 1
 448 112 l 1
 448 0 l 1
 112 0 l 1
 112 112 l 1
 0 112 l 1
 0 672 l 1
 112 672 l 1
 112 784 l 1
224 672 m 1
 224 560 l 1
 336 560 l 1
 336 672 l 1
 224 672 l 1
112 560 m 1
 112 448 l 1
 224 448 l 1
 224 336 l 1
 336 336 l 1
 336 224 l 1
 448 224 l 1
 448 560 l 1
 336 560 l 1
 336 448 l 1
 224 448 l 1
 224 560 l 1
 112 560 l 1
112 224 m 1
 112 112 l 1
 336 112 l 1
 336 224 l 1
 112 224 l 1
EndSplineSet
EndChar

StartChar: uni277F
Encoding: 10111 10111 45
Width: 672
GlyphClass: 1
Flags: W
LayerCount: 2
Fore
SplineSet
0 672 m 1
 112 672 l 1
 112 112 l 1
 0 112 l 1
 0 672 l 1
336 560 m 1
 336 672 l 1
 448 672 l 1
 448 560 l 1
 560 560 l 1
 560 224 l 1
 448 224 l 1
 448 560 l 1
 336 560 l 1
 336 224 l 1
 448 224 l 1
 448 112 l 1
 336 112 l 1
 336 224 l 1
 224 224 l 1
 224 560 l 1
 336 560 l 1
EndSplineSet
EndChar

StartChar: uni2780
Encoding: 10112 10112 46
Width: 672
GlyphClass: 1
Flags: W
LayerCount: 2
Fore
SplineSet
224 672 m 1
 336 672 l 1
 336 224 l 1
 448 224 l 1
 448 112 l 1
 112 112 l 1
 112 224 l 1
 224 224 l 1
 224 448 l 1
 112 448 l 1
 112 560 l 1
 224 560 l 1
 224 672 l 1
EndSplineSet
EndChar

StartChar: uni2781
Encoding: 10113 10113 47
Width: 672
GlyphClass: 1
Flags: W
LayerCount: 2
Fore
SplineSet
112 672 m 1
 336 672 l 1
 336 560 l 1
 448 560 l 1
 448 448 l 1
 336 448 l 1
 336 336 l 1
 224 336 l 1
 224 224 l 1
 448 224 l 1
 448 112 l 1
 112 112 l 1
 112 336 l 1
 224 336 l 1
 224 448 l 1
 336 448 l 1
 336 560 l 1
 112 560 l 1
 112 672 l 1
EndSplineSet
EndChar

StartChar: uni2782
Encoding: 10114 10114 48
Width: 672
GlyphClass: 1
Flags: W
LayerCount: 2
Fore
SplineSet
112 672 m 1
 336 672 l 1
 336 560 l 1
 448 560 l 1
 448 448 l 1
 336 448 l 1
 336 336 l 1
 448 336 l 1
 448 224 l 1
 336 224 l 1
 336 112 l 1
 112 112 l 1
 112 224 l 1
 336 224 l 1
 336 336 l 1
 224 336 l 1
 224 448 l 1
 336 448 l 1
 336 560 l 1
 112 560 l 1
 112 672 l 1
EndSplineSet
EndChar

StartChar: uni2783
Encoding: 10115 10115 49
Width: 672
GlyphClass: 1
Flags: W
LayerCount: 2
Fore
SplineSet
112 672 m 1
 224 672 l 1
 224 448 l 1
 336 448 l 1
 336 672 l 1
 448 672 l 1
 448 112 l 1
 336 112 l 1
 336 336 l 1
 112 336 l 1
 112 672 l 1
EndSplineSet
EndChar

StartChar: uni2784
Encoding: 10116 10116 50
Width: 672
GlyphClass: 1
Flags: W
LayerCount: 2
Fore
SplineSet
112 672 m 1
 448 672 l 1
 448 560 l 1
 224 560 l 1
 224 448 l 1
 448 448 l 1
 448 224 l 1
 336 224 l 1
 336 112 l 1
 112 112 l 1
 112 224 l 1
 336 224 l 1
 336 336 l 1
 112 336 l 1
 112 672 l 1
EndSplineSet
EndChar

StartChar: uni2785
Encoding: 10117 10117 51
Width: 672
GlyphClass: 1
Flags: W
LayerCount: 2
Fore
SplineSet
224 336 m 1
 224 224 l 1
 336 224 l 1
 336 112 l 1
 224 112 l 1
 224 224 l 1
 112 224 l 1
 112 560 l 1
 224 560 l 1
 224 672 l 1
 448 672 l 1
 448 560 l 1
 224 560 l 1
 224 448 l 1
 336 448 l 1
 336 336 l 1
 448 336 l 1
 448 224 l 1
 336 224 l 1
 336 336 l 1
 224 336 l 1
EndSplineSet
EndChar

StartChar: uni2786
Encoding: 10118 10118 52
Width: 672
GlyphClass: 1
Flags: W
LayerCount: 2
Fore
SplineSet
112 672 m 1
 448 672 l 1
 448 448 l 1
 336 448 l 1
 336 112 l 1
 224 112 l 1
 224 448 l 1
 336 448 l 1
 336 560 l 1
 112 560 l 1
 112 672 l 1
EndSplineSet
EndChar

StartChar: uni2787
Encoding: 10119 10119 53
Width: 672
GlyphClass: 1
Flags: W
LayerCount: 2
Fore
SplineSet
224 336 m 1
 224 448 l 1
 112 448 l 1
 112 560 l 1
 224 560 l 1
 224 672 l 1
 336 672 l 1
 336 560 l 1
 448 560 l 1
 448 448 l 1
 336 448 l 1
 336 560 l 1
 224 560 l 1
 224 448 l 1
 336 448 l 1
 336 336 l 1
 448 336 l 1
 448 224 l 1
 336 224 l 1
 336 336 l 1
 224 336 l 1
 224 224 l 1
 336 224 l 1
 336 112 l 1
 224 112 l 1
 224 224 l 1
 112 224 l 1
 112 336 l 1
 224 336 l 1
EndSplineSet
EndChar

StartChar: uni2788
Encoding: 10120 10120 54
Width: 672
GlyphClass: 1
Flags: W
LayerCount: 2
Fore
SplineSet
224 560 m 1
 224 672 l 1
 336 672 l 1
 336 560 l 1
 448 560 l 1
 448 224 l 1
 336 224 l 1
 336 112 l 1
 112 112 l 1
 112 224 l 1
 336 224 l 1
 336 336 l 1
 224 336 l 1
 224 448 l 1
 112 448 l 1
 112 560 l 1
 224 560 l 1
224 560 m 1
 224 448 l 1
 336 448 l 1
 336 560 l 1
 224 560 l 1
EndSplineSet
EndChar

StartChar: uni2789
Encoding: 10121 10121 55
Width: 672
GlyphClass: 1
Flags: W
LayerCount: 2
Fore
SplineSet
0 672 m 1
 112 672 l 1
 112 112 l 1
 0 112 l 1
 0 672 l 1
336 560 m 1
 336 672 l 1
 448 672 l 1
 448 560 l 1
 560 560 l 1
 560 224 l 1
 448 224 l 1
 448 560 l 1
 336 560 l 1
 336 224 l 1
 448 224 l 1
 448 112 l 1
 336 112 l 1
 336 224 l 1
 224 224 l 1
 224 560 l 1
 336 560 l 1
EndSplineSet
EndChar

StartChar: uni278A
Encoding: 10122 10122 56
Width: 672
GlyphClass: 1
Flags: W
LayerCount: 2
Fore
SplineSet
224 672 m 1
 224 560 l 1
 112 560 l 1
 112 448 l 1
 224 448 l 1
 224 224 l 1
 112 224 l 1
 112 112 l 1
 448 112 l 1
 448 0 l 1
 112 0 l 1
 112 112 l 1
 0 112 l 1
 0 672 l 1
 112 672 l 1
 112 784 l 1
 448 784 l 1
 448 672 l 1
 560 672 l 1
 560 112 l 1
 448 112 l 1
 448 224 l 1
 336 224 l 1
 336 672 l 1
 224 672 l 1
EndSplineSet
EndChar

StartChar: uni278B
Encoding: 10123 10123 57
Width: 672
GlyphClass: 1
Flags: W
LayerCount: 2
Fore
SplineSet
112 336 m 1
 112 112 l 1
 448 112 l 1
 448 0 l 1
 112 0 l 1
 112 112 l 1
 0 112 l 1
 0 672 l 1
 112 672 l 1
 112 784 l 1
 448 784 l 1
 448 672 l 1
 560 672 l 1
 560 112 l 1
 448 112 l 1
 448 224 l 1
 224 224 l 1
 224 336 l 1
 112 336 l 1
112 672 m 1
 112 560 l 1
 336 560 l 1
 336 672 l 1
 112 672 l 1
336 560 m 1
 336 448 l 1
 448 448 l 1
 448 560 l 1
 336 560 l 1
224 448 m 1
 224 336 l 1
 336 336 l 1
 336 448 l 1
 224 448 l 1
EndSplineSet
EndChar

StartChar: uni278C
Encoding: 10124 10124 58
Width: 672
GlyphClass: 1
Flags: W
LayerCount: 2
Fore
SplineSet
112 672 m 1
 112 784 l 1
 448 784 l 1
 448 672 l 1
 560 672 l 1
 560 112 l 1
 448 112 l 1
 448 0 l 1
 112 0 l 1
 112 112 l 1
 0 112 l 1
 0 672 l 1
 112 672 l 1
112 672 m 1
 112 560 l 1
 336 560 l 1
 336 672 l 1
 112 672 l 1
336 560 m 1
 336 448 l 1
 448 448 l 1
 448 560 l 1
 336 560 l 1
224 448 m 1
 224 336 l 1
 336 336 l 1
 336 448 l 1
 224 448 l 1
336 336 m 1
 336 224 l 1
 448 224 l 1
 448 336 l 1
 336 336 l 1
112 224 m 1
 112 112 l 1
 336 112 l 1
 336 224 l 1
 112 224 l 1
EndSplineSet
EndChar

StartChar: uni278D
Encoding: 10125 10125 59
Width: 672
GlyphClass: 1
Flags: W
LayerCount: 2
Fore
SplineSet
112 672 m 1
 112 784 l 1
 448 784 l 1
 448 672 l 1
 560 672 l 1
 560 112 l 1
 448 112 l 1
 448 672 l 1
 336 672 l 1
 336 448 l 1
 224 448 l 1
 224 672 l 1
 112 672 l 1
 112 336 l 1
 336 336 l 1
 336 112 l 1
 448 112 l 1
 448 0 l 1
 112 0 l 1
 112 112 l 1
 0 112 l 1
 0 672 l 1
 112 672 l 1
EndSplineSet
EndChar

StartChar: uni278E
Encoding: 10126 10126 60
Width: 672
GlyphClass: 1
Flags: W
LayerCount: 2
Fore
SplineSet
112 672 m 1
 112 784 l 1
 448 784 l 1
 448 672 l 1
 560 672 l 1
 560 112 l 1
 448 112 l 1
 448 0 l 1
 112 0 l 1
 112 112 l 1
 0 112 l 1
 0 672 l 1
 112 672 l 1
112 672 m 1
 112 336 l 1
 336 336 l 1
 336 224 l 1
 448 224 l 1
 448 448 l 1
 224 448 l 1
 224 560 l 1
 448 560 l 1
 448 672 l 1
 112 672 l 1
112 224 m 1
 112 112 l 1
 336 112 l 1
 336 224 l 1
 112 224 l 1
EndSplineSet
EndChar

StartChar: uni278F
Encoding: 10127 10127 61
Width: 672
GlyphClass: 1
Flags: W
LayerCount: 2
Fore
SplineSet
112 784 m 1
 448 784 l 1
 448 672 l 1
 560 672 l 1
 560 112 l 1
 448 112 l 1
 448 0 l 1
 112 0 l 1
 112 112 l 1
 0 112 l 1
 0 672 l 1
 112 672 l 1
 112 784 l 1
224 672 m 1
 224 560 l 1
 448 560 l 1
 448 672 l 1
 224 672 l 1
112 560 m 1
 112 224 l 1
 224 224 l 1
 224 336 l 1
 336 336 l 1
 336 448 l 1
 224 448 l 1
 224 560 l 1
 112 560 l 1
336 336 m 1
 336 224 l 1
 448 224 l 1
 448 336 l 1
 336 336 l 1
224 224 m 1
 224 112 l 1
 336 112 l 1
 336 224 l 1
 224 224 l 1
EndSplineSet
EndChar

StartChar: uni2790
Encoding: 10128 10128 62
Width: 672
GlyphClass: 1
Flags: W
LayerCount: 2
Fore
SplineSet
112 672 m 1
 112 784 l 1
 448 784 l 1
 448 672 l 1
 560 672 l 1
 560 112 l 1
 448 112 l 1
 448 0 l 1
 112 0 l 1
 112 112 l 1
 0 112 l 1
 0 672 l 1
 112 672 l 1
112 672 m 1
 112 560 l 1
 336 560 l 1
 336 448 l 1
 448 448 l 1
 448 672 l 1
 112 672 l 1
224 448 m 1
 224 112 l 1
 336 112 l 1
 336 448 l 1
 224 448 l 1
EndSplineSet
EndChar

StartChar: uni2791
Encoding: 10129 10129 63
Width: 672
GlyphClass: 1
Flags: W
LayerCount: 2
Fore
SplineSet
112 784 m 1
 448 784 l 1
 448 672 l 1
 560 672 l 1
 560 112 l 1
 448 112 l 1
 448 0 l 1
 112 0 l 1
 112 112 l 1
 0 112 l 1
 0 672 l 1
 112 672 l 1
 112 784 l 1
224 672 m 1
 224 560 l 1
 336 560 l 1
 336 672 l 1
 224 672 l 1
112 560 m 1
 112 448 l 1
 224 448 l 1
 224 560 l 1
 112 560 l 1
336 560 m 1
 336 448 l 1
 448 448 l 1
 448 560 l 1
 336 560 l 1
224 448 m 1
 224 336 l 1
 336 336 l 1
 336 448 l 1
 224 448 l 1
112 336 m 1
 112 224 l 1
 224 224 l 1
 224 336 l 1
 112 336 l 1
336 336 m 1
 336 224 l 1
 448 224 l 1
 448 336 l 1
 336 336 l 1
224 224 m 1
 224 112 l 1
 336 112 l 1
 336 224 l 1
 224 224 l 1
EndSplineSet
EndChar

StartChar: uni2792
Encoding: 10130 10130 64
Width: 672
GlyphClass: 1
Flags: W
LayerCount: 2
Fore
SplineSet
112 784 m 1
 448 784 l 1
 448 672 l 1
 560 672 l 1
 560 112 l 1
 448 112 l 1
 448 0 l 1
 112 0 l 1
 112 112 l 1
 0 112 l 1
 0 672 l 1
 112 672 l 1
 112 784 l 1
224 672 m 1
 224 560 l 1
 336 560 l 1
 336 672 l 1
 224 672 l 1
112 560 m 1
 112 448 l 1
 224 448 l 1
 224 336 l 1
 336 336 l 1
 336 224 l 1
 448 224 l 1
 448 560 l 1
 336 560 l 1
 336 448 l 1
 224 448 l 1
 224 560 l 1
 112 560 l 1
112 224 m 1
 112 112 l 1
 336 112 l 1
 336 224 l 1
 112 224 l 1
EndSplineSet
EndChar

StartChar: uni2793
Encoding: 10131 10131 65
Width: 672
GlyphClass: 1
Flags: W
LayerCount: 2
Fore
SplineSet
0 672 m 1
 112 672 l 1
 112 112 l 1
 0 112 l 1
 0 672 l 1
336 560 m 1
 336 672 l 1
 448 672 l 1
 448 560 l 1
 560 560 l 1
 560 224 l 1
 448 224 l 1
 448 560 l 1
 336 560 l 1
 336 224 l 1
 448 224 l 1
 448 112 l 1
 336 112 l 1
 336 224 l 1
 224 224 l 1
 224 560 l 1
 336 560 l 1
EndSplineSet
EndChar

StartChar: uni27B0
Encoding: 10160 10160 66
Width: 1344
GlyphClass: 1
Flags: W
LayerCount: 2
Fore
SplineSet
560 560 m 1
 560 672 l 1
 224 672 l 1
 224 560 l 1
 112 560 l 1
 112 672 l 1
 224 672 l 1
 224 784 l 1
 560 784 l 1
 560 672 l 1
 672 672 l 1
 672 784 l 1
 1008 784 l 1
 1008 672 l 1
 1120 672 l 1
 1120 560 l 1
 1008 560 l 1
 1008 672 l 1
 672 672 l 1
 672 560 l 1
 784 560 l 1
 784 448 l 1
 896 448 l 1
 896 112 l 1
 784 112 l 1
 784 448 l 1
 672 448 l 1
 672 560 l 1
 560 560 l 1
 560 448 l 1
 448 448 l 1
 448 112 l 1
 784 112 l 1
 784 0 l 1
 448 0 l 1
 448 112 l 1
 336 112 l 1
 336 448 l 1
 448 448 l 1
 448 560 l 1
 560 560 l 1
EndSplineSet
EndChar

StartChar: uni27BF
Encoding: 10175 10175 67
Width: 1344
GlyphClass: 1
Flags: W
LayerCount: 2
Fore
SplineSet
1232 672 m 1
 1008 672 l 1
 1008 784 l 1
 1232 784 l 1
 1232 672 l 1
224 560 m 1
 224 672 l 1
 0 672 l 1
 0 784 l 1
 224 784 l 1
 224 672 l 1
 336 672 l 1
 336 784 l 1
 896 784 l 1
 896 672 l 1
 1008 672 l 1
 1008 560 l 1
 1120 560 l 1
 1120 448 l 1
 1232 448 l 1
 1232 112 l 1
 1120 112 l 1
 1120 448 l 1
 1008 448 l 1
 1008 560 l 1
 896 560 l 1
 896 448 l 1
 784 448 l 1
 784 112 l 1
 1120 112 l 1
 1120 0 l 1
 784 0 l 1
 784 112 l 1
 672 112 l 1
 672 448 l 1
 784 448 l 1
 784 560 l 1
 896 560 l 1
 896 672 l 1
 336 672 l 1
 336 560 l 1
 448 560 l 1
 448 448 l 1
 560 448 l 1
 560 112 l 1
 448 112 l 1
 448 448 l 1
 336 448 l 1
 336 560 l 1
 224 560 l 1
 224 448 l 1
 112 448 l 1
 112 112 l 1
 448 112 l 1
 448 0 l 1
 112 0 l 1
 112 112 l 1
 0 112 l 1
 0 448 l 1
 112 448 l 1
 112 560 l 1
 224 560 l 1
EndSplineSet
EndChar

StartChar: uni2C7C
Encoding: 11388 11388 68
Width: 672
GlyphClass: 1
Flags: W
LayerCount: 2
Fore
SplineSet
224 336 m 1
 336 336 l 1
 336 224 l 1
 224 224 l 1
 224 336 l 1
224 112 m 1
 336 112 l 1
 336 -112 l 1
 224 -112 l 1
 224 -224 l 1
 112 -224 l 1
 112 -112 l 1
 224 -112 l 1
 224 112 l 1
EndSplineSet
EndChar

StartChar: uni2C7D
Encoding: 11389 11389 69
Width: 672
GlyphClass: 1
Flags: W
LayerCount: 2
Fore
SplineSet
448 448 m 1
 336 448 l 1
 336 672 l 1
 448 672 l 1
 448 896 l 1
 560 896 l 1
 560 672 l 1
 448 672 l 1
 448 448 l 1
0 896 m 1
 112 896 l 1
 112 672 l 1
 224 672 l 1
 224 448 l 1
 336 448 l 1
 336 336 l 1
 224 336 l 1
 224 448 l 1
 112 448 l 1
 112 672 l 1
 0 672 l 1
 0 896 l 1
EndSplineSet
EndChar

StartChar: uniEE00
Encoding: 60928 60928 70
Width: 672
GlyphClass: 1
Flags: W
LayerCount: 2
Fore
SplineSet
0 896 m 1
 672 896 l 1
 672 784 l 1
 112 784 l 1
 112 0 l 1
 672 0 l 1
 672 -112 l 1
 0 -112 l 1
 0 896 l 1
EndSplineSet
EndChar

StartChar: uniEE01
Encoding: 60929 60929 71
Width: 672
GlyphClass: 1
Flags: W
LayerCount: 2
Fore
SplineSet
0 896 m 1
 672 896 l 1
 672 784 l 1
 0 784 l 1
 0 896 l 1
0 0 m 1
 672 0 l 1
 672 -112 l 1
 0 -112 l 1
 0 0 l 1
EndSplineSet
EndChar

StartChar: uniEE02
Encoding: 60930 60930 72
Width: 672
GlyphClass: 1
Flags: W
LayerCount: 2
Fore
SplineSet
0 896 m 1
 560 896 l 1
 560 -112 l 1
 0 -112 l 1
 0 0 l 1
 448 0 l 1
 448 784 l 1
 0 784 l 1
 0 896 l 1
EndSplineSet
EndChar

StartChar: uniEE03
Encoding: 60931 60931 73
Width: 672
GlyphClass: 1
Flags: W
LayerCount: 2
Fore
SplineSet
0 896 m 1
 672 896 l 1
 672 784 l 1
 112 784 l 1
 112 0 l 1
 672 0 l 1
 672 -112 l 1
 0 -112 l 1
 0 896 l 1
224 672 m 1
 672 672 l 1
 672 112 l 1
 224 112 l 1
 224 672 l 1
EndSplineSet
EndChar

StartChar: uniEE04
Encoding: 60932 60932 74
Width: 672
GlyphClass: 1
Flags: W
LayerCount: 2
Fore
SplineSet
0 896 m 1
 672 896 l 1
 672 784 l 1
 0 784 l 1
 0 896 l 1
0 672 m 1
 672 672 l 1
 672 112 l 1
 0 112 l 1
 0 672 l 1
0 0 m 1
 672 0 l 1
 672 -112 l 1
 0 -112 l 1
 0 0 l 1
EndSplineSet
EndChar

StartChar: uniEE05
Encoding: 60933 60933 75
Width: 672
GlyphClass: 1
Flags: W
LayerCount: 2
Fore
SplineSet
0 896 m 1
 560 896 l 1
 560 -112 l 1
 0 -112 l 1
 0 0 l 1
 448 0 l 1
 448 784 l 1
 0 784 l 1
 0 896 l 1
0 672 m 1
 336 672 l 1
 336 112 l 1
 0 112 l 1
 0 672 l 1
EndSplineSet
EndChar

StartChar: uniEE06
Encoding: 60934 60934 76
Width: 672
GlyphClass: 1
Flags: W
LayerCount: 2
Fore
SplineSet
112 672 m 1
 448 672 l 1
 448 560 l 1
 560 560 l 1
 560 448 l 1
 448 448 l 1
 448 560 l 1
 112 560 l 1
 112 448 l 1
 0 448 l 1
 0 560 l 1
 112 560 l 1
 112 672 l 1
EndSplineSet
EndChar

StartChar: uniEE07
Encoding: 60935 60935 77
Width: 672
GlyphClass: 1
Flags: W
LayerCount: 2
Fore
SplineSet
224 672 m 1
 448 672 l 1
 448 560 l 1
 560 560 l 1
 560 224 l 1
 448 224 l 1
 448 560 l 1
 224 560 l 1
 224 672 l 1
EndSplineSet
EndChar

StartChar: uniEE08
Encoding: 60936 60936 78
Width: 672
GlyphClass: 1
Flags: W
LayerCount: 2
Fore
SplineSet
448 560 m 1
 560 560 l 1
 560 224 l 1
 448 224 l 1
 448 112 l 1
 224 112 l 1
 224 224 l 1
 448 224 l 1
 448 560 l 1
EndSplineSet
EndChar

StartChar: uniEE09
Encoding: 60937 60937 79
Width: 672
GlyphClass: 1
Flags: W
LayerCount: 2
Fore
SplineSet
560 224 m 1
 448 224 l 1
 448 336 l 1
 560 336 l 1
 560 224 l 1
0 336 m 1
 112 336 l 1
 112 224 l 1
 448 224 l 1
 448 112 l 1
 112 112 l 1
 112 224 l 1
 0 224 l 1
 0 336 l 1
EndSplineSet
EndChar

StartChar: uniEE0A
Encoding: 60938 60938 80
Width: 672
GlyphClass: 1
Flags: W
LayerCount: 2
Fore
SplineSet
0 560 m 1
 112 560 l 1
 112 224 l 1
 336 224 l 1
 336 112 l 1
 112 112 l 1
 112 224 l 1
 0 224 l 1
 0 560 l 1
EndSplineSet
EndChar

StartChar: uniEE0B
Encoding: 60939 60939 81
Width: 672
GlyphClass: 1
Flags: W
LayerCount: 2
Fore
SplineSet
112 672 m 1
 336 672 l 1
 336 560 l 1
 112 560 l 1
 112 224 l 1
 0 224 l 1
 0 560 l 1
 112 560 l 1
 112 672 l 1
EndSplineSet
EndChar

StartChar: exclam
Encoding: 33 33 83
Width: 672
GlyphClass: 1
Flags: W
LayerCount: 2
Fore
SplineSet
224 784 m 1
 336 784 l 1
 336 224 l 1
 224 224 l 1
 224 784 l 1
224 112 m 1
 336 112 l 1
 336 0 l 1
 224 0 l 1
 224 112 l 1
EndSplineSet
EndChar

StartChar: quotedbl
Encoding: 34 34 84
Width: 672
GlyphClass: 1
Flags: W
LayerCount: 2
Fore
SplineSet
112 784 m 1
 224 784 l 1
 224 560 l 1
 112 560 l 1
 112 784 l 1
336 784 m 1
 448 784 l 1
 448 560 l 1
 336 560 l 1
 336 784 l 1
EndSplineSet
EndChar

StartChar: numbersign
Encoding: 35 35 85
Width: 672
GlyphClass: 1
Flags: W
LayerCount: 2
Fore
SplineSet
112 784 m 1
 224 784 l 1
 224 560 l 1
 336 560 l 1
 336 784 l 1
 448 784 l 1
 448 560 l 1
 560 560 l 1
 560 448 l 1
 448 448 l 1
 448 336 l 1
 560 336 l 1
 560 224 l 1
 448 224 l 1
 448 0 l 1
 336 0 l 1
 336 224 l 1
 224 224 l 1
 224 0 l 1
 112 0 l 1
 112 224 l 1
 0 224 l 1
 0 336 l 1
 112 336 l 1
 112 448 l 1
 0 448 l 1
 0 560 l 1
 112 560 l 1
 112 784 l 1
224 448 m 1
 224 336 l 1
 336 336 l 1
 336 448 l 1
 224 448 l 1
EndSplineSet
EndChar

StartChar: dollar
Encoding: 36 36 86
Width: 672
GlyphClass: 1
Flags: W
LayerCount: 2
Fore
SplineSet
336 336 m 1
 336 112 l 1
 448 112 l 1
 448 0 l 1
 336 0 l 1
 336 -112 l 1
 224 -112 l 1
 224 0 l 1
 112 0 l 1
 112 112 l 1
 0 112 l 1
 0 224 l 1
 112 224 l 1
 112 112 l 1
 224 112 l 1
 224 336 l 1
 112 336 l 1
 112 448 l 1
 0 448 l 1
 0 672 l 1
 112 672 l 1
 112 784 l 1
 224 784 l 1
 224 896 l 1
 336 896 l 1
 336 784 l 1
 448 784 l 1
 448 672 l 1
 560 672 l 1
 560 560 l 1
 448 560 l 1
 448 672 l 1
 336 672 l 1
 336 448 l 1
 448 448 l 1
 448 336 l 1
 560 336 l 1
 560 112 l 1
 448 112 l 1
 448 336 l 1
 336 336 l 1
112 672 m 1
 112 448 l 1
 224 448 l 1
 224 672 l 1
 112 672 l 1
EndSplineSet
EndChar

StartChar: percent
Encoding: 37 37 87
Width: 672
GlyphClass: 1
Flags: W
LayerCount: 2
Fore
SplineSet
0 784 m 1
 112 784 l 1
 112 560 l 1
 0 560 l 1
 0 784 l 1
448 784 m 1
 560 784 l 1
 560 672 l 1
 448 672 l 1
 448 448 l 1
 336 448 l 1
 336 336 l 1
 224 336 l 1
 224 112 l 1
 112 112 l 1
 112 0 l 1
 0 0 l 1
 0 112 l 1
 112 112 l 1
 112 336 l 1
 224 336 l 1
 224 448 l 1
 336 448 l 1
 336 672 l 1
 448 672 l 1
 448 784 l 1
448 224 m 1
 560 224 l 1
 560 0 l 1
 448 0 l 1
 448 224 l 1
EndSplineSet
EndChar

StartChar: ampersand
Encoding: 38 38 88
Width: 672
GlyphClass: 1
Flags: W
LayerCount: 2
Fore
SplineSet
112 448 m 1
 112 560 l 1
 0 560 l 1
 0 672 l 1
 112 672 l 1
 112 784 l 1
 224 784 l 1
 224 672 l 1
 336 672 l 1
 336 560 l 1
 224 560 l 1
 224 672 l 1
 112 672 l 1
 112 560 l 1
 224 560 l 1
 224 448 l 1
 336 448 l 1
 336 336 l 1
 448 336 l 1
 448 112 l 1
 560 112 l 1
 560 0 l 1
 448 0 l 1
 448 112 l 1
 336 112 l 1
 336 0 l 1
 112 0 l 1
 112 112 l 1
 0 112 l 1
 0 448 l 1
 112 448 l 1
560 336 m 1
 448 336 l 1
 448 448 l 1
 560 448 l 1
 560 336 l 1
112 448 m 1
 112 112 l 1
 336 112 l 1
 336 336 l 1
 224 336 l 1
 224 448 l 1
 112 448 l 1
EndSplineSet
EndChar

StartChar: quotesingle
Encoding: 39 39 89
Width: 672
GlyphClass: 1
Flags: W
LayerCount: 2
Fore
SplineSet
224 784 m 1
 336 784 l 1
 336 560 l 1
 224 560 l 1
 224 784 l 1
EndSplineSet
EndChar

StartChar: parenleft
Encoding: 40 40 90
Width: 672
GlyphClass: 1
Flags: W
LayerCount: 2
Fore
SplineSet
336 896 m 1
 448 896 l 1
 448 784 l 1
 336 784 l 1
 336 672 l 1
 224 672 l 1
 224 112 l 1
 336 112 l 1
 336 0 l 1
 448 0 l 1
 448 -112 l 1
 336 -112 l 1
 336 0 l 1
 224 0 l 1
 224 112 l 1
 112 112 l 1
 112 672 l 1
 224 672 l 1
 224 784 l 1
 336 784 l 1
 336 896 l 1
EndSplineSet
EndChar

StartChar: parenright
Encoding: 41 41 91
Width: 672
GlyphClass: 1
Flags: W
LayerCount: 2
Fore
SplineSet
112 896 m 1
 224 896 l 1
 224 784 l 1
 336 784 l 1
 336 672 l 1
 448 672 l 1
 448 112 l 1
 336 112 l 1
 336 0 l 1
 224 0 l 1
 224 -112 l 1
 112 -112 l 1
 112 0 l 1
 224 0 l 1
 224 112 l 1
 336 112 l 1
 336 672 l 1
 224 672 l 1
 224 784 l 1
 112 784 l 1
 112 896 l 1
EndSplineSet
EndChar

StartChar: asterisk
Encoding: 42 42 92
Width: 672
GlyphClass: 1
Flags: W
LayerCount: 2
Fore
SplineSet
448 672 m 1
 336 672 l 1
 336 784 l 1
 448 784 l 1
 448 672 l 1
112 784 m 1
 224 784 l 1
 224 672 l 1
 336 672 l 1
 336 560 l 1
 448 560 l 1
 448 448 l 1
 336 448 l 1
 336 560 l 1
 224 560 l 1
 224 448 l 1
 112 448 l 1
 112 560 l 1
 224 560 l 1
 224 672 l 1
 112 672 l 1
 112 784 l 1
EndSplineSet
Substitution2: "Single Substitution lookup 21 subtable" asterisk
Substitution2: "Single Substitution lookup 18 subtable" asterisk.calt
EndChar

StartChar: plus
Encoding: 43 43 93
Width: 672
GlyphClass: 1
Flags: W
LayerCount: 2
Fore
SplineSet
224 672 m 1
 336 672 l 1
 336 448 l 1
 560 448 l 1
 560 336 l 1
 336 336 l 1
 336 112 l 1
 224 112 l 1
 224 336 l 1
 0 336 l 1
 0 448 l 1
 224 448 l 1
 224 672 l 1
EndSplineSet
Substitution2: "Single Substitution lookup 18 subtable" plus.calt
EndChar

StartChar: comma
Encoding: 44 44 94
Width: 672
GlyphClass: 1
Flags: W
LayerCount: 2
Fore
SplineSet
112 112 m 1
 224 112 l 1
 224 0 l 1
 112 0 l 1
 112 -112 l 1
 0 -112 l 1
 0 0 l 1
 112 0 l 1
 112 112 l 1
EndSplineSet
Substitution2: "'ss01' Style Set 1 lookup 3 subtable" comma.ss01
EndChar

StartChar: hyphen
Encoding: 45 45 95
Width: 672
GlyphClass: 1
Flags: W
LayerCount: 2
Fore
SplineSet
0 448 m 1
 560 448 l 1
 560 336 l 1
 0 336 l 1
 0 448 l 1
EndSplineSet
Substitution2: "Single Substitution lookup 18 subtable" hyphen.calt
EndChar

StartChar: period
Encoding: 46 46 96
Width: 672
GlyphClass: 1
Flags: W
LayerCount: 2
Fore
SplineSet
224 112 m 1
 336 112 l 1
 336 0 l 1
 224 0 l 1
 224 112 l 1
EndSplineSet
EndChar

StartChar: slash
Encoding: 47 47 97
Width: 672
GlyphClass: 1
Flags: W
LayerCount: 2
Fore
SplineSet
448 784 m 1
 560 784 l 1
 560 672 l 1
 448 672 l 1
 448 448 l 1
 336 448 l 1
 336 336 l 1
 224 336 l 1
 224 112 l 1
 112 112 l 1
 112 0 l 1
 0 0 l 1
 0 112 l 1
 112 112 l 1
 112 336 l 1
 224 336 l 1
 224 448 l 1
 336 448 l 1
 336 672 l 1
 448 672 l 1
 448 784 l 1
EndSplineSet
Substitution2: "Single Substitution lookup 21 subtable" slash
EndChar

StartChar: zero
Encoding: 48 48 98
Width: 672
GlyphClass: 1
Flags: W
LayerCount: 2
Fore
SplineSet
336 448 m 1
 336 336 l 1
 224 336 l 1
 224 448 l 1
 336 448 l 1
 336 560 l 1
 448 560 l 1
 448 672 l 1
 112 672 l 1
 112 336 l 1
 224 336 l 1
 224 224 l 1
 112 224 l 1
 112 112 l 1
 448 112 l 1
 448 0 l 1
 112 0 l 1
 112 112 l 1
 0 112 l 1
 0 672 l 1
 112 672 l 1
 112 784 l 1
 448 784 l 1
 448 672 l 1
 560 672 l 1
 560 112 l 1
 448 112 l 1
 448 448 l 1
 336 448 l 1
EndSplineSet
Substitution2: "'onum' Oldstyle Figures lookup 2 subtable" zero.onum
EndChar

StartChar: one
Encoding: 49 49 99
Width: 672
GlyphClass: 1
Flags: W
LayerCount: 2
Fore
SplineSet
224 784 m 1
 336 784 l 1
 336 112 l 1
 560 112 l 1
 560 0 l 1
 0 0 l 1
 0 112 l 1
 224 112 l 1
 224 560 l 1
 112 560 l 1
 112 448 l 1
 0 448 l 1
 0 560 l 1
 112 560 l 1
 112 672 l 1
 224 672 l 1
 224 784 l 1
EndSplineSet
Substitution2: "'onum' Oldstyle Figures lookup 2 subtable" one.onum
EndChar

StartChar: two
Encoding: 50 50 100
Width: 672
GlyphClass: 1
Flags: W
LayerCount: 2
Fore
SplineSet
112 784 m 1
 448 784 l 1
 448 672 l 1
 560 672 l 1
 560 448 l 1
 448 448 l 1
 448 336 l 1
 336 336 l 1
 336 224 l 1
 224 224 l 1
 224 112 l 1
 560 112 l 1
 560 0 l 1
 0 0 l 1
 0 112 l 1
 112 112 l 1
 112 224 l 1
 224 224 l 1
 224 336 l 1
 336 336 l 1
 336 448 l 1
 448 448 l 1
 448 672 l 1
 112 672 l 1
 112 560 l 1
 0 560 l 1
 0 672 l 1
 112 672 l 1
 112 784 l 1
EndSplineSet
Substitution2: "'onum' Oldstyle Figures lookup 2 subtable" two.onum
EndChar

StartChar: three
Encoding: 51 51 101
Width: 672
GlyphClass: 1
Flags: W
LayerCount: 2
Fore
SplineSet
112 784 m 1
 448 784 l 1
 448 672 l 1
 560 672 l 1
 560 448 l 1
 448 448 l 1
 448 336 l 1
 560 336 l 1
 560 112 l 1
 448 112 l 1
 448 336 l 1
 224 336 l 1
 224 448 l 1
 448 448 l 1
 448 672 l 1
 112 672 l 1
 112 560 l 1
 0 560 l 1
 0 672 l 1
 112 672 l 1
 112 784 l 1
448 112 m 1
 448 0 l 1
 112 0 l 1
 112 112 l 1
 0 112 l 1
 0 224 l 1
 112 224 l 1
 112 112 l 1
 448 112 l 1
EndSplineSet
Substitution2: "'onum' Oldstyle Figures lookup 2 subtable" three.onum
EndChar

StartChar: four
Encoding: 52 52 102
Width: 672
GlyphClass: 1
Flags: W
LayerCount: 2
Fore
SplineSet
224 672 m 1
 224 784 l 1
 448 784 l 1
 448 448 l 1
 560 448 l 1
 560 336 l 1
 448 336 l 1
 448 0 l 1
 336 0 l 1
 336 336 l 1
 0 336 l 1
 0 560 l 1
 112 560 l 1
 112 672 l 1
 224 672 l 1
224 672 m 1
 224 560 l 1
 112 560 l 1
 112 448 l 1
 336 448 l 1
 336 672 l 1
 224 672 l 1
EndSplineSet
Substitution2: "'onum' Oldstyle Figures lookup 2 subtable" four.onum
EndChar

StartChar: five
Encoding: 53 53 103
Width: 672
GlyphClass: 1
Flags: W
LayerCount: 2
Fore
SplineSet
0 784 m 1
 560 784 l 1
 560 672 l 1
 112 672 l 1
 112 560 l 1
 448 560 l 1
 448 448 l 1
 560 448 l 1
 560 112 l 1
 448 112 l 1
 448 448 l 1
 0 448 l 1
 0 784 l 1
448 112 m 1
 448 0 l 1
 112 0 l 1
 112 112 l 1
 0 112 l 1
 0 224 l 1
 112 224 l 1
 112 112 l 1
 448 112 l 1
EndSplineSet
Substitution2: "'onum' Oldstyle Figures lookup 2 subtable" five.onum
EndChar

StartChar: six
Encoding: 54 54 104
Width: 672
GlyphClass: 1
Flags: W
LayerCount: 2
Fore
SplineSet
112 336 m 1
 112 112 l 1
 448 112 l 1
 448 0 l 1
 112 0 l 1
 112 112 l 1
 0 112 l 1
 0 560 l 1
 112 560 l 1
 112 672 l 1
 224 672 l 1
 224 784 l 1
 448 784 l 1
 448 672 l 1
 224 672 l 1
 224 560 l 1
 112 560 l 1
 112 448 l 1
 448 448 l 1
 448 336 l 1
 560 336 l 1
 560 112 l 1
 448 112 l 1
 448 336 l 1
 112 336 l 1
EndSplineSet
Substitution2: "'onum' Oldstyle Figures lookup 2 subtable" six.onum
EndChar

StartChar: seven
Encoding: 55 55 105
Width: 672
GlyphClass: 1
Flags: W
LayerCount: 2
Fore
SplineSet
0 784 m 1
 560 784 l 1
 560 448 l 1
 448 448 l 1
 448 224 l 1
 336 224 l 1
 336 0 l 1
 224 0 l 1
 224 224 l 1
 336 224 l 1
 336 448 l 1
 448 448 l 1
 448 672 l 1
 112 672 l 1
 112 560 l 1
 0 560 l 1
 0 784 l 1
EndSplineSet
Substitution2: "'onum' Oldstyle Figures lookup 2 subtable" seven.onum
EndChar

StartChar: eight
Encoding: 56 56 106
Width: 672
GlyphClass: 1
Flags: W
LayerCount: 2
Fore
SplineSet
112 336 m 1
 112 448 l 1
 0 448 l 1
 0 672 l 1
 112 672 l 1
 112 784 l 1
 448 784 l 1
 448 672 l 1
 560 672 l 1
 560 448 l 1
 448 448 l 1
 448 672 l 1
 112 672 l 1
 112 448 l 1
 448 448 l 1
 448 336 l 1
 560 336 l 1
 560 112 l 1
 448 112 l 1
 448 336 l 1
 112 336 l 1
 112 112 l 1
 448 112 l 1
 448 0 l 1
 112 0 l 1
 112 112 l 1
 0 112 l 1
 0 336 l 1
 112 336 l 1
EndSplineSet
Substitution2: "'onum' Oldstyle Figures lookup 2 subtable" eight.onum
EndChar

StartChar: nine
Encoding: 57 57 107
Width: 672
GlyphClass: 1
Flags: W
LayerCount: 2
Fore
SplineSet
112 672 m 1
 112 784 l 1
 448 784 l 1
 448 672 l 1
 560 672 l 1
 560 224 l 1
 448 224 l 1
 448 112 l 1
 336 112 l 1
 336 0 l 1
 112 0 l 1
 112 112 l 1
 336 112 l 1
 336 224 l 1
 448 224 l 1
 448 336 l 1
 112 336 l 1
 112 448 l 1
 0 448 l 1
 0 672 l 1
 112 672 l 1
112 672 m 1
 112 448 l 1
 448 448 l 1
 448 672 l 1
 112 672 l 1
EndSplineSet
Substitution2: "'onum' Oldstyle Figures lookup 2 subtable" nine.onum
EndChar

StartChar: colon
Encoding: 58 58 108
Width: 672
GlyphClass: 1
Flags: W
LayerCount: 2
Fore
SplineSet
224 560 m 1
 336 560 l 1
 336 448 l 1
 224 448 l 1
 224 560 l 1
224 112 m 1
 336 112 l 1
 336 0 l 1
 224 0 l 1
 224 112 l 1
EndSplineSet
Substitution2: "Single Substitution lookup 18 subtable" colon.calt
EndChar

StartChar: semicolon
Encoding: 59 59 109
Width: 672
GlyphClass: 1
Flags: W
LayerCount: 2
Fore
SplineSet
224 560 m 1
 336 560 l 1
 336 448 l 1
 224 448 l 1
 224 560 l 1
224 112 m 1
 336 112 l 1
 336 0 l 1
 224 0 l 1
 224 -112 l 1
 112 -112 l 1
 112 0 l 1
 224 0 l 1
 224 112 l 1
EndSplineSet
Substitution2: "'ss01' Style Set 1 lookup 3 subtable" semicolon.ss01
EndChar

StartChar: less
Encoding: 60 60 110
Width: 672
GlyphClass: 1
Flags: W
LayerCount: 2
Fore
SplineSet
448 784 m 1
 560 784 l 1
 560 672 l 1
 448 672 l 1
 448 560 l 1
 336 560 l 1
 336 448 l 1
 224 448 l 1
 224 336 l 1
 336 336 l 1
 336 224 l 1
 448 224 l 1
 448 112 l 1
 560 112 l 1
 560 0 l 1
 448 0 l 1
 448 112 l 1
 336 112 l 1
 336 224 l 1
 224 224 l 1
 224 336 l 1
 112 336 l 1
 112 448 l 1
 224 448 l 1
 224 560 l 1
 336 560 l 1
 336 672 l 1
 448 672 l 1
 448 784 l 1
EndSplineSet
EndChar

StartChar: equal
Encoding: 61 61 111
Width: 672
GlyphClass: 1
Flags: W
LayerCount: 2
Fore
SplineSet
0 560 m 1
 560 560 l 1
 560 448 l 1
 0 448 l 1
 0 560 l 1
0 336 m 1
 560 336 l 1
 560 224 l 1
 0 224 l 1
 0 336 l 1
EndSplineSet
Substitution2: "Single Substitution lookup 21 subtable" equal
EndChar

StartChar: greater
Encoding: 62 62 112
Width: 672
GlyphClass: 1
Flags: W
LayerCount: 2
Fore
SplineSet
0 784 m 1
 112 784 l 1
 112 672 l 1
 224 672 l 1
 224 560 l 1
 336 560 l 1
 336 448 l 1
 448 448 l 1
 448 336 l 1
 336 336 l 1
 336 224 l 1
 224 224 l 1
 224 112 l 1
 112 112 l 1
 112 0 l 1
 0 0 l 1
 0 112 l 1
 112 112 l 1
 112 224 l 1
 224 224 l 1
 224 336 l 1
 336 336 l 1
 336 448 l 1
 224 448 l 1
 224 560 l 1
 112 560 l 1
 112 672 l 1
 0 672 l 1
 0 784 l 1
EndSplineSet
EndChar

StartChar: question
Encoding: 63 63 113
Width: 672
GlyphClass: 1
Flags: W
LayerCount: 2
Fore
SplineSet
112 784 m 1
 448 784 l 1
 448 672 l 1
 560 672 l 1
 560 448 l 1
 448 448 l 1
 448 336 l 1
 336 336 l 1
 336 224 l 1
 224 224 l 1
 224 336 l 1
 336 336 l 1
 336 448 l 1
 448 448 l 1
 448 672 l 1
 112 672 l 1
 112 560 l 1
 0 560 l 1
 0 672 l 1
 112 672 l 1
 112 784 l 1
224 112 m 1
 336 112 l 1
 336 0 l 1
 224 0 l 1
 224 112 l 1
EndSplineSet
EndChar

StartChar: at
Encoding: 64 64 114
Width: 672
GlyphClass: 1
Flags: W
LayerCount: 2
Fore
SplineSet
112 784 m 1
 448 784 l 1
 448 672 l 1
 560 672 l 1
 560 224 l 1
 224 224 l 1
 224 560 l 1
 336 560 l 1
 336 336 l 1
 448 336 l 1
 448 672 l 1
 112 672 l 1
 112 112 l 1
 560 112 l 1
 560 0 l 1
 112 0 l 1
 112 112 l 1
 0 112 l 1
 0 672 l 1
 112 672 l 1
 112 784 l 1
EndSplineSet
EndChar

StartChar: A
Encoding: 65 65 115
Width: 672
GlyphClass: 1
Flags: W
LayerCount: 2
Fore
SplineSet
112 672 m 1
 112 784 l 1
 448 784 l 1
 448 672 l 1
 560 672 l 1
 560 0 l 1
 448 0 l 1
 448 448 l 1
 112 448 l 1
 112 0 l 1
 0 0 l 1
 0 672 l 1
 112 672 l 1
112 672 m 1
 112 560 l 1
 448 560 l 1
 448 672 l 1
 112 672 l 1
EndSplineSet
EndChar

StartChar: B
Encoding: 66 66 116
Width: 672
GlyphClass: 1
Flags: W
LayerCount: 2
Fore
SplineSet
112 448 m 1
 112 112 l 1
 448 112 l 1
 448 0 l 1
 0 0 l 1
 0 784 l 1
 448 784 l 1
 448 672 l 1
 560 672 l 1
 560 560 l 1
 448 560 l 1
 448 672 l 1
 112 672 l 1
 112 560 l 1
 448 560 l 1
 448 448 l 1
 560 448 l 1
 560 112 l 1
 448 112 l 1
 448 448 l 1
 112 448 l 1
EndSplineSet
EndChar

StartChar: C
Encoding: 67 67 117
Width: 672
GlyphClass: 1
Flags: W
LayerCount: 2
Fore
SplineSet
112 784 m 1
 448 784 l 1
 448 672 l 1
 560 672 l 1
 560 560 l 1
 448 560 l 1
 448 672 l 1
 112 672 l 1
 112 112 l 1
 448 112 l 1
 448 0 l 1
 112 0 l 1
 112 112 l 1
 0 112 l 1
 0 672 l 1
 112 672 l 1
 112 784 l 1
560 112 m 1
 448 112 l 1
 448 224 l 1
 560 224 l 1
 560 112 l 1
EndSplineSet
EndChar

StartChar: D
Encoding: 68 68 118
Width: 672
GlyphClass: 1
Flags: W
LayerCount: 2
Fore
SplineSet
112 672 m 1
 112 112 l 1
 448 112 l 1
 448 0 l 1
 0 0 l 1
 0 784 l 1
 448 784 l 1
 448 672 l 1
 560 672 l 1
 560 112 l 1
 448 112 l 1
 448 672 l 1
 112 672 l 1
EndSplineSet
EndChar

StartChar: E
Encoding: 69 69 119
Width: 672
GlyphClass: 1
Flags: W
LayerCount: 2
Fore
SplineSet
0 784 m 1
 560 784 l 1
 560 672 l 1
 112 672 l 1
 112 448 l 1
 336 448 l 1
 336 336 l 1
 112 336 l 1
 112 112 l 1
 560 112 l 1
 560 0 l 1
 0 0 l 1
 0 784 l 1
EndSplineSet
EndChar

StartChar: F
Encoding: 70 70 120
Width: 672
GlyphClass: 1
Flags: W
LayerCount: 2
Fore
SplineSet
0 784 m 1
 560 784 l 1
 560 672 l 1
 112 672 l 1
 112 448 l 1
 448 448 l 1
 448 336 l 1
 112 336 l 1
 112 0 l 1
 0 0 l 1
 0 784 l 1
EndSplineSet
EndChar

StartChar: G
Encoding: 71 71 121
Width: 672
GlyphClass: 1
Flags: W
LayerCount: 2
Fore
SplineSet
112 784 m 1
 448 784 l 1
 448 672 l 1
 560 672 l 1
 560 560 l 1
 448 560 l 1
 448 672 l 1
 112 672 l 1
 112 112 l 1
 448 112 l 1
 448 0 l 1
 112 0 l 1
 112 112 l 1
 0 112 l 1
 0 672 l 1
 112 672 l 1
 112 784 l 1
560 112 m 1
 448 112 l 1
 448 336 l 1
 336 336 l 1
 336 448 l 1
 560 448 l 1
 560 112 l 1
EndSplineSet
EndChar

StartChar: H
Encoding: 72 72 122
Width: 672
GlyphClass: 1
Flags: W
LayerCount: 2
Fore
SplineSet
0 784 m 1
 112 784 l 1
 112 560 l 1
 448 560 l 1
 448 784 l 1
 560 784 l 1
 560 0 l 1
 448 0 l 1
 448 448 l 1
 112 448 l 1
 112 0 l 1
 0 0 l 1
 0 784 l 1
EndSplineSet
EndChar

StartChar: I
Encoding: 73 73 123
Width: 672
GlyphClass: 1
Flags: W
LayerCount: 2
Fore
SplineSet
112 784 m 1
 448 784 l 1
 448 672 l 1
 336 672 l 1
 336 112 l 1
 448 112 l 1
 448 0 l 1
 112 0 l 1
 112 112 l 1
 224 112 l 1
 224 672 l 1
 112 672 l 1
 112 784 l 1
EndSplineSet
EndChar

StartChar: J
Encoding: 74 74 124
Width: 672
GlyphClass: 1
Flags: W
LayerCount: 2
Fore
SplineSet
224 784 m 1
 560 784 l 1
 560 672 l 1
 448 672 l 1
 448 112 l 1
 336 112 l 1
 336 672 l 1
 224 672 l 1
 224 784 l 1
336 112 m 1
 336 0 l 1
 112 0 l 1
 112 112 l 1
 0 112 l 1
 0 224 l 1
 112 224 l 1
 112 112 l 1
 336 112 l 1
EndSplineSet
EndChar

StartChar: K
Encoding: 75 75 125
Width: 672
GlyphClass: 1
Flags: W
LayerCount: 2
Fore
SplineSet
448 560 m 1
 336 560 l 1
 336 672 l 1
 448 672 l 1
 448 784 l 1
 560 784 l 1
 560 672 l 1
 448 672 l 1
 448 560 l 1
0 784 m 1
 112 784 l 1
 112 560 l 1
 336 560 l 1
 336 448 l 1
 448 448 l 1
 448 336 l 1
 560 336 l 1
 560 0 l 1
 448 0 l 1
 448 336 l 1
 336 336 l 1
 336 448 l 1
 112 448 l 1
 112 0 l 1
 0 0 l 1
 0 784 l 1
EndSplineSet
EndChar

StartChar: L
Encoding: 76 76 126
Width: 672
GlyphClass: 1
Flags: W
LayerCount: 2
Fore
SplineSet
0 784 m 1
 112 784 l 1
 112 112 l 1
 560 112 l 1
 560 0 l 1
 0 0 l 1
 0 784 l 1
EndSplineSet
EndChar

StartChar: M
Encoding: 77 77 127
Width: 672
GlyphClass: 1
Flags: W
LayerCount: 2
Fore
SplineSet
0 784 m 1
 112 784 l 1
 112 672 l 1
 224 672 l 1
 224 560 l 1
 336 560 l 1
 336 672 l 1
 448 672 l 1
 448 784 l 1
 560 784 l 1
 560 0 l 1
 448 0 l 1
 448 560 l 1
 336 560 l 1
 336 448 l 1
 224 448 l 1
 224 560 l 1
 112 560 l 1
 112 0 l 1
 0 0 l 1
 0 784 l 1
EndSplineSet
EndChar

StartChar: N
Encoding: 78 78 128
Width: 672
GlyphClass: 1
Flags: W
LayerCount: 2
Fore
SplineSet
0 784 m 1
 112 784 l 1
 112 672 l 1
 224 672 l 1
 224 560 l 1
 336 560 l 1
 336 448 l 1
 448 448 l 1
 448 784 l 1
 560 784 l 1
 560 0 l 1
 448 0 l 1
 448 336 l 1
 336 336 l 1
 336 448 l 1
 224 448 l 1
 224 560 l 1
 112 560 l 1
 112 0 l 1
 0 0 l 1
 0 784 l 1
EndSplineSet
EndChar

StartChar: O
Encoding: 79 79 129
Width: 672
GlyphClass: 1
Flags: W
LayerCount: 2
Fore
SplineSet
112 672 m 1
 112 784 l 1
 448 784 l 1
 448 672 l 1
 560 672 l 1
 560 112 l 1
 448 112 l 1
 448 672 l 1
 112 672 l 1
 112 112 l 1
 448 112 l 1
 448 0 l 1
 112 0 l 1
 112 112 l 1
 0 112 l 1
 0 672 l 1
 112 672 l 1
EndSplineSet
EndChar

StartChar: P
Encoding: 80 80 130
Width: 672
GlyphClass: 1
Flags: W
LayerCount: 2
Fore
SplineSet
112 672 m 1
 112 448 l 1
 448 448 l 1
 448 336 l 1
 112 336 l 1
 112 0 l 1
 0 0 l 1
 0 784 l 1
 448 784 l 1
 448 672 l 1
 560 672 l 1
 560 448 l 1
 448 448 l 1
 448 672 l 1
 112 672 l 1
EndSplineSet
EndChar

StartChar: Q
Encoding: 81 81 131
Width: 672
GlyphClass: 1
Flags: W
LayerCount: 2
Fore
SplineSet
112 672 m 1
 112 784 l 1
 448 784 l 1
 448 672 l 1
 560 672 l 1
 560 224 l 1
 448 224 l 1
 448 112 l 1
 560 112 l 1
 560 0 l 1
 448 0 l 1
 448 112 l 1
 336 112 l 1
 336 0 l 1
 112 0 l 1
 112 112 l 1
 0 112 l 1
 0 672 l 1
 112 672 l 1
112 672 m 1
 112 112 l 1
 336 112 l 1
 336 224 l 1
 448 224 l 1
 448 672 l 1
 112 672 l 1
EndSplineSet
EndChar

StartChar: R
Encoding: 82 82 132
Width: 672
GlyphClass: 1
Flags: W
LayerCount: 2
Fore
SplineSet
112 672 m 1
 112 448 l 1
 448 448 l 1
 448 336 l 1
 560 336 l 1
 560 0 l 1
 448 0 l 1
 448 336 l 1
 112 336 l 1
 112 0 l 1
 0 0 l 1
 0 784 l 1
 448 784 l 1
 448 672 l 1
 560 672 l 1
 560 448 l 1
 448 448 l 1
 448 672 l 1
 112 672 l 1
EndSplineSet
EndChar

StartChar: S
Encoding: 83 83 133
Width: 672
GlyphClass: 1
Flags: W
LayerCount: 2
Fore
SplineSet
112 784 m 1
 448 784 l 1
 448 672 l 1
 560 672 l 1
 560 560 l 1
 448 560 l 1
 448 672 l 1
 112 672 l 1
 112 448 l 1
 448 448 l 1
 448 336 l 1
 560 336 l 1
 560 112 l 1
 448 112 l 1
 448 336 l 1
 112 336 l 1
 112 448 l 1
 0 448 l 1
 0 672 l 1
 112 672 l 1
 112 784 l 1
448 112 m 1
 448 0 l 1
 112 0 l 1
 112 112 l 1
 0 112 l 1
 0 224 l 1
 112 224 l 1
 112 112 l 1
 448 112 l 1
EndSplineSet
EndChar

StartChar: T
Encoding: 84 84 134
Width: 672
GlyphClass: 1
Flags: W
LayerCount: 2
Fore
SplineSet
0 784 m 1
 560 784 l 1
 560 672 l 1
 336 672 l 1
 336 0 l 1
 224 0 l 1
 224 672 l 1
 0 672 l 1
 0 784 l 1
EndSplineSet
EndChar

StartChar: U
Encoding: 85 85 135
Width: 672
GlyphClass: 1
Flags: W
LayerCount: 2
Fore
SplineSet
560 112 m 1
 448 112 l 1
 448 784 l 1
 560 784 l 1
 560 112 l 1
0 784 m 1
 112 784 l 1
 112 112 l 1
 448 112 l 1
 448 0 l 1
 112 0 l 1
 112 112 l 1
 0 112 l 1
 0 784 l 1
EndSplineSet
EndChar

StartChar: V
Encoding: 86 86 136
Width: 672
GlyphClass: 1
Flags: W
LayerCount: 2
Fore
SplineSet
448 112 m 1
 336 112 l 1
 336 336 l 1
 448 336 l 1
 448 784 l 1
 560 784 l 1
 560 336 l 1
 448 336 l 1
 448 112 l 1
0 784 m 1
 112 784 l 1
 112 336 l 1
 224 336 l 1
 224 112 l 1
 336 112 l 1
 336 0 l 1
 224 0 l 1
 224 112 l 1
 112 112 l 1
 112 336 l 1
 0 336 l 1
 0 784 l 1
EndSplineSet
EndChar

StartChar: W
Encoding: 87 87 137
Width: 672
GlyphClass: 1
Flags: W
LayerCount: 2
Fore
SplineSet
560 224 m 1
 448 224 l 1
 448 784 l 1
 560 784 l 1
 560 224 l 1
0 784 m 1
 112 784 l 1
 112 224 l 1
 224 224 l 1
 224 448 l 1
 336 448 l 1
 336 224 l 1
 448 224 l 1
 448 0 l 1
 336 0 l 1
 336 224 l 1
 224 224 l 1
 224 0 l 1
 112 0 l 1
 112 224 l 1
 0 224 l 1
 0 784 l 1
EndSplineSet
EndChar

StartChar: X
Encoding: 88 88 138
Width: 672
GlyphClass: 1
Flags: W
LayerCount: 2
Fore
SplineSet
448 448 m 1
 336 448 l 1
 336 560 l 1
 448 560 l 1
 448 784 l 1
 560 784 l 1
 560 560 l 1
 448 560 l 1
 448 448 l 1
0 784 m 1
 112 784 l 1
 112 560 l 1
 224 560 l 1
 224 448 l 1
 336 448 l 1
 336 336 l 1
 448 336 l 1
 448 224 l 1
 560 224 l 1
 560 0 l 1
 448 0 l 1
 448 224 l 1
 336 224 l 1
 336 336 l 1
 224 336 l 1
 224 224 l 1
 112 224 l 1
 112 0 l 1
 0 0 l 1
 0 224 l 1
 112 224 l 1
 112 336 l 1
 224 336 l 1
 224 448 l 1
 112 448 l 1
 112 560 l 1
 0 560 l 1
 0 784 l 1
EndSplineSet
EndChar

StartChar: Y
Encoding: 89 89 139
Width: 672
GlyphClass: 1
Flags: W
LayerCount: 2
Fore
SplineSet
448 448 m 1
 336 448 l 1
 336 560 l 1
 448 560 l 1
 448 784 l 1
 560 784 l 1
 560 560 l 1
 448 560 l 1
 448 448 l 1
0 784 m 1
 112 784 l 1
 112 560 l 1
 224 560 l 1
 224 448 l 1
 336 448 l 1
 336 0 l 1
 224 0 l 1
 224 448 l 1
 112 448 l 1
 112 560 l 1
 0 560 l 1
 0 784 l 1
EndSplineSet
EndChar

StartChar: Z
Encoding: 90 90 140
Width: 672
GlyphClass: 1
Flags: W
LayerCount: 2
Fore
SplineSet
0 784 m 1
 560 784 l 1
 560 560 l 1
 448 560 l 1
 448 448 l 1
 336 448 l 1
 336 336 l 1
 224 336 l 1
 224 224 l 1
 112 224 l 1
 112 112 l 1
 560 112 l 1
 560 0 l 1
 0 0 l 1
 0 224 l 1
 112 224 l 1
 112 336 l 1
 224 336 l 1
 224 448 l 1
 336 448 l 1
 336 560 l 1
 448 560 l 1
 448 672 l 1
 0 672 l 1
 0 784 l 1
EndSplineSet
EndChar

StartChar: bracketleft
Encoding: 91 91 141
Width: 672
GlyphClass: 1
Flags: W
LayerCount: 2
Fore
SplineSet
224 896 m 1
 448 896 l 1
 448 784 l 1
 336 784 l 1
 336 0 l 1
 448 0 l 1
 448 -112 l 1
 224 -112 l 1
 224 896 l 1
EndSplineSet
EndChar

StartChar: backslash
Encoding: 92 92 142
Width: 672
GlyphClass: 1
Flags: W
LayerCount: 2
Fore
SplineSet
0 784 m 1
 112 784 l 1
 112 672 l 1
 224 672 l 1
 224 448 l 1
 336 448 l 1
 336 336 l 1
 448 336 l 1
 448 112 l 1
 560 112 l 1
 560 0 l 1
 448 0 l 1
 448 112 l 1
 336 112 l 1
 336 336 l 1
 224 336 l 1
 224 448 l 1
 112 448 l 1
 112 672 l 1
 0 672 l 1
 0 784 l 1
EndSplineSet
EndChar

StartChar: bracketright
Encoding: 93 93 143
Width: 672
GlyphClass: 1
Flags: W
LayerCount: 2
Fore
SplineSet
112 896 m 1
 336 896 l 1
 336 -112 l 1
 112 -112 l 1
 112 0 l 1
 224 0 l 1
 224 784 l 1
 112 784 l 1
 112 896 l 1
EndSplineSet
EndChar

StartChar: asciicircum
Encoding: 94 94 144
Width: 672
GlyphClass: 1
Flags: W
LayerCount: 2
Fore
SplineSet
224 784 m 1
 336 784 l 1
 336 672 l 1
 448 672 l 1
 448 560 l 1
 560 560 l 1
 560 448 l 1
 448 448 l 1
 448 560 l 1
 336 560 l 1
 336 672 l 1
 224 672 l 1
 224 560 l 1
 112 560 l 1
 112 448 l 1
 0 448 l 1
 0 560 l 1
 112 560 l 1
 112 672 l 1
 224 672 l 1
 224 784 l 1
EndSplineSet
EndChar

StartChar: underscore
Encoding: 95 95 145
Width: 672
GlyphClass: 1
Flags: W
LayerCount: 2
Fore
SplineSet
0 0 m 1
 560 0 l 1
 560 -112 l 1
 0 -112 l 1
 0 0 l 1
EndSplineSet
EndChar

StartChar: grave
Encoding: 96 96 146
Width: 672
GlyphClass: 1
Flags: W
LayerCount: 2
Fore
SplineSet
112 784 m 1
 224 784 l 1
 224 672 l 1
 336 672 l 1
 336 560 l 1
 224 560 l 1
 224 672 l 1
 112 672 l 1
 112 784 l 1
EndSplineSet
EndChar

StartChar: a
Encoding: 97 97 147
Width: 672
GlyphClass: 1
Flags: W
LayerCount: 2
Fore
SplineSet
112 224 m 1
 112 336 l 1
 448 336 l 1
 448 448 l 1
 112 448 l 1
 112 560 l 1
 448 560 l 1
 448 448 l 1
 560 448 l 1
 560 0 l 1
 112 0 l 1
 112 112 l 1
 0 112 l 1
 0 224 l 1
 112 224 l 1
112 224 m 1
 112 112 l 1
 448 112 l 1
 448 224 l 1
 112 224 l 1
EndSplineSet
EndChar

StartChar: b
Encoding: 98 98 148
Width: 672
GlyphClass: 1
Flags: W
LayerCount: 2
Fore
SplineSet
224 448 m 1
 224 560 l 1
 448 560 l 1
 448 448 l 1
 560 448 l 1
 560 112 l 1
 448 112 l 1
 448 448 l 1
 224 448 l 1
 224 336 l 1
 112 336 l 1
 112 112 l 1
 448 112 l 1
 448 0 l 1
 0 0 l 1
 0 784 l 1
 112 784 l 1
 112 448 l 1
 224 448 l 1
EndSplineSet
EndChar

StartChar: c
Encoding: 99 99 149
Width: 672
GlyphClass: 1
Flags: W
LayerCount: 2
Fore
SplineSet
112 560 m 1
 448 560 l 1
 448 448 l 1
 560 448 l 1
 560 336 l 1
 448 336 l 1
 448 448 l 1
 112 448 l 1
 112 112 l 1
 448 112 l 1
 448 0 l 1
 112 0 l 1
 112 112 l 1
 0 112 l 1
 0 448 l 1
 112 448 l 1
 112 560 l 1
560 112 m 1
 448 112 l 1
 448 224 l 1
 560 224 l 1
 560 112 l 1
EndSplineSet
EndChar

StartChar: d
Encoding: 100 100 150
Width: 672
GlyphClass: 1
Flags: W
LayerCount: 2
Fore
SplineSet
112 448 m 1
 112 560 l 1
 336 560 l 1
 336 784 l 1
 448 784 l 1
 448 112 l 1
 560 112 l 1
 560 0 l 1
 448 0 l 1
 448 112 l 1
 336 112 l 1
 336 0 l 1
 112 0 l 1
 112 112 l 1
 0 112 l 1
 0 448 l 1
 112 448 l 1
112 448 m 1
 112 112 l 1
 336 112 l 1
 336 448 l 1
 112 448 l 1
EndSplineSet
EndChar

StartChar: e
Encoding: 101 101 151
Width: 672
GlyphClass: 1
Flags: W
LayerCount: 2
Fore
SplineSet
112 448 m 1
 112 560 l 1
 448 560 l 1
 448 448 l 1
 560 448 l 1
 560 224 l 1
 112 224 l 1
 112 112 l 1
 560 112 l 1
 560 0 l 1
 112 0 l 1
 112 112 l 1
 0 112 l 1
 0 448 l 1
 112 448 l 1
112 448 m 1
 112 336 l 1
 448 336 l 1
 448 448 l 1
 112 448 l 1
EndSplineSet
EndChar

StartChar: f
Encoding: 102 102 152
Width: 672
GlyphClass: 1
Flags: W
LayerCount: 2
Fore
SplineSet
224 784 m 1
 448 784 l 1
 448 672 l 1
 560 672 l 1
 560 560 l 1
 448 560 l 1
 448 672 l 1
 224 672 l 1
 224 448 l 1
 448 448 l 1
 448 336 l 1
 224 336 l 1
 224 0 l 1
 112 0 l 1
 112 336 l 1
 0 336 l 1
 0 448 l 1
 112 448 l 1
 112 672 l 1
 224 672 l 1
 224 784 l 1
EndSplineSet
EndChar

StartChar: g
Encoding: 103 103 153
Width: 672
GlyphClass: 1
Flags: W
LayerCount: 2
Fore
SplineSet
112 448 m 1
 112 560 l 1
 560 560 l 1
 560 0 l 1
 448 0 l 1
 448 -112 l 1
 0 -112 l 1
 0 0 l 1
 448 0 l 1
 448 112 l 1
 112 112 l 1
 112 224 l 1
 0 224 l 1
 0 448 l 1
 112 448 l 1
112 448 m 1
 112 224 l 1
 448 224 l 1
 448 448 l 1
 112 448 l 1
EndSplineSet
EndChar

StartChar: h
Encoding: 104 104 154
Width: 672
GlyphClass: 1
Flags: W
LayerCount: 2
Fore
SplineSet
0 784 m 1
 112 784 l 1
 112 448 l 1
 224 448 l 1
 224 560 l 1
 448 560 l 1
 448 448 l 1
 560 448 l 1
 560 0 l 1
 448 0 l 1
 448 448 l 1
 224 448 l 1
 224 336 l 1
 112 336 l 1
 112 0 l 1
 0 0 l 1
 0 784 l 1
EndSplineSet
EndChar

StartChar: i
Encoding: 105 105 155
Width: 672
GlyphClass: 1
Flags: W
LayerCount: 2
Fore
SplineSet
224 784 m 1
 336 784 l 1
 336 672 l 1
 224 672 l 1
 224 784 l 1
112 560 m 1
 336 560 l 1
 336 112 l 1
 448 112 l 1
 448 0 l 1
 112 0 l 1
 112 112 l 1
 224 112 l 1
 224 448 l 1
 112 448 l 1
 112 560 l 1
EndSplineSet
EndChar

StartChar: j
Encoding: 106 106 156
Width: 672
GlyphClass: 1
Flags: W
LayerCount: 2
Fore
SplineSet
336 784 m 1
 448 784 l 1
 448 672 l 1
 336 672 l 1
 336 784 l 1
224 560 m 1
 448 560 l 1
 448 0 l 1
 336 0 l 1
 336 448 l 1
 224 448 l 1
 224 560 l 1
336 0 m 1
 336 -112 l 1
 112 -112 l 1
 112 0 l 1
 0 0 l 1
 0 112 l 1
 112 112 l 1
 112 0 l 1
 336 0 l 1
EndSplineSet
EndChar

StartChar: k
Encoding: 107 107 157
Width: 672
GlyphClass: 1
Flags: W
LayerCount: 2
Fore
SplineSet
0 784 m 1
 112 784 l 1
 112 336 l 1
 224 336 l 1
 224 224 l 1
 336 224 l 1
 336 112 l 1
 560 112 l 1
 560 0 l 1
 336 0 l 1
 336 112 l 1
 224 112 l 1
 224 224 l 1
 112 224 l 1
 112 0 l 1
 0 0 l 1
 0 784 l 1
336 336 m 1
 224 336 l 1
 224 448 l 1
 336 448 l 1
 336 560 l 1
 448 560 l 1
 448 448 l 1
 336 448 l 1
 336 336 l 1
EndSplineSet
EndChar

StartChar: l
Encoding: 108 108 158
Width: 672
GlyphClass: 1
Flags: W
LayerCount: 2
Fore
SplineSet
112 784 m 1
 336 784 l 1
 336 112 l 1
 560 112 l 1
 560 0 l 1
 336 0 l 1
 336 112 l 1
 224 112 l 1
 224 672 l 1
 112 672 l 1
 112 784 l 1
EndSplineSet
Substitution2: "Single Substitution lookup 0 subtable" l.shifted
EndChar

StartChar: m
Encoding: 109 109 159
Width: 672
GlyphClass: 1
Flags: W
LayerCount: 2
Fore
SplineSet
0 560 m 1
 224 560 l 1
 224 448 l 1
 336 448 l 1
 336 560 l 1
 448 560 l 1
 448 448 l 1
 560 448 l 1
 560 0 l 1
 448 0 l 1
 448 448 l 1
 336 448 l 1
 336 0 l 1
 224 0 l 1
 224 448 l 1
 112 448 l 1
 112 0 l 1
 0 0 l 1
 0 560 l 1
EndSplineSet
EndChar

StartChar: n
Encoding: 110 110 160
Width: 672
GlyphClass: 1
Flags: W
LayerCount: 2
Fore
SplineSet
0 560 m 1
 112 560 l 1
 112 448 l 1
 224 448 l 1
 224 560 l 1
 448 560 l 1
 448 448 l 1
 560 448 l 1
 560 0 l 1
 448 0 l 1
 448 448 l 1
 224 448 l 1
 224 336 l 1
 112 336 l 1
 112 0 l 1
 0 0 l 1
 0 560 l 1
EndSplineSet
EndChar

StartChar: o
Encoding: 111 111 161
Width: 672
GlyphClass: 1
Flags: W
LayerCount: 2
Fore
SplineSet
112 448 m 1
 112 560 l 1
 448 560 l 1
 448 448 l 1
 560 448 l 1
 560 112 l 1
 448 112 l 1
 448 448 l 1
 112 448 l 1
 112 112 l 1
 448 112 l 1
 448 0 l 1
 112 0 l 1
 112 112 l 1
 0 112 l 1
 0 448 l 1
 112 448 l 1
EndSplineSet
EndChar

StartChar: p
Encoding: 112 112 162
Width: 672
GlyphClass: 1
Flags: W
LayerCount: 2
Fore
SplineSet
224 448 m 1
 224 560 l 1
 448 560 l 1
 448 448 l 1
 560 448 l 1
 560 224 l 1
 448 224 l 1
 448 448 l 1
 224 448 l 1
 224 336 l 1
 112 336 l 1
 112 224 l 1
 448 224 l 1
 448 112 l 1
 112 112 l 1
 112 -112 l 1
 0 -112 l 1
 0 560 l 1
 112 560 l 1
 112 448 l 1
 224 448 l 1
EndSplineSet
EndChar

StartChar: q
Encoding: 113 113 163
Width: 672
GlyphClass: 1
Flags: W
LayerCount: 2
Fore
SplineSet
112 448 m 1
 112 560 l 1
 448 560 l 1
 448 0 l 1
 560 0 l 1
 560 -112 l 1
 336 -112 l 1
 336 112 l 1
 112 112 l 1
 112 224 l 1
 0 224 l 1
 0 448 l 1
 112 448 l 1
112 448 m 1
 112 224 l 1
 336 224 l 1
 336 448 l 1
 112 448 l 1
EndSplineSet
EndChar

StartChar: r
Encoding: 114 114 164
Width: 672
GlyphClass: 1
Flags: W
LayerCount: 2
Fore
SplineSet
0 560 m 1
 112 560 l 1
 112 448 l 1
 224 448 l 1
 224 560 l 1
 448 560 l 1
 448 448 l 1
 560 448 l 1
 560 336 l 1
 448 336 l 1
 448 448 l 1
 224 448 l 1
 224 336 l 1
 112 336 l 1
 112 0 l 1
 0 0 l 1
 0 560 l 1
EndSplineSet
EndChar

StartChar: s
Encoding: 115 115 165
Width: 672
GlyphClass: 1
Flags: W
LayerCount: 2
Fore
SplineSet
112 560 m 1
 560 560 l 1
 560 448 l 1
 112 448 l 1
 112 336 l 1
 448 336 l 1
 448 224 l 1
 560 224 l 1
 560 112 l 1
 448 112 l 1
 448 0 l 1
 0 0 l 1
 0 112 l 1
 448 112 l 1
 448 224 l 1
 112 224 l 1
 112 336 l 1
 0 336 l 1
 0 448 l 1
 112 448 l 1
 112 560 l 1
EndSplineSet
EndChar

StartChar: t
Encoding: 116 116 166
Width: 672
GlyphClass: 1
Flags: W
LayerCount: 2
Fore
SplineSet
112 784 m 1
 224 784 l 1
 224 560 l 1
 448 560 l 1
 448 448 l 1
 224 448 l 1
 224 112 l 1
 560 112 l 1
 560 0 l 1
 224 0 l 1
 224 112 l 1
 112 112 l 1
 112 448 l 1
 0 448 l 1
 0 560 l 1
 112 560 l 1
 112 784 l 1
EndSplineSet
EndChar

StartChar: u
Encoding: 117 117 167
Width: 672
GlyphClass: 1
Flags: W
LayerCount: 2
Fore
SplineSet
0 560 m 1
 112 560 l 1
 112 112 l 1
 336 112 l 1
 336 560 l 1
 448 560 l 1
 448 112 l 1
 560 112 l 1
 560 0 l 1
 448 0 l 1
 448 112 l 1
 336 112 l 1
 336 0 l 1
 112 0 l 1
 112 112 l 1
 0 112 l 1
 0 560 l 1
EndSplineSet
EndChar

StartChar: v
Encoding: 118 118 168
Width: 672
GlyphClass: 1
Flags: W
LayerCount: 2
Fore
SplineSet
448 112 m 1
 336 112 l 1
 336 224 l 1
 448 224 l 1
 448 560 l 1
 560 560 l 1
 560 224 l 1
 448 224 l 1
 448 112 l 1
0 560 m 1
 112 560 l 1
 112 224 l 1
 224 224 l 1
 224 112 l 1
 336 112 l 1
 336 0 l 1
 224 0 l 1
 224 112 l 1
 112 112 l 1
 112 224 l 1
 0 224 l 1
 0 560 l 1
EndSplineSet
EndChar

StartChar: w
Encoding: 119 119 169
Width: 672
GlyphClass: 1
Flags: W
LayerCount: 2
Fore
SplineSet
560 224 m 1
 448 224 l 1
 448 560 l 1
 560 560 l 1
 560 224 l 1
0 560 m 1
 112 560 l 1
 112 224 l 1
 224 224 l 1
 224 448 l 1
 336 448 l 1
 336 224 l 1
 448 224 l 1
 448 0 l 1
 336 0 l 1
 336 224 l 1
 224 224 l 1
 224 0 l 1
 112 0 l 1
 112 224 l 1
 0 224 l 1
 0 560 l 1
EndSplineSet
EndChar

StartChar: x
Encoding: 120 120 170
Width: 672
GlyphClass: 1
Flags: W
LayerCount: 2
Fore
SplineSet
448 336 m 1
 336 336 l 1
 336 560 l 1
 560 560 l 1
 560 448 l 1
 448 448 l 1
 448 336 l 1
0 560 m 1
 224 560 l 1
 224 336 l 1
 336 336 l 1
 336 224 l 1
 448 224 l 1
 448 112 l 1
 560 112 l 1
 560 0 l 1
 336 0 l 1
 336 224 l 1
 224 224 l 1
 224 0 l 1
 0 0 l 1
 0 112 l 1
 112 112 l 1
 112 224 l 1
 224 224 l 1
 224 336 l 1
 112 336 l 1
 112 448 l 1
 0 448 l 1
 0 560 l 1
EndSplineSet
Substitution2: "Single Substitution lookup 18 subtable" x.calt
EndChar

StartChar: y
Encoding: 121 121 171
Width: 672
GlyphClass: 1
Flags: W
LayerCount: 2
Fore
SplineSet
0 560 m 1
 112 560 l 1
 112 224 l 1
 448 224 l 1
 448 560 l 1
 560 560 l 1
 560 0 l 1
 448 0 l 1
 448 -112 l 1
 0 -112 l 1
 0 0 l 1
 448 0 l 1
 448 112 l 1
 112 112 l 1
 112 224 l 1
 0 224 l 1
 0 560 l 1
EndSplineSet
EndChar

StartChar: z
Encoding: 122 122 172
Width: 672
GlyphClass: 1
Flags: W
LayerCount: 2
Fore
SplineSet
0 560 m 1
 560 560 l 1
 560 448 l 1
 448 448 l 1
 448 336 l 1
 336 336 l 1
 336 224 l 1
 224 224 l 1
 224 112 l 1
 560 112 l 1
 560 0 l 1
 0 0 l 1
 0 112 l 1
 112 112 l 1
 112 224 l 1
 224 224 l 1
 224 336 l 1
 336 336 l 1
 336 448 l 1
 0 448 l 1
 0 560 l 1
EndSplineSet
EndChar

StartChar: braceleft
Encoding: 123 123 173
Width: 672
GlyphClass: 1
Flags: W
LayerCount: 2
Fore
SplineSet
224 896 m 1
 448 896 l 1
 448 784 l 1
 224 784 l 1
 224 560 l 1
 336 560 l 1
 336 448 l 1
 224 448 l 1
 224 336 l 1
 336 336 l 1
 336 224 l 1
 224 224 l 1
 224 0 l 1
 448 0 l 1
 448 -112 l 1
 224 -112 l 1
 224 0 l 1
 112 0 l 1
 112 224 l 1
 224 224 l 1
 224 336 l 1
 0 336 l 1
 0 448 l 1
 224 448 l 1
 224 560 l 1
 112 560 l 1
 112 784 l 1
 224 784 l 1
 224 896 l 1
EndSplineSet
EndChar

StartChar: bar
Encoding: 124 124 174
Width: 672
GlyphClass: 1
Flags: W
LayerCount: 2
Fore
SplineSet
224 896 m 1
 336 896 l 1
 336 -112 l 1
 224 -112 l 1
 224 896 l 1
EndSplineSet
Substitution2: "Single Substitution lookup 21 subtable" bar
EndChar

StartChar: braceright
Encoding: 125 125 175
Width: 672
GlyphClass: 1
Flags: W
LayerCount: 2
Fore
SplineSet
112 896 m 1
 336 896 l 1
 336 784 l 1
 448 784 l 1
 448 560 l 1
 336 560 l 1
 336 448 l 1
 560 448 l 1
 560 336 l 1
 336 336 l 1
 336 224 l 1
 448 224 l 1
 448 0 l 1
 336 0 l 1
 336 -112 l 1
 112 -112 l 1
 112 0 l 1
 336 0 l 1
 336 224 l 1
 224 224 l 1
 224 336 l 1
 336 336 l 1
 336 448 l 1
 224 448 l 1
 224 560 l 1
 336 560 l 1
 336 784 l 1
 112 784 l 1
 112 896 l 1
EndSplineSet
EndChar

StartChar: asciitilde
Encoding: 126 126 176
Width: 672
GlyphClass: 1
Flags: W
LayerCount: 2
Fore
SplineSet
560 336 m 1
 448 336 l 1
 448 560 l 1
 560 560 l 1
 560 336 l 1
112 560 m 1
 224 560 l 1
 224 448 l 1
 336 448 l 1
 336 336 l 1
 448 336 l 1
 448 224 l 1
 336 224 l 1
 336 336 l 1
 224 336 l 1
 224 448 l 1
 112 448 l 1
 112 224 l 1
 0 224 l 1
 0 448 l 1
 112 448 l 1
 112 560 l 1
EndSplineSet
EndChar

StartChar: uniA7F2
Encoding: 42994 42994 177
Width: 672
GlyphClass: 1
Flags: W
LayerCount: 2
Fore
SplineSet
224 784 m 1
 448 784 l 1
 448 672 l 1
 224 672 l 1
 224 448 l 1
 448 448 l 1
 448 336 l 1
 224 336 l 1
 224 448 l 1
 112 448 l 1
 112 672 l 1
 224 672 l 1
 224 784 l 1
EndSplineSet
EndChar

StartChar: uniA7F3
Encoding: 42995 42995 178
Width: 672
GlyphClass: 1
Flags: W
LayerCount: 2
Fore
SplineSet
112 784 m 1
 448 784 l 1
 448 672 l 1
 224 672 l 1
 224 560 l 1
 336 560 l 1
 336 448 l 1
 224 448 l 1
 224 336 l 1
 112 336 l 1
 112 784 l 1
EndSplineSet
EndChar

StartChar: uniA7F4
Encoding: 42996 42996 179
Width: 672
GlyphClass: 1
Flags: W
LayerCount: 2
Fore
SplineSet
112 672 m 1
 112 784 l 1
 336 784 l 1
 336 672 l 1
 448 672 l 1
 448 560 l 1
 336 560 l 1
 336 448 l 1
 448 448 l 1
 448 336 l 1
 336 336 l 1
 336 448 l 1
 224 448 l 1
 224 336 l 1
 112 336 l 1
 112 448 l 1
 0 448 l 1
 0 672 l 1
 112 672 l 1
112 672 m 1
 112 448 l 1
 224 448 l 1
 224 560 l 1
 336 560 l 1
 336 672 l 1
 112 672 l 1
EndSplineSet
EndChar

StartChar: uniA7F9
Encoding: 43001 43001 180
Width: 672
GlyphClass: 1
Flags: W
LayerCount: 2
Fore
SplineSet
112 672 m 1
 112 784 l 1
 224 784 l 1
 224 672 l 1
 336 672 l 1
 336 784 l 1
 448 784 l 1
 448 672 l 1
 560 672 l 1
 560 560 l 1
 336 560 l 1
 336 448 l 1
 560 448 l 1
 560 336 l 1
 336 336 l 1
 336 448 l 1
 224 448 l 1
 224 336 l 1
 112 336 l 1
 112 448 l 1
 0 448 l 1
 0 672 l 1
 112 672 l 1
112 672 m 1
 112 448 l 1
 224 448 l 1
 224 672 l 1
 112 672 l 1
EndSplineSet
EndChar

StartChar: uni400
Encoding: 1024 1024 181
Width: 672
GlyphClass: 1
Flags: W
LayerCount: 2
Fore
SplineSet
0 784 m 1
 560 784 l 1
 560 672 l 1
 112 672 l 1
 112 448 l 1
 336 448 l 1
 336 336 l 1
 112 336 l 1
 112 112 l 1
 560 112 l 1
 560 0 l 1
 0 0 l 1
 0 784 l 1
EndSplineSet
EndChar

StartChar: uni401
Encoding: 1025 1025 182
Width: 672
GlyphClass: 1
Flags: W
LayerCount: 2
Fore
SplineSet
112 1008 m 1
 224 1008 l 1
 224 896 l 1
 112 896 l 1
 112 1008 l 1
336 1008 m 1
 448 1008 l 1
 448 896 l 1
 336 896 l 1
 336 1008 l 1
0 784 m 1
 560 784 l 1
 560 672 l 1
 112 672 l 1
 112 448 l 1
 336 448 l 1
 336 336 l 1
 112 336 l 1
 112 112 l 1
 560 112 l 1
 560 0 l 1
 0 0 l 1
 0 784 l 1
EndSplineSet
EndChar

StartChar: uni402
Encoding: 1026 1026 183
Width: 672
GlyphClass: 1
Flags: W
LayerCount: 2
Fore
SplineSet
0 784 m 1
 448 784 l 1
 448 672 l 1
 224 672 l 1
 224 336 l 1
 336 336 l 1
 336 448 l 1
 448 448 l 1
 448 336 l 1
 560 336 l 1
 560 0 l 1
 448 0 l 1
 448 -112 l 1
 336 -112 l 1
 336 0 l 1
 448 0 l 1
 448 336 l 1
 336 336 l 1
 336 224 l 1
 224 224 l 1
 224 0 l 1
 112 0 l 1
 112 672 l 1
 0 672 l 1
 0 784 l 1
EndSplineSet
EndChar

StartChar: uni403
Encoding: 1027 1027 184
Width: 672
GlyphClass: 1
Flags: W
LayerCount: 2
Fore
SplineSet
336 1120 m 1
 448 1120 l 1
 448 1008 l 1
 336 1008 l 1
 336 896 l 1
 224 896 l 1
 224 1008 l 1
 336 1008 l 1
 336 1120 l 1
0 784 m 1
 560 784 l 1
 560 672 l 1
 112 672 l 1
 112 0 l 1
 0 0 l 1
 0 784 l 1
EndSplineSet
EndChar

StartChar: uni404
Encoding: 1028 1028 185
Width: 672
GlyphClass: 1
Flags: W
LayerCount: 2
Fore
SplineSet
112 784 m 1
 448 784 l 1
 448 672 l 1
 560 672 l 1
 560 560 l 1
 448 560 l 1
 448 672 l 1
 112 672 l 1
 112 448 l 1
 448 448 l 1
 448 336 l 1
 112 336 l 1
 112 112 l 1
 448 112 l 1
 448 0 l 1
 112 0 l 1
 112 112 l 1
 0 112 l 1
 0 672 l 1
 112 672 l 1
 112 784 l 1
560 112 m 1
 448 112 l 1
 448 224 l 1
 560 224 l 1
 560 112 l 1
EndSplineSet
EndChar

StartChar: uni405
Encoding: 1029 1029 186
Width: 672
GlyphClass: 1
Flags: W
LayerCount: 2
Fore
SplineSet
112 784 m 1
 448 784 l 1
 448 672 l 1
 560 672 l 1
 560 560 l 1
 448 560 l 1
 448 672 l 1
 112 672 l 1
 112 448 l 1
 448 448 l 1
 448 336 l 1
 560 336 l 1
 560 112 l 1
 448 112 l 1
 448 336 l 1
 112 336 l 1
 112 448 l 1
 0 448 l 1
 0 672 l 1
 112 672 l 1
 112 784 l 1
448 112 m 1
 448 0 l 1
 112 0 l 1
 112 112 l 1
 0 112 l 1
 0 224 l 1
 112 224 l 1
 112 112 l 1
 448 112 l 1
EndSplineSet
EndChar

StartChar: uni406
Encoding: 1030 1030 187
Width: 672
GlyphClass: 1
Flags: W
LayerCount: 2
Fore
SplineSet
112 784 m 1
 448 784 l 1
 448 672 l 1
 336 672 l 1
 336 112 l 1
 448 112 l 1
 448 0 l 1
 112 0 l 1
 112 112 l 1
 224 112 l 1
 224 672 l 1
 112 672 l 1
 112 784 l 1
EndSplineSet
EndChar

StartChar: uni407
Encoding: 1031 1031 188
Width: 672
GlyphClass: 1
Flags: W
LayerCount: 2
Fore
SplineSet
112 1008 m 1
 224 1008 l 1
 224 896 l 1
 112 896 l 1
 112 1008 l 1
336 1008 m 1
 448 1008 l 1
 448 896 l 1
 336 896 l 1
 336 1008 l 1
112 784 m 1
 448 784 l 1
 448 672 l 1
 336 672 l 1
 336 112 l 1
 448 112 l 1
 448 0 l 1
 112 0 l 1
 112 112 l 1
 224 112 l 1
 224 672 l 1
 112 672 l 1
 112 784 l 1
EndSplineSet
EndChar

StartChar: uni408
Encoding: 1032 1032 189
Width: 672
GlyphClass: 1
Flags: W
LayerCount: 2
Fore
SplineSet
224 784 m 1
 560 784 l 1
 560 672 l 1
 448 672 l 1
 448 112 l 1
 336 112 l 1
 336 672 l 1
 224 672 l 1
 224 784 l 1
336 112 m 1
 336 0 l 1
 112 0 l 1
 112 112 l 1
 0 112 l 1
 0 224 l 1
 112 224 l 1
 112 112 l 1
 336 112 l 1
EndSplineSet
EndChar

StartChar: uni409
Encoding: 1033 1033 190
Width: 672
GlyphClass: 1
Flags: W
LayerCount: 2
Fore
SplineSet
336 336 m 1
 336 112 l 1
 448 112 l 1
 448 0 l 1
 224 0 l 1
 224 672 l 1
 112 672 l 1
 112 0 l 1
 0 0 l 1
 0 672 l 1
 112 672 l 1
 112 784 l 1
 336 784 l 1
 336 448 l 1
 448 448 l 1
 448 336 l 1
 560 336 l 1
 560 112 l 1
 448 112 l 1
 448 336 l 1
 336 336 l 1
EndSplineSet
EndChar

StartChar: uni40A
Encoding: 1034 1034 191
Width: 672
GlyphClass: 1
Flags: W
LayerCount: 2
Fore
SplineSet
336 336 m 1
 336 112 l 1
 448 112 l 1
 448 0 l 1
 224 0 l 1
 224 336 l 1
 112 336 l 1
 112 0 l 1
 0 0 l 1
 0 784 l 1
 112 784 l 1
 112 448 l 1
 224 448 l 1
 224 784 l 1
 336 784 l 1
 336 448 l 1
 448 448 l 1
 448 336 l 1
 560 336 l 1
 560 112 l 1
 448 112 l 1
 448 336 l 1
 336 336 l 1
EndSplineSet
EndChar

StartChar: uni40B
Encoding: 1035 1035 192
Width: 672
GlyphClass: 1
Flags: W
LayerCount: 2
Fore
SplineSet
0 784 m 1
 448 784 l 1
 448 672 l 1
 224 672 l 1
 224 336 l 1
 336 336 l 1
 336 448 l 1
 448 448 l 1
 448 336 l 1
 560 336 l 1
 560 0 l 1
 448 0 l 1
 448 336 l 1
 336 336 l 1
 336 224 l 1
 224 224 l 1
 224 0 l 1
 112 0 l 1
 112 672 l 1
 0 672 l 1
 0 784 l 1
EndSplineSet
EndChar

StartChar: uni40C
Encoding: 1036 1036 193
Width: 672
GlyphClass: 1
Flags: W
LayerCount: 2
Fore
SplineSet
336 1120 m 1
 448 1120 l 1
 448 1008 l 1
 336 1008 l 1
 336 896 l 1
 224 896 l 1
 224 1008 l 1
 336 1008 l 1
 336 1120 l 1
448 560 m 1
 336 560 l 1
 336 672 l 1
 448 672 l 1
 448 784 l 1
 560 784 l 1
 560 672 l 1
 448 672 l 1
 448 560 l 1
0 784 m 1
 112 784 l 1
 112 560 l 1
 336 560 l 1
 336 448 l 1
 448 448 l 1
 448 336 l 1
 560 336 l 1
 560 0 l 1
 448 0 l 1
 448 336 l 1
 336 336 l 1
 336 448 l 1
 112 448 l 1
 112 0 l 1
 0 0 l 1
 0 784 l 1
EndSplineSet
EndChar

StartChar: uni40D
Encoding: 1037 1037 194
Width: 672
GlyphClass: 1
Flags: W
LayerCount: 2
Fore
SplineSet
224 1120 m 1
 336 1120 l 1
 336 1008 l 1
 448 1008 l 1
 448 896 l 1
 336 896 l 1
 336 1008 l 1
 224 1008 l 1
 224 1120 l 1
336 560 m 1
 336 448 l 1
 224 448 l 1
 224 560 l 1
 336 560 l 1
 336 672 l 1
 448 672 l 1
 448 784 l 1
 560 784 l 1
 560 0 l 1
 448 0 l 1
 448 560 l 1
 336 560 l 1
0 784 m 1
 112 784 l 1
 112 448 l 1
 224 448 l 1
 224 336 l 1
 112 336 l 1
 112 0 l 1
 0 0 l 1
 0 784 l 1
EndSplineSet
EndChar

StartChar: uni40E
Encoding: 1038 1038 195
Width: 672
GlyphClass: 1
Flags: W
LayerCount: 2
Fore
SplineSet
448 1008 m 1
 336 1008 l 1
 336 1120 l 1
 448 1120 l 1
 448 1008 l 1
112 1120 m 1
 224 1120 l 1
 224 1008 l 1
 336 1008 l 1
 336 896 l 1
 224 896 l 1
 224 1008 l 1
 112 1008 l 1
 112 1120 l 1
448 336 m 1
 336 336 l 1
 336 560 l 1
 448 560 l 1
 448 784 l 1
 560 784 l 1
 560 560 l 1
 448 560 l 1
 448 336 l 1
0 784 m 1
 112 784 l 1
 112 560 l 1
 224 560 l 1
 224 336 l 1
 336 336 l 1
 336 112 l 1
 224 112 l 1
 224 0 l 1
 112 0 l 1
 112 112 l 1
 224 112 l 1
 224 336 l 1
 112 336 l 1
 112 560 l 1
 0 560 l 1
 0 784 l 1
EndSplineSet
EndChar

StartChar: uni40F
Encoding: 1039 1039 196
Width: 672
GlyphClass: 1
Flags: W
LayerCount: 2
Fore
SplineSet
0 784 m 1
 112 784 l 1
 112 112 l 1
 448 112 l 1
 448 784 l 1
 560 784 l 1
 560 0 l 1
 336 0 l 1
 336 -112 l 1
 224 -112 l 1
 224 0 l 1
 0 0 l 1
 0 784 l 1
EndSplineSet
EndChar

StartChar: uni410
Encoding: 1040 1040 197
Width: 672
GlyphClass: 1
Flags: W
LayerCount: 2
Fore
SplineSet
112 672 m 1
 112 784 l 1
 448 784 l 1
 448 672 l 1
 560 672 l 1
 560 0 l 1
 448 0 l 1
 448 448 l 1
 112 448 l 1
 112 0 l 1
 0 0 l 1
 0 672 l 1
 112 672 l 1
112 672 m 1
 112 560 l 1
 448 560 l 1
 448 672 l 1
 112 672 l 1
EndSplineSet
EndChar

StartChar: uni411
Encoding: 1041 1041 198
Width: 672
GlyphClass: 1
Flags: W
LayerCount: 2
Fore
SplineSet
112 448 m 1
 112 112 l 1
 448 112 l 1
 448 0 l 1
 0 0 l 1
 0 784 l 1
 560 784 l 1
 560 672 l 1
 112 672 l 1
 112 560 l 1
 448 560 l 1
 448 448 l 1
 560 448 l 1
 560 112 l 1
 448 112 l 1
 448 448 l 1
 112 448 l 1
EndSplineSet
EndChar

StartChar: uni412
Encoding: 1042 1042 199
Width: 672
GlyphClass: 1
Flags: W
LayerCount: 2
Fore
SplineSet
112 448 m 1
 112 112 l 1
 448 112 l 1
 448 0 l 1
 0 0 l 1
 0 784 l 1
 448 784 l 1
 448 672 l 1
 560 672 l 1
 560 560 l 1
 448 560 l 1
 448 672 l 1
 112 672 l 1
 112 560 l 1
 448 560 l 1
 448 448 l 1
 560 448 l 1
 560 112 l 1
 448 112 l 1
 448 448 l 1
 112 448 l 1
EndSplineSet
EndChar

StartChar: uni413
Encoding: 1043 1043 200
Width: 672
GlyphClass: 1
Flags: W
LayerCount: 2
Fore
SplineSet
0 784 m 1
 560 784 l 1
 560 672 l 1
 112 672 l 1
 112 0 l 1
 0 0 l 1
 0 784 l 1
EndSplineSet
EndChar

StartChar: uni414
Encoding: 1044 1044 201
Width: 672
GlyphClass: 1
Flags: W
LayerCount: 2
Fore
SplineSet
224 784 m 1
 560 784 l 1
 560 -112 l 1
 448 -112 l 1
 448 0 l 1
 112 0 l 1
 112 -112 l 1
 0 -112 l 1
 0 224 l 1
 112 224 l 1
 112 560 l 1
 224 560 l 1
 224 784 l 1
336 672 m 1
 336 560 l 1
 224 560 l 1
 224 224 l 1
 112 224 l 1
 112 112 l 1
 448 112 l 1
 448 672 l 1
 336 672 l 1
EndSplineSet
EndChar

StartChar: uni415
Encoding: 1045 1045 202
Width: 672
GlyphClass: 1
Flags: W
LayerCount: 2
Fore
SplineSet
0 784 m 1
 560 784 l 1
 560 672 l 1
 112 672 l 1
 112 448 l 1
 336 448 l 1
 336 336 l 1
 112 336 l 1
 112 112 l 1
 560 112 l 1
 560 0 l 1
 0 0 l 1
 0 784 l 1
EndSplineSet
EndChar

StartChar: uni416
Encoding: 1046 1046 203
Width: 672
GlyphClass: 1
Flags: W
LayerCount: 2
Fore
SplineSet
560 448 m 1
 448 448 l 1
 448 784 l 1
 560 784 l 1
 560 448 l 1
0 784 m 1
 112 784 l 1
 112 448 l 1
 224 448 l 1
 224 784 l 1
 336 784 l 1
 336 448 l 1
 448 448 l 1
 448 336 l 1
 560 336 l 1
 560 0 l 1
 448 0 l 1
 448 336 l 1
 336 336 l 1
 336 0 l 1
 224 0 l 1
 224 336 l 1
 112 336 l 1
 112 0 l 1
 0 0 l 1
 0 336 l 1
 112 336 l 1
 112 448 l 1
 0 448 l 1
 0 784 l 1
EndSplineSet
EndChar

StartChar: uni417
Encoding: 1047 1047 204
Width: 672
GlyphClass: 1
Flags: W
LayerCount: 2
Fore
SplineSet
112 784 m 1
 448 784 l 1
 448 672 l 1
 560 672 l 1
 560 448 l 1
 448 448 l 1
 448 336 l 1
 560 336 l 1
 560 112 l 1
 448 112 l 1
 448 336 l 1
 224 336 l 1
 224 448 l 1
 448 448 l 1
 448 672 l 1
 112 672 l 1
 112 560 l 1
 0 560 l 1
 0 672 l 1
 112 672 l 1
 112 784 l 1
448 112 m 1
 448 0 l 1
 112 0 l 1
 112 112 l 1
 0 112 l 1
 0 224 l 1
 112 224 l 1
 112 112 l 1
 448 112 l 1
EndSplineSet
EndChar

StartChar: uni418
Encoding: 1048 1048 205
Width: 672
GlyphClass: 1
Flags: W
LayerCount: 2
Fore
SplineSet
336 560 m 1
 336 448 l 1
 224 448 l 1
 224 560 l 1
 336 560 l 1
 336 672 l 1
 448 672 l 1
 448 784 l 1
 560 784 l 1
 560 0 l 1
 448 0 l 1
 448 560 l 1
 336 560 l 1
0 784 m 1
 112 784 l 1
 112 448 l 1
 224 448 l 1
 224 336 l 1
 112 336 l 1
 112 0 l 1
 0 0 l 1
 0 784 l 1
EndSplineSet
EndChar

StartChar: uni419
Encoding: 1049 1049 206
Width: 672
GlyphClass: 1
Flags: W
LayerCount: 2
Fore
SplineSet
448 1008 m 1
 336 1008 l 1
 336 1120 l 1
 448 1120 l 1
 448 1008 l 1
112 1120 m 1
 224 1120 l 1
 224 1008 l 1
 336 1008 l 1
 336 896 l 1
 224 896 l 1
 224 1008 l 1
 112 1008 l 1
 112 1120 l 1
336 560 m 1
 336 448 l 1
 224 448 l 1
 224 560 l 1
 336 560 l 1
 336 672 l 1
 448 672 l 1
 448 784 l 1
 560 784 l 1
 560 0 l 1
 448 0 l 1
 448 560 l 1
 336 560 l 1
0 784 m 1
 112 784 l 1
 112 448 l 1
 224 448 l 1
 224 336 l 1
 112 336 l 1
 112 0 l 1
 0 0 l 1
 0 784 l 1
EndSplineSet
EndChar

StartChar: uni41A
Encoding: 1050 1050 207
Width: 672
GlyphClass: 1
Flags: W
LayerCount: 2
Fore
SplineSet
448 560 m 1
 336 560 l 1
 336 672 l 1
 448 672 l 1
 448 784 l 1
 560 784 l 1
 560 672 l 1
 448 672 l 1
 448 560 l 1
0 784 m 1
 112 784 l 1
 112 560 l 1
 336 560 l 1
 336 448 l 1
 448 448 l 1
 448 336 l 1
 560 336 l 1
 560 0 l 1
 448 0 l 1
 448 336 l 1
 336 336 l 1
 336 448 l 1
 112 448 l 1
 112 0 l 1
 0 0 l 1
 0 784 l 1
EndSplineSet
EndChar

StartChar: uni41B
Encoding: 1051 1051 208
Width: 672
GlyphClass: 1
Flags: W
LayerCount: 2
Fore
SplineSet
224 784 m 1
 560 784 l 1
 560 0 l 1
 448 0 l 1
 448 672 l 1
 336 672 l 1
 336 560 l 1
 224 560 l 1
 224 224 l 1
 112 224 l 1
 112 0 l 1
 0 0 l 1
 0 224 l 1
 112 224 l 1
 112 560 l 1
 224 560 l 1
 224 784 l 1
EndSplineSet
EndChar

StartChar: uni41C
Encoding: 1052 1052 209
Width: 672
GlyphClass: 1
Flags: W
LayerCount: 2
Fore
SplineSet
0 784 m 1
 112 784 l 1
 112 672 l 1
 224 672 l 1
 224 560 l 1
 336 560 l 1
 336 672 l 1
 448 672 l 1
 448 784 l 1
 560 784 l 1
 560 0 l 1
 448 0 l 1
 448 560 l 1
 336 560 l 1
 336 448 l 1
 224 448 l 1
 224 560 l 1
 112 560 l 1
 112 0 l 1
 0 0 l 1
 0 784 l 1
EndSplineSet
EndChar

StartChar: uni41D
Encoding: 1053 1053 210
Width: 672
GlyphClass: 1
Flags: W
LayerCount: 2
Fore
SplineSet
0 784 m 1
 112 784 l 1
 112 560 l 1
 448 560 l 1
 448 784 l 1
 560 784 l 1
 560 0 l 1
 448 0 l 1
 448 448 l 1
 112 448 l 1
 112 0 l 1
 0 0 l 1
 0 784 l 1
EndSplineSet
EndChar

StartChar: uni41E
Encoding: 1054 1054 211
Width: 672
GlyphClass: 1
Flags: W
LayerCount: 2
Fore
SplineSet
112 672 m 1
 112 784 l 1
 448 784 l 1
 448 672 l 1
 560 672 l 1
 560 112 l 1
 448 112 l 1
 448 672 l 1
 112 672 l 1
 112 112 l 1
 448 112 l 1
 448 0 l 1
 112 0 l 1
 112 112 l 1
 0 112 l 1
 0 672 l 1
 112 672 l 1
EndSplineSet
EndChar

StartChar: uni41F
Encoding: 1055 1055 212
Width: 672
GlyphClass: 1
Flags: W
LayerCount: 2
Fore
SplineSet
0 784 m 1
 560 784 l 1
 560 0 l 1
 448 0 l 1
 448 672 l 1
 112 672 l 1
 112 0 l 1
 0 0 l 1
 0 784 l 1
EndSplineSet
EndChar

StartChar: uni420
Encoding: 1056 1056 213
Width: 672
GlyphClass: 1
Flags: W
LayerCount: 2
Fore
SplineSet
112 672 m 1
 112 448 l 1
 448 448 l 1
 448 336 l 1
 112 336 l 1
 112 0 l 1
 0 0 l 1
 0 784 l 1
 448 784 l 1
 448 672 l 1
 560 672 l 1
 560 448 l 1
 448 448 l 1
 448 672 l 1
 112 672 l 1
EndSplineSet
EndChar

StartChar: uni421
Encoding: 1057 1057 214
Width: 672
GlyphClass: 1
Flags: W
LayerCount: 2
Fore
SplineSet
112 784 m 1
 448 784 l 1
 448 672 l 1
 560 672 l 1
 560 560 l 1
 448 560 l 1
 448 672 l 1
 112 672 l 1
 112 112 l 1
 448 112 l 1
 448 0 l 1
 112 0 l 1
 112 112 l 1
 0 112 l 1
 0 672 l 1
 112 672 l 1
 112 784 l 1
560 112 m 1
 448 112 l 1
 448 224 l 1
 560 224 l 1
 560 112 l 1
EndSplineSet
EndChar

StartChar: uni422
Encoding: 1058 1058 215
Width: 672
GlyphClass: 1
Flags: W
LayerCount: 2
Fore
SplineSet
0 784 m 1
 560 784 l 1
 560 672 l 1
 336 672 l 1
 336 0 l 1
 224 0 l 1
 224 672 l 1
 0 672 l 1
 0 784 l 1
EndSplineSet
EndChar

StartChar: uni423
Encoding: 1059 1059 216
Width: 672
GlyphClass: 1
Flags: W
LayerCount: 2
Fore
SplineSet
448 336 m 1
 336 336 l 1
 336 560 l 1
 448 560 l 1
 448 784 l 1
 560 784 l 1
 560 560 l 1
 448 560 l 1
 448 336 l 1
0 784 m 1
 112 784 l 1
 112 560 l 1
 224 560 l 1
 224 336 l 1
 336 336 l 1
 336 112 l 1
 224 112 l 1
 224 0 l 1
 112 0 l 1
 112 112 l 1
 224 112 l 1
 224 336 l 1
 112 336 l 1
 112 560 l 1
 0 560 l 1
 0 784 l 1
EndSplineSet
EndChar

StartChar: uni424
Encoding: 1060 1060 217
Width: 672
GlyphClass: 1
Flags: W
LayerCount: 2
Fore
SplineSet
112 560 m 1
 112 672 l 1
 224 672 l 1
 224 784 l 1
 336 784 l 1
 336 672 l 1
 448 672 l 1
 448 560 l 1
 560 560 l 1
 560 224 l 1
 448 224 l 1
 448 560 l 1
 336 560 l 1
 336 224 l 1
 448 224 l 1
 448 112 l 1
 336 112 l 1
 336 0 l 1
 224 0 l 1
 224 112 l 1
 112 112 l 1
 112 224 l 1
 0 224 l 1
 0 560 l 1
 112 560 l 1
112 560 m 1
 112 224 l 1
 224 224 l 1
 224 560 l 1
 112 560 l 1
EndSplineSet
EndChar

StartChar: uni425
Encoding: 1061 1061 218
Width: 672
GlyphClass: 1
Flags: W
LayerCount: 2
Fore
SplineSet
448 448 m 1
 336 448 l 1
 336 560 l 1
 448 560 l 1
 448 784 l 1
 560 784 l 1
 560 560 l 1
 448 560 l 1
 448 448 l 1
0 784 m 1
 112 784 l 1
 112 560 l 1
 224 560 l 1
 224 448 l 1
 336 448 l 1
 336 336 l 1
 448 336 l 1
 448 224 l 1
 560 224 l 1
 560 0 l 1
 448 0 l 1
 448 224 l 1
 336 224 l 1
 336 336 l 1
 224 336 l 1
 224 224 l 1
 112 224 l 1
 112 0 l 1
 0 0 l 1
 0 224 l 1
 112 224 l 1
 112 336 l 1
 224 336 l 1
 224 448 l 1
 112 448 l 1
 112 560 l 1
 0 560 l 1
 0 784 l 1
EndSplineSet
EndChar

StartChar: uni426
Encoding: 1062 1062 219
Width: 672
GlyphClass: 1
Flags: W
LayerCount: 2
Fore
SplineSet
0 784 m 1
 112 784 l 1
 112 112 l 1
 336 112 l 1
 336 784 l 1
 448 784 l 1
 448 112 l 1
 560 112 l 1
 560 -112 l 1
 448 -112 l 1
 448 0 l 1
 0 0 l 1
 0 784 l 1
EndSplineSet
EndChar

StartChar: uni427
Encoding: 1063 1063 220
Width: 672
GlyphClass: 1
Flags: W
LayerCount: 2
Fore
SplineSet
0 784 m 1
 112 784 l 1
 112 336 l 1
 448 336 l 1
 448 784 l 1
 560 784 l 1
 560 0 l 1
 448 0 l 1
 448 224 l 1
 112 224 l 1
 112 336 l 1
 0 336 l 1
 0 784 l 1
EndSplineSet
EndChar

StartChar: uni428
Encoding: 1064 1064 221
Width: 672
GlyphClass: 1
Flags: W
LayerCount: 2
Fore
SplineSet
0 784 m 1
 112 784 l 1
 112 112 l 1
 224 112 l 1
 224 784 l 1
 336 784 l 1
 336 112 l 1
 448 112 l 1
 448 784 l 1
 560 784 l 1
 560 0 l 1
 0 0 l 1
 0 784 l 1
EndSplineSet
EndChar

StartChar: uni429
Encoding: 1065 1065 222
Width: 672
GlyphClass: 1
Flags: W
LayerCount: 2
Fore
SplineSet
0 784 m 1
 112 784 l 1
 112 112 l 1
 224 112 l 1
 224 784 l 1
 336 784 l 1
 336 112 l 1
 448 112 l 1
 448 784 l 1
 560 784 l 1
 560 -112 l 1
 448 -112 l 1
 448 0 l 1
 0 0 l 1
 0 784 l 1
EndSplineSet
EndChar

StartChar: uni42A
Encoding: 1066 1066 223
Width: 672
GlyphClass: 1
Flags: W
LayerCount: 2
Fore
SplineSet
224 336 m 1
 224 112 l 1
 448 112 l 1
 448 0 l 1
 112 0 l 1
 112 672 l 1
 0 672 l 1
 0 784 l 1
 224 784 l 1
 224 448 l 1
 448 448 l 1
 448 336 l 1
 560 336 l 1
 560 112 l 1
 448 112 l 1
 448 336 l 1
 224 336 l 1
EndSplineSet
EndChar

StartChar: uni42B
Encoding: 1067 1067 224
Width: 672
GlyphClass: 1
Flags: W
LayerCount: 2
Fore
SplineSet
0 784 m 1
 112 784 l 1
 112 448 l 1
 336 448 l 1
 336 336 l 1
 448 336 l 1
 448 784 l 1
 560 784 l 1
 560 0 l 1
 448 0 l 1
 448 112 l 1
 336 112 l 1
 336 0 l 1
 0 0 l 1
 0 784 l 1
112 336 m 1
 112 112 l 1
 336 112 l 1
 336 336 l 1
 112 336 l 1
EndSplineSet
EndChar

StartChar: uni42C
Encoding: 1068 1068 225
Width: 672
GlyphClass: 1
Flags: W
LayerCount: 2
Fore
SplineSet
112 336 m 1
 112 112 l 1
 448 112 l 1
 448 0 l 1
 0 0 l 1
 0 784 l 1
 112 784 l 1
 112 448 l 1
 448 448 l 1
 448 336 l 1
 560 336 l 1
 560 112 l 1
 448 112 l 1
 448 336 l 1
 112 336 l 1
EndSplineSet
EndChar

StartChar: uni42D
Encoding: 1069 1069 226
Width: 672
GlyphClass: 1
Flags: W
LayerCount: 2
Fore
SplineSet
112 784 m 1
 448 784 l 1
 448 672 l 1
 560 672 l 1
 560 112 l 1
 448 112 l 1
 448 336 l 1
 112 336 l 1
 112 448 l 1
 448 448 l 1
 448 672 l 1
 112 672 l 1
 112 560 l 1
 0 560 l 1
 0 672 l 1
 112 672 l 1
 112 784 l 1
448 112 m 1
 448 0 l 1
 112 0 l 1
 112 112 l 1
 0 112 l 1
 0 224 l 1
 112 224 l 1
 112 112 l 1
 448 112 l 1
EndSplineSet
EndChar

StartChar: uni42E
Encoding: 1070 1070 227
Width: 672
GlyphClass: 1
Flags: W
LayerCount: 2
Fore
SplineSet
336 672 m 1
 336 784 l 1
 448 784 l 1
 448 672 l 1
 560 672 l 1
 560 112 l 1
 448 112 l 1
 448 672 l 1
 336 672 l 1
 336 112 l 1
 448 112 l 1
 448 0 l 1
 336 0 l 1
 336 112 l 1
 224 112 l 1
 224 336 l 1
 112 336 l 1
 112 0 l 1
 0 0 l 1
 0 784 l 1
 112 784 l 1
 112 448 l 1
 224 448 l 1
 224 672 l 1
 336 672 l 1
EndSplineSet
EndChar

StartChar: uni42F
Encoding: 1071 1071 228
Width: 672
GlyphClass: 1
Flags: W
LayerCount: 2
Fore
SplineSet
112 672 m 1
 112 784 l 1
 560 784 l 1
 560 0 l 1
 448 0 l 1
 448 336 l 1
 112 336 l 1
 112 0 l 1
 0 0 l 1
 0 336 l 1
 112 336 l 1
 112 448 l 1
 0 448 l 1
 0 672 l 1
 112 672 l 1
112 672 m 1
 112 448 l 1
 448 448 l 1
 448 672 l 1
 112 672 l 1
EndSplineSet
EndChar

StartChar: uni430
Encoding: 1072 1072 229
Width: 672
GlyphClass: 1
Flags: W
LayerCount: 2
Fore
SplineSet
112 224 m 1
 112 336 l 1
 448 336 l 1
 448 448 l 1
 112 448 l 1
 112 560 l 1
 448 560 l 1
 448 448 l 1
 560 448 l 1
 560 0 l 1
 112 0 l 1
 112 112 l 1
 0 112 l 1
 0 224 l 1
 112 224 l 1
112 224 m 1
 112 112 l 1
 448 112 l 1
 448 224 l 1
 112 224 l 1
EndSplineSet
EndChar

StartChar: uni431
Encoding: 1073 1073 230
Width: 672
GlyphClass: 1
Flags: W
LayerCount: 2
Fore
SplineSet
224 448 m 1
 224 560 l 1
 448 560 l 1
 448 448 l 1
 560 448 l 1
 560 112 l 1
 448 112 l 1
 448 448 l 1
 224 448 l 1
 224 336 l 1
 112 336 l 1
 112 112 l 1
 448 112 l 1
 448 0 l 1
 112 0 l 1
 112 112 l 1
 0 112 l 1
 0 672 l 1
 112 672 l 1
 112 784 l 1
 448 784 l 1
 448 672 l 1
 112 672 l 1
 112 448 l 1
 224 448 l 1
EndSplineSet
EndChar

StartChar: uni432
Encoding: 1074 1074 231
Width: 672
GlyphClass: 1
Flags: W
LayerCount: 2
Fore
SplineSet
224 224 m 1
 224 112 l 1
 448 112 l 1
 448 0 l 1
 112 0 l 1
 112 560 l 1
 448 560 l 1
 448 448 l 1
 560 448 l 1
 560 336 l 1
 448 336 l 1
 448 448 l 1
 224 448 l 1
 224 336 l 1
 448 336 l 1
 448 224 l 1
 560 224 l 1
 560 112 l 1
 448 112 l 1
 448 224 l 1
 224 224 l 1
EndSplineSet
EndChar

StartChar: uni433
Encoding: 1075 1075 232
Width: 672
GlyphClass: 1
Flags: W
LayerCount: 2
Fore
SplineSet
112 560 m 1
 560 560 l 1
 560 448 l 1
 224 448 l 1
 224 0 l 1
 112 0 l 1
 112 560 l 1
EndSplineSet
EndChar

StartChar: uni434
Encoding: 1076 1076 233
Width: 672
GlyphClass: 1
Flags: W
LayerCount: 2
Fore
SplineSet
112 560 m 1
 560 560 l 1
 560 -112 l 1
 448 -112 l 1
 448 0 l 1
 112 0 l 1
 112 -112 l 1
 0 -112 l 1
 0 224 l 1
 112 224 l 1
 112 560 l 1
224 448 m 1
 224 224 l 1
 112 224 l 1
 112 112 l 1
 448 112 l 1
 448 448 l 1
 224 448 l 1
EndSplineSet
EndChar

StartChar: uni435
Encoding: 1077 1077 234
Width: 672
GlyphClass: 1
Flags: W
LayerCount: 2
Fore
SplineSet
112 448 m 1
 112 560 l 1
 448 560 l 1
 448 448 l 1
 560 448 l 1
 560 224 l 1
 112 224 l 1
 112 112 l 1
 560 112 l 1
 560 0 l 1
 112 0 l 1
 112 112 l 1
 0 112 l 1
 0 448 l 1
 112 448 l 1
112 448 m 1
 112 336 l 1
 448 336 l 1
 448 448 l 1
 112 448 l 1
EndSplineSet
EndChar

StartChar: uni436
Encoding: 1078 1078 235
Width: 672
GlyphClass: 1
Flags: W
LayerCount: 2
Fore
SplineSet
560 336 m 1
 448 336 l 1
 448 560 l 1
 560 560 l 1
 560 336 l 1
0 560 m 1
 112 560 l 1
 112 336 l 1
 224 336 l 1
 224 560 l 1
 336 560 l 1
 336 336 l 1
 448 336 l 1
 448 224 l 1
 560 224 l 1
 560 0 l 1
 448 0 l 1
 448 224 l 1
 336 224 l 1
 336 0 l 1
 224 0 l 1
 224 224 l 1
 112 224 l 1
 112 0 l 1
 0 0 l 1
 0 224 l 1
 112 224 l 1
 112 336 l 1
 0 336 l 1
 0 560 l 1
EndSplineSet
EndChar

StartChar: uni437
Encoding: 1079 1079 236
Width: 672
GlyphClass: 1
Flags: W
LayerCount: 2
Fore
SplineSet
112 560 m 1
 448 560 l 1
 448 448 l 1
 560 448 l 1
 560 336 l 1
 448 336 l 1
 448 224 l 1
 560 224 l 1
 560 112 l 1
 448 112 l 1
 448 224 l 1
 224 224 l 1
 224 336 l 1
 448 336 l 1
 448 448 l 1
 112 448 l 1
 112 336 l 1
 0 336 l 1
 0 448 l 1
 112 448 l 1
 112 560 l 1
448 112 m 1
 448 0 l 1
 112 0 l 1
 112 112 l 1
 0 112 l 1
 0 224 l 1
 112 224 l 1
 112 112 l 1
 448 112 l 1
EndSplineSet
EndChar

StartChar: uni438
Encoding: 1080 1080 237
Width: 672
GlyphClass: 1
Flags: W
LayerCount: 2
Fore
SplineSet
336 336 m 1
 336 224 l 1
 224 224 l 1
 224 336 l 1
 336 336 l 1
 336 448 l 1
 448 448 l 1
 448 560 l 1
 560 560 l 1
 560 0 l 1
 448 0 l 1
 448 336 l 1
 336 336 l 1
0 560 m 1
 112 560 l 1
 112 224 l 1
 224 224 l 1
 224 112 l 1
 112 112 l 1
 112 0 l 1
 0 0 l 1
 0 560 l 1
EndSplineSet
EndChar

StartChar: uni439
Encoding: 1081 1081 238
Width: 672
GlyphClass: 1
Flags: W
LayerCount: 2
Fore
SplineSet
448 784 m 1
 336 784 l 1
 336 896 l 1
 448 896 l 1
 448 784 l 1
112 896 m 1
 224 896 l 1
 224 784 l 1
 336 784 l 1
 336 672 l 1
 224 672 l 1
 224 784 l 1
 112 784 l 1
 112 896 l 1
336 336 m 1
 336 224 l 1
 224 224 l 1
 224 336 l 1
 336 336 l 1
 336 448 l 1
 448 448 l 1
 448 560 l 1
 560 560 l 1
 560 0 l 1
 448 0 l 1
 448 336 l 1
 336 336 l 1
0 560 m 1
 112 560 l 1
 112 224 l 1
 224 224 l 1
 224 112 l 1
 112 112 l 1
 112 0 l 1
 0 0 l 1
 0 560 l 1
EndSplineSet
EndChar

StartChar: uni43A
Encoding: 1082 1082 239
Width: 672
GlyphClass: 1
Flags: W
LayerCount: 2
Fore
SplineSet
448 336 m 1
 336 336 l 1
 336 448 l 1
 448 448 l 1
 448 560 l 1
 560 560 l 1
 560 448 l 1
 448 448 l 1
 448 336 l 1
0 560 m 1
 112 560 l 1
 112 336 l 1
 336 336 l 1
 336 224 l 1
 448 224 l 1
 448 112 l 1
 560 112 l 1
 560 0 l 1
 448 0 l 1
 448 112 l 1
 336 112 l 1
 336 224 l 1
 112 224 l 1
 112 0 l 1
 0 0 l 1
 0 560 l 1
EndSplineSet
EndChar

StartChar: uni43B
Encoding: 1083 1083 240
Width: 672
GlyphClass: 1
Flags: W
LayerCount: 2
Fore
SplineSet
112 560 m 1
 560 560 l 1
 560 0 l 1
 448 0 l 1
 448 448 l 1
 224 448 l 1
 224 224 l 1
 112 224 l 1
 112 0 l 1
 0 0 l 1
 0 224 l 1
 112 224 l 1
 112 560 l 1
EndSplineSet
EndChar

StartChar: uni43C
Encoding: 1084 1084 241
Width: 672
GlyphClass: 1
Flags: W
LayerCount: 2
Fore
SplineSet
0 560 m 1
 112 560 l 1
 112 448 l 1
 224 448 l 1
 224 336 l 1
 336 336 l 1
 336 448 l 1
 448 448 l 1
 448 560 l 1
 560 560 l 1
 560 0 l 1
 448 0 l 1
 448 336 l 1
 336 336 l 1
 336 224 l 1
 224 224 l 1
 224 336 l 1
 112 336 l 1
 112 0 l 1
 0 0 l 1
 0 560 l 1
EndSplineSet
EndChar

StartChar: uni43D
Encoding: 1085 1085 242
Width: 672
GlyphClass: 1
Flags: W
LayerCount: 2
Fore
SplineSet
0 560 m 1
 112 560 l 1
 112 336 l 1
 448 336 l 1
 448 560 l 1
 560 560 l 1
 560 0 l 1
 448 0 l 1
 448 224 l 1
 112 224 l 1
 112 0 l 1
 0 0 l 1
 0 560 l 1
EndSplineSet
EndChar

StartChar: uni43E
Encoding: 1086 1086 243
Width: 672
GlyphClass: 1
Flags: W
LayerCount: 2
Fore
SplineSet
112 448 m 1
 112 560 l 1
 448 560 l 1
 448 448 l 1
 560 448 l 1
 560 112 l 1
 448 112 l 1
 448 448 l 1
 112 448 l 1
 112 112 l 1
 448 112 l 1
 448 0 l 1
 112 0 l 1
 112 112 l 1
 0 112 l 1
 0 448 l 1
 112 448 l 1
EndSplineSet
EndChar

StartChar: uni43F
Encoding: 1087 1087 244
Width: 672
GlyphClass: 1
Flags: W
LayerCount: 2
Fore
SplineSet
0 560 m 1
 560 560 l 1
 560 0 l 1
 448 0 l 1
 448 448 l 1
 112 448 l 1
 112 0 l 1
 0 0 l 1
 0 560 l 1
EndSplineSet
EndChar

StartChar: uni440
Encoding: 1088 1088 245
Width: 672
GlyphClass: 1
Flags: W
LayerCount: 2
Fore
SplineSet
224 448 m 1
 224 560 l 1
 448 560 l 1
 448 448 l 1
 560 448 l 1
 560 224 l 1
 448 224 l 1
 448 448 l 1
 224 448 l 1
 224 336 l 1
 112 336 l 1
 112 224 l 1
 448 224 l 1
 448 112 l 1
 112 112 l 1
 112 -112 l 1
 0 -112 l 1
 0 560 l 1
 112 560 l 1
 112 448 l 1
 224 448 l 1
EndSplineSet
EndChar

StartChar: uni441
Encoding: 1089 1089 246
Width: 672
GlyphClass: 1
Flags: W
LayerCount: 2
Fore
SplineSet
112 560 m 1
 448 560 l 1
 448 448 l 1
 560 448 l 1
 560 336 l 1
 448 336 l 1
 448 448 l 1
 112 448 l 1
 112 112 l 1
 448 112 l 1
 448 0 l 1
 112 0 l 1
 112 112 l 1
 0 112 l 1
 0 448 l 1
 112 448 l 1
 112 560 l 1
560 112 m 1
 448 112 l 1
 448 224 l 1
 560 224 l 1
 560 112 l 1
EndSplineSet
EndChar

StartChar: uni442
Encoding: 1090 1090 247
Width: 672
GlyphClass: 1
Flags: W
LayerCount: 2
Fore
SplineSet
0 560 m 1
 560 560 l 1
 560 448 l 1
 336 448 l 1
 336 0 l 1
 224 0 l 1
 224 448 l 1
 0 448 l 1
 0 560 l 1
EndSplineSet
EndChar

StartChar: uni443
Encoding: 1091 1091 248
Width: 672
GlyphClass: 1
Flags: W
LayerCount: 2
Fore
SplineSet
448 112 m 1
 336 112 l 1
 336 336 l 1
 448 336 l 1
 448 560 l 1
 560 560 l 1
 560 336 l 1
 448 336 l 1
 448 112 l 1
0 560 m 1
 112 560 l 1
 112 336 l 1
 224 336 l 1
 224 112 l 1
 336 112 l 1
 336 -112 l 1
 224 -112 l 1
 224 -224 l 1
 112 -224 l 1
 112 -112 l 1
 224 -112 l 1
 224 112 l 1
 112 112 l 1
 112 336 l 1
 0 336 l 1
 0 560 l 1
EndSplineSet
EndChar

StartChar: uni444
Encoding: 1092 1092 249
Width: 672
GlyphClass: 1
Flags: W
LayerCount: 2
Fore
SplineSet
112 448 m 1
 112 560 l 1
 224 560 l 1
 224 784 l 1
 336 784 l 1
 336 560 l 1
 448 560 l 1
 448 448 l 1
 560 448 l 1
 560 112 l 1
 448 112 l 1
 448 448 l 1
 336 448 l 1
 336 112 l 1
 448 112 l 1
 448 0 l 1
 336 0 l 1
 336 -224 l 1
 224 -224 l 1
 224 0 l 1
 112 0 l 1
 112 112 l 1
 0 112 l 1
 0 448 l 1
 112 448 l 1
112 448 m 1
 112 112 l 1
 224 112 l 1
 224 448 l 1
 112 448 l 1
EndSplineSet
EndChar

StartChar: uni445
Encoding: 1093 1093 250
Width: 672
GlyphClass: 1
Flags: W
LayerCount: 2
Fore
SplineSet
448 336 m 1
 336 336 l 1
 336 560 l 1
 560 560 l 1
 560 448 l 1
 448 448 l 1
 448 336 l 1
0 560 m 1
 224 560 l 1
 224 336 l 1
 336 336 l 1
 336 224 l 1
 448 224 l 1
 448 112 l 1
 560 112 l 1
 560 0 l 1
 336 0 l 1
 336 224 l 1
 224 224 l 1
 224 0 l 1
 0 0 l 1
 0 112 l 1
 112 112 l 1
 112 224 l 1
 224 224 l 1
 224 336 l 1
 112 336 l 1
 112 448 l 1
 0 448 l 1
 0 560 l 1
EndSplineSet
EndChar

StartChar: uni446
Encoding: 1094 1094 251
Width: 672
GlyphClass: 1
Flags: W
LayerCount: 2
Fore
SplineSet
0 560 m 1
 112 560 l 1
 112 112 l 1
 336 112 l 1
 336 560 l 1
 448 560 l 1
 448 112 l 1
 560 112 l 1
 560 -112 l 1
 448 -112 l 1
 448 0 l 1
 0 0 l 1
 0 560 l 1
EndSplineSet
EndChar

StartChar: uni447
Encoding: 1095 1095 252
Width: 672
GlyphClass: 1
Flags: W
LayerCount: 2
Fore
SplineSet
0 560 m 1
 112 560 l 1
 112 224 l 1
 448 224 l 1
 448 560 l 1
 560 560 l 1
 560 0 l 1
 448 0 l 1
 448 112 l 1
 112 112 l 1
 112 224 l 1
 0 224 l 1
 0 560 l 1
EndSplineSet
EndChar

StartChar: uni448
Encoding: 1096 1096 253
Width: 672
GlyphClass: 1
Flags: W
LayerCount: 2
Fore
SplineSet
0 560 m 1
 112 560 l 1
 112 112 l 1
 224 112 l 1
 224 560 l 1
 336 560 l 1
 336 112 l 1
 448 112 l 1
 448 560 l 1
 560 560 l 1
 560 0 l 1
 0 0 l 1
 0 560 l 1
EndSplineSet
EndChar

StartChar: uni449
Encoding: 1097 1097 254
Width: 672
GlyphClass: 1
Flags: W
LayerCount: 2
Fore
SplineSet
0 560 m 1
 112 560 l 1
 112 112 l 1
 224 112 l 1
 224 560 l 1
 336 560 l 1
 336 112 l 1
 448 112 l 1
 448 560 l 1
 560 560 l 1
 560 -112 l 1
 448 -112 l 1
 448 0 l 1
 0 0 l 1
 0 560 l 1
EndSplineSet
EndChar

StartChar: uni44A
Encoding: 1098 1098 255
Width: 672
GlyphClass: 1
Flags: W
LayerCount: 2
Fore
SplineSet
224 336 m 1
 224 112 l 1
 448 112 l 1
 448 0 l 1
 112 0 l 1
 112 448 l 1
 0 448 l 1
 0 560 l 1
 224 560 l 1
 224 448 l 1
 448 448 l 1
 448 336 l 1
 560 336 l 1
 560 112 l 1
 448 112 l 1
 448 336 l 1
 224 336 l 1
EndSplineSet
EndChar

StartChar: uni44B
Encoding: 1099 1099 256
Width: 672
GlyphClass: 1
Flags: W
LayerCount: 2
Fore
SplineSet
0 560 m 1
 112 560 l 1
 112 448 l 1
 336 448 l 1
 336 336 l 1
 448 336 l 1
 448 560 l 1
 560 560 l 1
 560 0 l 1
 448 0 l 1
 448 112 l 1
 336 112 l 1
 336 0 l 1
 0 0 l 1
 0 560 l 1
112 336 m 1
 112 112 l 1
 336 112 l 1
 336 336 l 1
 112 336 l 1
EndSplineSet
EndChar

StartChar: uni44C
Encoding: 1100 1100 257
Width: 672
GlyphClass: 1
Flags: W
LayerCount: 2
Fore
SplineSet
112 336 m 1
 112 112 l 1
 448 112 l 1
 448 0 l 1
 0 0 l 1
 0 560 l 1
 112 560 l 1
 112 448 l 1
 448 448 l 1
 448 336 l 1
 560 336 l 1
 560 112 l 1
 448 112 l 1
 448 336 l 1
 112 336 l 1
EndSplineSet
EndChar

StartChar: uni44D
Encoding: 1101 1101 258
Width: 672
GlyphClass: 1
Flags: W
LayerCount: 2
Fore
SplineSet
112 560 m 1
 448 560 l 1
 448 448 l 1
 560 448 l 1
 560 112 l 1
 448 112 l 1
 448 224 l 1
 224 224 l 1
 224 336 l 1
 448 336 l 1
 448 448 l 1
 112 448 l 1
 112 336 l 1
 0 336 l 1
 0 448 l 1
 112 448 l 1
 112 560 l 1
448 112 m 1
 448 0 l 1
 112 0 l 1
 112 112 l 1
 0 112 l 1
 0 224 l 1
 112 224 l 1
 112 112 l 1
 448 112 l 1
EndSplineSet
EndChar

StartChar: uni44E
Encoding: 1102 1102 259
Width: 672
GlyphClass: 1
Flags: W
LayerCount: 2
Fore
SplineSet
336 448 m 1
 336 560 l 1
 448 560 l 1
 448 448 l 1
 560 448 l 1
 560 112 l 1
 448 112 l 1
 448 448 l 1
 336 448 l 1
 336 112 l 1
 448 112 l 1
 448 0 l 1
 336 0 l 1
 336 112 l 1
 224 112 l 1
 224 224 l 1
 112 224 l 1
 112 0 l 1
 0 0 l 1
 0 560 l 1
 112 560 l 1
 112 336 l 1
 224 336 l 1
 224 448 l 1
 336 448 l 1
EndSplineSet
EndChar

StartChar: uni44F
Encoding: 1103 1103 260
Width: 672
GlyphClass: 1
Flags: W
LayerCount: 2
Fore
SplineSet
112 448 m 1
 112 560 l 1
 560 560 l 1
 560 0 l 1
 448 0 l 1
 448 224 l 1
 112 224 l 1
 112 0 l 1
 0 0 l 1
 0 224 l 1
 112 224 l 1
 112 336 l 1
 0 336 l 1
 0 448 l 1
 112 448 l 1
112 448 m 1
 112 336 l 1
 448 336 l 1
 448 448 l 1
 112 448 l 1
EndSplineSet
EndChar

StartChar: uni450
Encoding: 1104 1104 261
Width: 672
GlyphClass: 1
Flags: W
LayerCount: 2
Fore
SplineSet
224 896 m 1
 336 896 l 1
 336 784 l 1
 448 784 l 1
 448 672 l 1
 336 672 l 1
 336 784 l 1
 224 784 l 1
 224 896 l 1
112 448 m 1
 112 560 l 1
 448 560 l 1
 448 448 l 1
 560 448 l 1
 560 224 l 1
 112 224 l 1
 112 112 l 1
 560 112 l 1
 560 0 l 1
 112 0 l 1
 112 112 l 1
 0 112 l 1
 0 448 l 1
 112 448 l 1
112 448 m 1
 112 336 l 1
 448 336 l 1
 448 448 l 1
 112 448 l 1
EndSplineSet
EndChar

StartChar: uni451
Encoding: 1105 1105 262
Width: 672
GlyphClass: 1
Flags: W
LayerCount: 2
Fore
SplineSet
112 784 m 1
 224 784 l 1
 224 672 l 1
 112 672 l 1
 112 784 l 1
336 784 m 1
 448 784 l 1
 448 672 l 1
 336 672 l 1
 336 784 l 1
112 448 m 1
 112 560 l 1
 448 560 l 1
 448 448 l 1
 560 448 l 1
 560 224 l 1
 112 224 l 1
 112 112 l 1
 560 112 l 1
 560 0 l 1
 112 0 l 1
 112 112 l 1
 0 112 l 1
 0 448 l 1
 112 448 l 1
112 448 m 1
 112 336 l 1
 448 336 l 1
 448 448 l 1
 112 448 l 1
EndSplineSet
EndChar

StartChar: uni452
Encoding: 1106 1106 263
Width: 672
GlyphClass: 1
Flags: W
LayerCount: 2
Fore
SplineSet
112 784 m 1
 224 784 l 1
 224 672 l 1
 336 672 l 1
 336 560 l 1
 224 560 l 1
 224 336 l 1
 336 336 l 1
 336 448 l 1
 448 448 l 1
 448 336 l 1
 560 336 l 1
 560 0 l 1
 448 0 l 1
 448 -112 l 1
 336 -112 l 1
 336 0 l 1
 448 0 l 1
 448 336 l 1
 336 336 l 1
 336 224 l 1
 224 224 l 1
 224 0 l 1
 112 0 l 1
 112 560 l 1
 0 560 l 1
 0 672 l 1
 112 672 l 1
 112 784 l 1
EndSplineSet
EndChar

StartChar: uni453
Encoding: 1107 1107 264
Width: 672
GlyphClass: 1
Flags: W
LayerCount: 2
Fore
SplineSet
336 896 m 1
 448 896 l 1
 448 784 l 1
 336 784 l 1
 336 672 l 1
 224 672 l 1
 224 784 l 1
 336 784 l 1
 336 896 l 1
112 560 m 1
 560 560 l 1
 560 448 l 1
 224 448 l 1
 224 0 l 1
 112 0 l 1
 112 560 l 1
EndSplineSet
EndChar

StartChar: uni454
Encoding: 1108 1108 265
Width: 672
GlyphClass: 1
Flags: W
LayerCount: 2
Fore
SplineSet
112 560 m 1
 448 560 l 1
 448 448 l 1
 560 448 l 1
 560 336 l 1
 448 336 l 1
 448 448 l 1
 112 448 l 1
 112 336 l 1
 336 336 l 1
 336 224 l 1
 112 224 l 1
 112 112 l 1
 448 112 l 1
 448 0 l 1
 112 0 l 1
 112 112 l 1
 0 112 l 1
 0 448 l 1
 112 448 l 1
 112 560 l 1
560 112 m 1
 448 112 l 1
 448 224 l 1
 560 224 l 1
 560 112 l 1
EndSplineSet
EndChar

StartChar: uni455
Encoding: 1109 1109 266
Width: 672
GlyphClass: 1
Flags: W
LayerCount: 2
Fore
SplineSet
112 560 m 1
 560 560 l 1
 560 448 l 1
 112 448 l 1
 112 336 l 1
 448 336 l 1
 448 224 l 1
 560 224 l 1
 560 112 l 1
 448 112 l 1
 448 0 l 1
 0 0 l 1
 0 112 l 1
 448 112 l 1
 448 224 l 1
 112 224 l 1
 112 336 l 1
 0 336 l 1
 0 448 l 1
 112 448 l 1
 112 560 l 1
EndSplineSet
EndChar

StartChar: uni456
Encoding: 1110 1110 267
Width: 672
GlyphClass: 1
Flags: W
LayerCount: 2
Fore
SplineSet
224 784 m 1
 336 784 l 1
 336 672 l 1
 224 672 l 1
 224 784 l 1
112 560 m 1
 336 560 l 1
 336 112 l 1
 448 112 l 1
 448 0 l 1
 112 0 l 1
 112 112 l 1
 224 112 l 1
 224 448 l 1
 112 448 l 1
 112 560 l 1
EndSplineSet
EndChar

StartChar: uni457
Encoding: 1111 1111 268
Width: 672
GlyphClass: 1
Flags: W
LayerCount: 2
Fore
SplineSet
112 784 m 1
 224 784 l 1
 224 672 l 1
 112 672 l 1
 112 784 l 1
336 784 m 1
 448 784 l 1
 448 672 l 1
 336 672 l 1
 336 784 l 1
112 560 m 1
 336 560 l 1
 336 112 l 1
 448 112 l 1
 448 0 l 1
 112 0 l 1
 112 112 l 1
 224 112 l 1
 224 448 l 1
 112 448 l 1
 112 560 l 1
EndSplineSet
EndChar

StartChar: uni458
Encoding: 1112 1112 269
Width: 672
GlyphClass: 1
Flags: W
LayerCount: 2
Fore
SplineSet
336 784 m 1
 448 784 l 1
 448 672 l 1
 336 672 l 1
 336 784 l 1
224 560 m 1
 448 560 l 1
 448 0 l 1
 336 0 l 1
 336 448 l 1
 224 448 l 1
 224 560 l 1
336 0 m 1
 336 -112 l 1
 112 -112 l 1
 112 0 l 1
 0 0 l 1
 0 112 l 1
 112 112 l 1
 112 0 l 1
 336 0 l 1
EndSplineSet
EndChar

StartChar: uni459
Encoding: 1113 1113 270
Width: 672
GlyphClass: 1
Flags: W
LayerCount: 2
Fore
SplineSet
336 224 m 1
 336 112 l 1
 448 112 l 1
 448 0 l 1
 224 0 l 1
 224 448 l 1
 112 448 l 1
 112 0 l 1
 0 0 l 1
 0 448 l 1
 112 448 l 1
 112 560 l 1
 336 560 l 1
 336 336 l 1
 448 336 l 1
 448 224 l 1
 560 224 l 1
 560 112 l 1
 448 112 l 1
 448 224 l 1
 336 224 l 1
EndSplineSet
EndChar

StartChar: uni45A
Encoding: 1114 1114 271
Width: 672
GlyphClass: 1
Flags: W
LayerCount: 2
Fore
SplineSet
336 224 m 1
 336 112 l 1
 448 112 l 1
 448 0 l 1
 224 0 l 1
 224 224 l 1
 112 224 l 1
 112 0 l 1
 0 0 l 1
 0 560 l 1
 112 560 l 1
 112 336 l 1
 224 336 l 1
 224 560 l 1
 336 560 l 1
 336 336 l 1
 448 336 l 1
 448 224 l 1
 560 224 l 1
 560 112 l 1
 448 112 l 1
 448 224 l 1
 336 224 l 1
EndSplineSet
EndChar

StartChar: uni45B
Encoding: 1115 1115 272
Width: 672
GlyphClass: 1
Flags: W
LayerCount: 2
Fore
SplineSet
112 784 m 1
 224 784 l 1
 224 672 l 1
 336 672 l 1
 336 560 l 1
 224 560 l 1
 224 336 l 1
 336 336 l 1
 336 448 l 1
 448 448 l 1
 448 336 l 1
 560 336 l 1
 560 0 l 1
 448 0 l 1
 448 336 l 1
 336 336 l 1
 336 224 l 1
 224 224 l 1
 224 0 l 1
 112 0 l 1
 112 560 l 1
 0 560 l 1
 0 672 l 1
 112 672 l 1
 112 784 l 1
EndSplineSet
EndChar

StartChar: uni45C
Encoding: 1116 1116 273
Width: 672
GlyphClass: 1
Flags: W
LayerCount: 2
Fore
SplineSet
336 896 m 1
 448 896 l 1
 448 784 l 1
 336 784 l 1
 336 672 l 1
 224 672 l 1
 224 784 l 1
 336 784 l 1
 336 896 l 1
448 336 m 1
 336 336 l 1
 336 448 l 1
 448 448 l 1
 448 560 l 1
 560 560 l 1
 560 448 l 1
 448 448 l 1
 448 336 l 1
0 560 m 1
 112 560 l 1
 112 336 l 1
 336 336 l 1
 336 224 l 1
 448 224 l 1
 448 112 l 1
 560 112 l 1
 560 0 l 1
 448 0 l 1
 448 112 l 1
 336 112 l 1
 336 224 l 1
 112 224 l 1
 112 0 l 1
 0 0 l 1
 0 560 l 1
EndSplineSet
EndChar

StartChar: uni45D
Encoding: 1117 1117 274
Width: 672
GlyphClass: 1
Flags: W
LayerCount: 2
Fore
SplineSet
224 896 m 1
 336 896 l 1
 336 784 l 1
 448 784 l 1
 448 672 l 1
 336 672 l 1
 336 784 l 1
 224 784 l 1
 224 896 l 1
336 336 m 1
 336 224 l 1
 224 224 l 1
 224 336 l 1
 336 336 l 1
 336 448 l 1
 448 448 l 1
 448 560 l 1
 560 560 l 1
 560 0 l 1
 448 0 l 1
 448 336 l 1
 336 336 l 1
0 560 m 1
 112 560 l 1
 112 224 l 1
 224 224 l 1
 224 112 l 1
 112 112 l 1
 112 0 l 1
 0 0 l 1
 0 560 l 1
EndSplineSet
EndChar

StartChar: uni45E
Encoding: 1118 1118 275
Width: 672
GlyphClass: 1
Flags: W
LayerCount: 2
Fore
SplineSet
448 784 m 1
 336 784 l 1
 336 896 l 1
 448 896 l 1
 448 784 l 1
112 896 m 1
 224 896 l 1
 224 784 l 1
 336 784 l 1
 336 672 l 1
 224 672 l 1
 224 784 l 1
 112 784 l 1
 112 896 l 1
448 112 m 1
 336 112 l 1
 336 336 l 1
 448 336 l 1
 448 560 l 1
 560 560 l 1
 560 336 l 1
 448 336 l 1
 448 112 l 1
0 560 m 1
 112 560 l 1
 112 336 l 1
 224 336 l 1
 224 112 l 1
 336 112 l 1
 336 -112 l 1
 224 -112 l 1
 224 -224 l 1
 112 -224 l 1
 112 -112 l 1
 224 -112 l 1
 224 112 l 1
 112 112 l 1
 112 336 l 1
 0 336 l 1
 0 560 l 1
EndSplineSet
EndChar

StartChar: uni45F
Encoding: 1119 1119 276
Width: 672
GlyphClass: 1
Flags: W
LayerCount: 2
Fore
SplineSet
0 560 m 1
 112 560 l 1
 112 112 l 1
 448 112 l 1
 448 560 l 1
 560 560 l 1
 560 0 l 1
 336 0 l 1
 336 -112 l 1
 224 -112 l 1
 224 0 l 1
 0 0 l 1
 0 560 l 1
EndSplineSet
EndChar

StartChar: uni1FB00
Encoding: 129792 129792 277
Width: 672
GlyphClass: 1
Flags: W
LayerCount: 2
Fore
SplineSet
0 1120 m 1
 336 1120 l 1
 336 672 l 1
 0 672 l 1
 0 1120 l 1
EndSplineSet
EndChar

StartChar: uni1FB01
Encoding: 129793 129793 278
Width: 672
GlyphClass: 1
Flags: W
LayerCount: 2
Fore
SplineSet
336 1120 m 1
 672 1120 l 1
 672 672 l 1
 336 672 l 1
 336 1120 l 1
EndSplineSet
EndChar

StartChar: uni1FB02
Encoding: 129794 129794 279
Width: 672
GlyphClass: 1
Flags: W
LayerCount: 2
Fore
SplineSet
0 1120 m 1
 672 1120 l 1
 672 672 l 1
 0 672 l 1
 0 1120 l 1
EndSplineSet
EndChar

StartChar: uni1FB03
Encoding: 129795 129795 280
Width: 672
GlyphClass: 1
Flags: W
LayerCount: 2
Fore
SplineSet
0 672 m 1
 336 672 l 1
 336 224 l 1
 0 224 l 1
 0 672 l 1
EndSplineSet
EndChar

StartChar: uni1FB04
Encoding: 129796 129796 281
Width: 672
GlyphClass: 1
Flags: W
LayerCount: 2
Fore
SplineSet
0 1120 m 1
 336 1120 l 1
 336 224 l 1
 0 224 l 1
 0 1120 l 1
EndSplineSet
EndChar

StartChar: uni1FB05
Encoding: 129797 129797 282
Width: 672
GlyphClass: 1
Flags: W
LayerCount: 2
Fore
SplineSet
336 1120 m 1
 672 1120 l 1
 672 672 l 1
 336 672 l 1
 336 224 l 1
 0 224 l 1
 0 672 l 1
 336 672 l 1
 336 1120 l 1
EndSplineSet
EndChar

StartChar: uni1FB06
Encoding: 129798 129798 283
Width: 672
GlyphClass: 1
Flags: W
LayerCount: 2
Fore
SplineSet
0 1120 m 1
 672 1120 l 1
 672 672 l 1
 336 672 l 1
 336 224 l 1
 0 224 l 1
 0 1120 l 1
EndSplineSet
EndChar

StartChar: uni1FB07
Encoding: 129799 129799 284
Width: 672
GlyphClass: 1
Flags: W
LayerCount: 2
Fore
SplineSet
336 672 m 1
 672 672 l 1
 672 224 l 1
 336 224 l 1
 336 672 l 1
EndSplineSet
EndChar

StartChar: uni1FB08
Encoding: 129800 129800 285
Width: 672
GlyphClass: 1
Flags: W
LayerCount: 2
Fore
SplineSet
0 1120 m 1
 336 1120 l 1
 336 672 l 1
 672 672 l 1
 672 224 l 1
 336 224 l 1
 336 672 l 1
 0 672 l 1
 0 1120 l 1
EndSplineSet
EndChar

StartChar: uni1FB09
Encoding: 129801 129801 286
Width: 672
GlyphClass: 1
Flags: W
LayerCount: 2
Fore
SplineSet
336 1120 m 1
 672 1120 l 1
 672 224 l 1
 336 224 l 1
 336 1120 l 1
EndSplineSet
EndChar

StartChar: uni1FB0A
Encoding: 129802 129802 287
Width: 672
GlyphClass: 1
Flags: W
LayerCount: 2
Fore
SplineSet
0 1120 m 1
 672 1120 l 1
 672 224 l 1
 336 224 l 1
 336 672 l 1
 0 672 l 1
 0 1120 l 1
EndSplineSet
EndChar

StartChar: uni1FB0B
Encoding: 129803 129803 288
Width: 672
GlyphClass: 1
Flags: W
LayerCount: 2
Fore
SplineSet
0 672 m 1
 672 672 l 1
 672 224 l 1
 0 224 l 1
 0 672 l 1
EndSplineSet
EndChar

StartChar: uni1FB0C
Encoding: 129804 129804 289
Width: 672
GlyphClass: 1
Flags: W
LayerCount: 2
Fore
SplineSet
0 1120 m 1
 336 1120 l 1
 336 672 l 1
 672 672 l 1
 672 224 l 1
 0 224 l 1
 0 1120 l 1
EndSplineSet
EndChar

StartChar: uni1FB0D
Encoding: 129805 129805 290
Width: 672
GlyphClass: 1
Flags: W
LayerCount: 2
Fore
SplineSet
336 1120 m 1
 672 1120 l 1
 672 224 l 1
 0 224 l 1
 0 672 l 1
 336 672 l 1
 336 1120 l 1
EndSplineSet
EndChar

StartChar: uni1FB0E
Encoding: 129806 129806 291
Width: 672
GlyphClass: 1
Flags: W
LayerCount: 2
Fore
SplineSet
0 1120 m 1
 672 1120 l 1
 672 224 l 1
 0 224 l 1
 0 1120 l 1
EndSplineSet
EndChar

StartChar: uni1FB0F
Encoding: 129807 129807 292
Width: 672
GlyphClass: 1
Flags: W
LayerCount: 2
Fore
SplineSet
0 224 m 1
 336 224 l 1
 336 -224 l 1
 0 -224 l 1
 0 224 l 1
EndSplineSet
EndChar

StartChar: uni1FB10
Encoding: 129808 129808 293
Width: 672
GlyphClass: 1
Flags: W
LayerCount: 2
Fore
SplineSet
0 1120 m 1
 336 1120 l 1
 336 672 l 1
 0 672 l 1
 0 1120 l 1
0 224 m 1
 336 224 l 1
 336 -224 l 1
 0 -224 l 1
 0 224 l 1
EndSplineSet
EndChar

StartChar: uni1FB11
Encoding: 129809 129809 294
Width: 672
GlyphClass: 1
Flags: W
LayerCount: 2
Fore
SplineSet
336 1120 m 1
 672 1120 l 1
 672 672 l 1
 336 672 l 1
 336 1120 l 1
0 224 m 1
 336 224 l 1
 336 -224 l 1
 0 -224 l 1
 0 224 l 1
EndSplineSet
EndChar

StartChar: uni1FB12
Encoding: 129810 129810 295
Width: 672
GlyphClass: 1
Flags: W
LayerCount: 2
Fore
SplineSet
0 1120 m 1
 672 1120 l 1
 672 672 l 1
 0 672 l 1
 0 1120 l 1
0 224 m 1
 336 224 l 1
 336 -224 l 1
 0 -224 l 1
 0 224 l 1
EndSplineSet
EndChar

StartChar: uni1FB13
Encoding: 129811 129811 296
Width: 672
GlyphClass: 1
Flags: W
LayerCount: 2
Fore
SplineSet
0 672 m 1
 336 672 l 1
 336 -224 l 1
 0 -224 l 1
 0 672 l 1
EndSplineSet
EndChar

StartChar: uni1FB14
Encoding: 129812 129812 297
Width: 672
GlyphClass: 1
Flags: W
LayerCount: 2
Fore
SplineSet
336 1120 m 1
 672 1120 l 1
 672 672 l 1
 336 672 l 1
 336 -224 l 1
 0 -224 l 1
 0 672 l 1
 336 672 l 1
 336 1120 l 1
EndSplineSet
EndChar

StartChar: uni1FB15
Encoding: 129813 129813 298
Width: 672
GlyphClass: 1
Flags: W
LayerCount: 2
Fore
SplineSet
0 1120 m 1
 672 1120 l 1
 672 672 l 1
 336 672 l 1
 336 -224 l 1
 0 -224 l 1
 0 1120 l 1
EndSplineSet
EndChar

StartChar: uni1FB16
Encoding: 129814 129814 299
Width: 672
GlyphClass: 1
Flags: W
LayerCount: 2
Fore
SplineSet
336 672 m 1
 672 672 l 1
 672 224 l 1
 336 224 l 1
 336 -224 l 1
 0 -224 l 1
 0 224 l 1
 336 224 l 1
 336 672 l 1
EndSplineSet
EndChar

StartChar: uni1FB17
Encoding: 129815 129815 300
Width: 672
GlyphClass: 1
Flags: W
LayerCount: 2
Fore
SplineSet
0 1120 m 1
 336 1120 l 1
 336 672 l 1
 672 672 l 1
 672 224 l 1
 336 224 l 1
 336 -224 l 1
 0 -224 l 1
 0 224 l 1
 336 224 l 1
 336 672 l 1
 0 672 l 1
 0 1120 l 1
EndSplineSet
EndChar

StartChar: uni1FB18
Encoding: 129816 129816 301
Width: 672
GlyphClass: 1
Flags: W
LayerCount: 2
Fore
SplineSet
336 1120 m 1
 672 1120 l 1
 672 224 l 1
 336 224 l 1
 336 -224 l 1
 0 -224 l 1
 0 224 l 1
 336 224 l 1
 336 1120 l 1
EndSplineSet
EndChar

StartChar: uni1FB19
Encoding: 129817 129817 302
Width: 672
GlyphClass: 1
Flags: W
LayerCount: 2
Fore
SplineSet
112 1120 m 1
 672 1120 l 1
 672 224 l 1
 336 224 l 1
 336 -224 l 1
 0 -224 l 1
 0 224 l 1
 336 224 l 1
 336 672 l 1
 112 672 l 1
 112 1120 l 1
EndSplineSet
EndChar

StartChar: uni1FB1A
Encoding: 129818 129818 303
Width: 672
GlyphClass: 1
Flags: W
LayerCount: 2
Fore
SplineSet
0 672 m 1
 672 672 l 1
 672 224 l 1
 336 224 l 1
 336 -224 l 1
 0 -224 l 1
 0 672 l 1
EndSplineSet
EndChar

StartChar: uni1FB1B
Encoding: 129819 129819 304
Width: 672
GlyphClass: 1
Flags: W
LayerCount: 2
Fore
SplineSet
0 1120 m 1
 336 1120 l 1
 336 672 l 1
 672 672 l 1
 672 224 l 1
 336 224 l 1
 336 -224 l 1
 0 -224 l 1
 0 1120 l 1
EndSplineSet
EndChar

StartChar: uni1FB1C
Encoding: 129820 129820 305
Width: 672
GlyphClass: 1
Flags: W
LayerCount: 2
Fore
SplineSet
336 1120 m 1
 672 1120 l 1
 672 224 l 1
 336 224 l 1
 336 -224 l 1
 0 -224 l 1
 0 672 l 1
 336 672 l 1
 336 1120 l 1
EndSplineSet
EndChar

StartChar: uni1FB1D
Encoding: 129821 129821 306
Width: 672
GlyphClass: 1
Flags: W
LayerCount: 2
Fore
SplineSet
0 1120 m 1
 672 1120 l 1
 672 224 l 1
 336 224 l 1
 336 -224 l 1
 0 -224 l 1
 0 1120 l 1
EndSplineSet
EndChar

StartChar: uni1FB1E
Encoding: 129822 129822 307
Width: 672
GlyphClass: 1
Flags: W
LayerCount: 2
Fore
SplineSet
336 224 m 1
 672 224 l 1
 672 -224 l 1
 336 -224 l 1
 336 224 l 1
EndSplineSet
EndChar

StartChar: uni1FB1F
Encoding: 129823 129823 308
Width: 672
GlyphClass: 1
Flags: W
LayerCount: 2
Fore
SplineSet
0 1120 m 1
 336 1120 l 1
 336 672 l 1
 0 672 l 1
 0 1120 l 1
336 224 m 1
 672 224 l 1
 672 -224 l 1
 336 -224 l 1
 336 224 l 1
EndSplineSet
EndChar

StartChar: uni1FB20
Encoding: 129824 129824 309
Width: 672
GlyphClass: 1
Flags: W
LayerCount: 2
Fore
SplineSet
336 1120 m 1
 672 1120 l 1
 672 672 l 1
 336 672 l 1
 336 1120 l 1
336 224 m 1
 672 224 l 1
 672 -224 l 1
 336 -224 l 1
 336 224 l 1
EndSplineSet
EndChar

StartChar: uni1FB21
Encoding: 129825 129825 310
Width: 672
GlyphClass: 1
Flags: W
LayerCount: 2
Fore
SplineSet
0 1120 m 1
 672 1120 l 1
 672 672 l 1
 0 672 l 1
 0 1120 l 1
336 224 m 1
 672 224 l 1
 672 -224 l 1
 336 -224 l 1
 336 224 l 1
EndSplineSet
EndChar

StartChar: uni1FB22
Encoding: 129826 129826 311
Width: 672
GlyphClass: 1
Flags: W
LayerCount: 2
Fore
SplineSet
0 672 m 1
 336 672 l 1
 336 224 l 1
 672 224 l 1
 672 -224 l 1
 336 -224 l 1
 336 224 l 1
 0 224 l 1
 0 672 l 1
EndSplineSet
EndChar

StartChar: uni1FB23
Encoding: 129827 129827 312
Width: 672
GlyphClass: 1
Flags: W
LayerCount: 2
Fore
SplineSet
0 1120 m 1
 336 1120 l 1
 336 224 l 1
 672 224 l 1
 672 -224 l 1
 336 -224 l 1
 336 224 l 1
 0 224 l 1
 0 1120 l 1
EndSplineSet
EndChar

StartChar: uni1FB24
Encoding: 129828 129828 313
Width: 672
GlyphClass: 1
Flags: W
LayerCount: 2
Fore
SplineSet
336 1120 m 1
 672 1120 l 1
 672 672 l 1
 336 672 l 1
 336 224 l 1
 672 224 l 1
 672 -224 l 1
 336 -224 l 1
 336 224 l 1
 0 224 l 1
 0 672 l 1
 336 672 l 1
 336 1120 l 1
EndSplineSet
EndChar

StartChar: uni1FB25
Encoding: 129829 129829 314
Width: 672
GlyphClass: 1
Flags: W
LayerCount: 2
Fore
SplineSet
0 1120 m 1
 672 1120 l 1
 672 672 l 1
 336 672 l 1
 336 224 l 1
 672 224 l 1
 672 -224 l 1
 336 -224 l 1
 336 224 l 1
 0 224 l 1
 0 1120 l 1
EndSplineSet
EndChar

StartChar: uni1FB26
Encoding: 129830 129830 315
Width: 672
GlyphClass: 1
Flags: W
LayerCount: 2
Fore
SplineSet
336 672 m 1
 672 672 l 1
 672 -224 l 1
 336 -224 l 1
 336 672 l 1
EndSplineSet
EndChar

StartChar: uni1FB27
Encoding: 129831 129831 316
Width: 672
GlyphClass: 1
Flags: W
LayerCount: 2
Fore
SplineSet
0 1120 m 1
 336 1120 l 1
 336 672 l 1
 672 672 l 1
 672 -224 l 1
 336 -224 l 1
 336 672 l 1
 0 672 l 1
 0 1120 l 1
EndSplineSet
EndChar

StartChar: uni1FB28
Encoding: 129832 129832 317
Width: 672
GlyphClass: 1
Flags: W
LayerCount: 2
Fore
SplineSet
0 1120 m 1
 672 1120 l 1
 672 -224 l 1
 336 -224 l 1
 336 672 l 1
 0 672 l 1
 0 1120 l 1
EndSplineSet
EndChar

StartChar: uni1FB29
Encoding: 129833 129833 318
Width: 672
GlyphClass: 1
Flags: W
LayerCount: 2
Fore
SplineSet
0 672 m 1
 672 672 l 1
 672 -224 l 1
 336 -224 l 1
 336 224 l 1
 0 224 l 1
 0 672 l 1
EndSplineSet
EndChar

StartChar: uni1FB2A
Encoding: 129834 129834 319
Width: 672
GlyphClass: 1
Flags: W
LayerCount: 2
Fore
SplineSet
0 1120 m 1
 336 1120 l 1
 336 672 l 1
 672 672 l 1
 672 -224 l 1
 336 -224 l 1
 336 224 l 1
 0 224 l 1
 0 1120 l 1
EndSplineSet
EndChar

StartChar: uni1FB2B
Encoding: 129835 129835 320
Width: 672
GlyphClass: 1
Flags: W
LayerCount: 2
Fore
SplineSet
336 1120 m 1
 672 1120 l 1
 672 -224 l 1
 336 -224 l 1
 336 224 l 1
 0 224 l 1
 0 672 l 1
 336 672 l 1
 336 1120 l 1
EndSplineSet
EndChar

StartChar: uni1FB2C
Encoding: 129836 129836 321
Width: 672
GlyphClass: 1
Flags: W
LayerCount: 2
Fore
SplineSet
0 1120 m 1
 672 1120 l 1
 672 -224 l 1
 336 -224 l 1
 336 224 l 1
 0 224 l 1
 0 1120 l 1
EndSplineSet
EndChar

StartChar: uni1FB2D
Encoding: 129837 129837 322
Width: 672
GlyphClass: 1
Flags: W
LayerCount: 2
Fore
SplineSet
0 224 m 1
 672 224 l 1
 672 -224 l 1
 0 -224 l 1
 0 224 l 1
EndSplineSet
EndChar

StartChar: uni1FB2E
Encoding: 129838 129838 323
Width: 672
GlyphClass: 1
Flags: W
LayerCount: 2
Fore
SplineSet
0 1120 m 1
 336 1120 l 1
 336 672 l 1
 0 672 l 1
 0 1120 l 1
0 224 m 1
 672 224 l 1
 672 -224 l 1
 0 -224 l 1
 0 224 l 1
EndSplineSet
EndChar

StartChar: uni1FB2F
Encoding: 129839 129839 324
Width: 672
GlyphClass: 1
Flags: W
LayerCount: 2
Fore
SplineSet
336 1120 m 1
 672 1120 l 1
 672 672 l 1
 336 672 l 1
 336 1120 l 1
0 224 m 1
 672 224 l 1
 672 -224 l 1
 0 -224 l 1
 0 224 l 1
EndSplineSet
EndChar

StartChar: uni1FB30
Encoding: 129840 129840 325
Width: 672
GlyphClass: 1
Flags: W
LayerCount: 2
Fore
SplineSet
0 1120 m 1
 672 1120 l 1
 672 672 l 1
 0 672 l 1
 0 1120 l 1
0 224 m 1
 672 224 l 1
 672 -224 l 1
 0 -224 l 1
 0 224 l 1
EndSplineSet
EndChar

StartChar: uni1FB31
Encoding: 129841 129841 326
Width: 672
GlyphClass: 1
Flags: W
LayerCount: 2
Fore
SplineSet
0 672 m 1
 336 672 l 1
 336 224 l 1
 672 224 l 1
 672 -224 l 1
 0 -224 l 1
 0 672 l 1
EndSplineSet
EndChar

StartChar: uni1FB32
Encoding: 129842 129842 327
Width: 672
GlyphClass: 1
Flags: W
LayerCount: 2
Fore
SplineSet
0 1120 m 1
 336 1120 l 1
 336 224 l 1
 672 224 l 1
 672 -224 l 1
 0 -224 l 1
 0 1120 l 1
EndSplineSet
EndChar

StartChar: uni1FB33
Encoding: 129843 129843 328
Width: 672
GlyphClass: 1
Flags: W
LayerCount: 2
Fore
SplineSet
336 1120 m 1
 672 1120 l 1
 672 672 l 1
 336 672 l 1
 336 224 l 1
 672 224 l 1
 672 -224 l 1
 0 -224 l 1
 0 672 l 1
 336 672 l 1
 336 1120 l 1
EndSplineSet
EndChar

StartChar: uni1FB34
Encoding: 129844 129844 329
Width: 672
GlyphClass: 1
Flags: W
LayerCount: 2
Fore
SplineSet
0 1120 m 1
 672 1120 l 1
 672 672 l 1
 336 672 l 1
 336 224 l 1
 672 224 l 1
 672 -224 l 1
 0 -224 l 1
 0 1120 l 1
EndSplineSet
EndChar

StartChar: uni1FB35
Encoding: 129845 129845 330
Width: 672
GlyphClass: 1
Flags: W
LayerCount: 2
Fore
SplineSet
336 672 m 1
 672 672 l 1
 672 -224 l 1
 0 -224 l 1
 0 224 l 1
 336 224 l 1
 336 672 l 1
EndSplineSet
EndChar

StartChar: uni1FB36
Encoding: 129846 129846 331
Width: 672
GlyphClass: 1
Flags: W
LayerCount: 2
Fore
SplineSet
0 1120 m 1
 336 1120 l 1
 336 672 l 1
 672 672 l 1
 672 -224 l 1
 0 -224 l 1
 0 224 l 1
 336 224 l 1
 336 672 l 1
 0 672 l 1
 0 1120 l 1
EndSplineSet
EndChar

StartChar: uni1FB37
Encoding: 129847 129847 332
Width: 672
GlyphClass: 1
Flags: W
LayerCount: 2
Fore
SplineSet
336 1120 m 1
 672 1120 l 1
 672 -224 l 1
 0 -224 l 1
 0 224 l 1
 336 224 l 1
 336 1120 l 1
EndSplineSet
EndChar

StartChar: uni1FB38
Encoding: 129848 129848 333
Width: 672
GlyphClass: 1
Flags: W
LayerCount: 2
Fore
SplineSet
0 1120 m 1
 672 1120 l 1
 672 -224 l 1
 0 -224 l 1
 0 224 l 1
 336 224 l 1
 336 672 l 1
 0 672 l 1
 0 1120 l 1
EndSplineSet
EndChar

StartChar: uni1FB39
Encoding: 129849 129849 334
Width: 672
GlyphClass: 1
Flags: W
LayerCount: 2
Fore
SplineSet
0 672 m 1
 672 672 l 1
 672 -224 l 1
 0 -224 l 1
 0 672 l 1
EndSplineSet
EndChar

StartChar: uni1FB3A
Encoding: 129850 129850 335
Width: 672
GlyphClass: 1
Flags: W
LayerCount: 2
Fore
SplineSet
0 1120 m 1
 336 1120 l 1
 336 672 l 1
 672 672 l 1
 672 -224 l 1
 0 -224 l 1
 0 1120 l 1
EndSplineSet
EndChar

StartChar: uni1FB3B
Encoding: 129851 129851 336
Width: 672
GlyphClass: 1
Flags: W
LayerCount: 2
Fore
SplineSet
336 1120 m 1
 672 1120 l 1
 672 -224 l 1
 0 -224 l 1
 0 672 l 1
 336 672 l 1
 336 1120 l 1
EndSplineSet
EndChar

StartChar: uni1FB3C
Encoding: 129852 129852 337
Width: 672
GlyphClass: 1
Flags: W
LayerCount: 2
Fore
SplineSet
0 224 m 1
 112 224 l 1
 112 0 l 1
 224 0 l 1
 224 -112 l 1
 336 -112 l 1
 336 -224 l 1
 0 -224 l 1
 0 224 l 1
EndSplineSet
EndChar

StartChar: uni1FB3D
Encoding: 129853 129853 338
Width: 672
GlyphClass: 1
Flags: W
LayerCount: 2
Fore
SplineSet
0 224 m 1
 112 224 l 1
 112 112 l 1
 224 112 l 1
 224 0 l 1
 448 0 l 1
 448 -112 l 1
 672 -112 l 1
 672 -224 l 1
 0 -224 l 1
 0 224 l 1
EndSplineSet
EndChar

StartChar: uni1FB3E
Encoding: 129854 129854 339
Width: 672
GlyphClass: 1
Flags: W
LayerCount: 2
Fore
SplineSet
0 672 m 1
 112 672 l 1
 112 336 l 1
 224 336 l 1
 224 0 l 1
 336 0 l 1
 336 -224 l 1
 0 -224 l 1
 0 672 l 1
EndSplineSet
EndChar

StartChar: uni1FB3F
Encoding: 129855 129855 340
Width: 672
GlyphClass: 1
Flags: W
LayerCount: 2
Fore
SplineSet
0 672 m 1
 112 672 l 1
 112 448 l 1
 224 448 l 1
 224 224 l 1
 336 224 l 1
 336 112 l 1
 448 112 l 1
 448 0 l 1
 560 0 l 1
 560 -112 l 1
 672 -112 l 1
 672 -224 l 1
 0 -224 l 1
 0 672 l 1
EndSplineSet
EndChar

StartChar: uni1FB40
Encoding: 129856 129856 341
Width: 672
GlyphClass: 1
Flags: W
LayerCount: 2
Fore
SplineSet
0 1120 m 1
 112 1120 l 1
 112 672 l 1
 224 672 l 1
 224 224 l 1
 336 224 l 1
 336 -224 l 1
 0 -224 l 1
 0 1120 l 1
EndSplineSet
EndChar

StartChar: uni1FB41
Encoding: 129857 129857 342
Width: 672
GlyphClass: 1
Flags: W
LayerCount: 2
Fore
SplineSet
336 1120 m 1
 672 1120 l 1
 672 -224 l 1
 0 -224 l 1
 0 784 l 1
 112 784 l 1
 112 896 l 1
 224 896 l 1
 224 1008 l 1
 336 1008 l 1
 336 1120 l 1
EndSplineSet
EndChar

StartChar: uni1FB42
Encoding: 129858 129858 343
Width: 672
GlyphClass: 1
Flags: W
LayerCount: 2
Fore
SplineSet
560 1120 m 1
 672 1120 l 1
 672 -224 l 1
 0 -224 l 1
 0 672 l 1
 112 672 l 1
 112 784 l 1
 336 784 l 1
 336 896 l 1
 448 896 l 1
 448 1008 l 1
 560 1008 l 1
 560 1120 l 1
EndSplineSet
EndChar

StartChar: uni1FB43
Encoding: 129859 129859 344
Width: 672
GlyphClass: 1
Flags: W
LayerCount: 2
Fore
SplineSet
336 1120 m 1
 672 1120 l 1
 672 -224 l 1
 0 -224 l 1
 0 224 l 1
 112 224 l 1
 112 560 l 1
 224 560 l 1
 224 896 l 1
 336 896 l 1
 336 1120 l 1
EndSplineSet
EndChar

StartChar: uni1FB44
Encoding: 129860 129860 345
Width: 672
GlyphClass: 1
Flags: W
LayerCount: 2
Fore
SplineSet
560 1120 m 1
 672 1120 l 1
 672 -224 l 1
 0 -224 l 1
 0 224 l 1
 112 224 l 1
 112 448 l 1
 224 448 l 1
 224 560 l 1
 336 560 l 1
 336 784 l 1
 448 784 l 1
 448 896 l 1
 560 896 l 1
 560 1120 l 1
EndSplineSet
EndChar

StartChar: uni1FB45
Encoding: 129861 129861 346
Width: 672
GlyphClass: 1
Flags: W
LayerCount: 2
Fore
SplineSet
336 1120 m 1
 672 1120 l 1
 672 -224 l 1
 0 -224 l 1
 0 112 l 1
 112 112 l 1
 112 448 l 1
 224 448 l 1
 224 784 l 1
 336 784 l 1
 336 1120 l 1
EndSplineSet
EndChar

StartChar: uni1FB46
Encoding: 129862 129862 347
Width: 672
GlyphClass: 1
Flags: W
LayerCount: 2
Fore
SplineSet
560 672 m 1
 672 672 l 1
 672 -224 l 1
 0 -224 l 1
 0 224 l 1
 112 224 l 1
 112 336 l 1
 336 336 l 1
 336 448 l 1
 448 448 l 1
 448 560 l 1
 560 560 l 1
 560 672 l 1
EndSplineSet
EndChar

StartChar: uni1FB47
Encoding: 129863 129863 348
Width: 672
GlyphClass: 1
Flags: W
LayerCount: 2
Fore
SplineSet
560 224 m 1
 672 224 l 1
 672 -224 l 1
 336 -224 l 1
 336 -112 l 1
 448 -112 l 1
 448 0 l 1
 560 0 l 1
 560 224 l 1
EndSplineSet
EndChar

StartChar: uni1FB48
Encoding: 129864 129864 349
Width: 672
GlyphClass: 1
Flags: W
LayerCount: 2
Fore
SplineSet
560 224 m 1
 672 224 l 1
 672 -224 l 1
 0 -224 l 1
 0 -112 l 1
 224 -112 l 1
 224 0 l 1
 448 0 l 1
 448 112 l 1
 560 112 l 1
 560 224 l 1
EndSplineSet
EndChar

StartChar: uni1FB49
Encoding: 129865 129865 350
Width: 672
GlyphClass: 1
Flags: W
LayerCount: 2
Fore
SplineSet
560 672 m 1
 672 672 l 1
 672 -224 l 1
 336 -224 l 1
 336 0 l 1
 448 0 l 1
 448 336 l 1
 560 336 l 1
 560 672 l 1
EndSplineSet
EndChar

StartChar: uni1FB4A
Encoding: 129866 129866 351
Width: 672
GlyphClass: 1
Flags: W
LayerCount: 2
Fore
SplineSet
560 672 m 1
 672 672 l 1
 672 -224 l 1
 0 -224 l 1
 0 -112 l 1
 112 -112 l 1
 112 0 l 1
 224 0 l 1
 224 112 l 1
 336 112 l 1
 336 224 l 1
 448 224 l 1
 448 448 l 1
 560 448 l 1
 560 672 l 1
EndSplineSet
EndChar

StartChar: uni1FB4B
Encoding: 129867 129867 352
Width: 672
GlyphClass: 1
Flags: W
LayerCount: 2
Fore
SplineSet
560 1120 m 1
 672 1120 l 1
 672 -224 l 1
 336 -224 l 1
 336 224 l 1
 448 224 l 1
 448 672 l 1
 560 672 l 1
 560 1120 l 1
EndSplineSet
EndChar

StartChar: uni1FB4C
Encoding: 129868 129868 353
Width: 672
GlyphClass: 1
Flags: W
LayerCount: 2
Fore
SplineSet
0 1120 m 1
 336 1120 l 1
 336 1008 l 1
 448 1008 l 1
 448 896 l 1
 560 896 l 1
 560 784 l 1
 672 784 l 1
 672 -224 l 1
 0 -224 l 1
 0 1120 l 1
EndSplineSet
EndChar

StartChar: uni1FB4D
Encoding: 129869 129869 354
Width: 672
GlyphClass: 1
Flags: W
LayerCount: 2
Fore
SplineSet
0 1120 m 1
 112 1120 l 1
 112 1008 l 1
 224 1008 l 1
 224 896 l 1
 336 896 l 1
 336 784 l 1
 560 784 l 1
 560 672 l 1
 672 672 l 1
 672 -224 l 1
 0 -224 l 1
 0 1120 l 1
EndSplineSet
EndChar

StartChar: uni1FB4E
Encoding: 129870 129870 355
Width: 672
GlyphClass: 1
Flags: W
LayerCount: 2
Fore
SplineSet
0 1120 m 1
 336 1120 l 1
 336 896 l 1
 448 896 l 1
 448 560 l 1
 560 560 l 1
 560 224 l 1
 672 224 l 1
 672 -224 l 1
 0 -224 l 1
 0 1120 l 1
EndSplineSet
EndChar

StartChar: uni1FB4F
Encoding: 129871 129871 356
Width: 672
GlyphClass: 1
Flags: W
LayerCount: 2
Fore
SplineSet
0 1120 m 1
 112 1120 l 1
 112 896 l 1
 224 896 l 1
 224 784 l 1
 336 784 l 1
 336 560 l 1
 448 560 l 1
 448 448 l 1
 560 448 l 1
 560 224 l 1
 672 224 l 1
 672 -224 l 1
 0 -224 l 1
 0 1120 l 1
EndSplineSet
EndChar

StartChar: uni1FB50
Encoding: 129872 129872 357
Width: 672
GlyphClass: 1
Flags: W
LayerCount: 2
Fore
SplineSet
0 1120 m 1
 336 1120 l 1
 336 784 l 1
 448 784 l 1
 448 448 l 1
 560 448 l 1
 560 112 l 1
 672 112 l 1
 672 -224 l 1
 0 -224 l 1
 0 1120 l 1
EndSplineSet
EndChar

StartChar: uni1FB51
Encoding: 129873 129873 358
Width: 672
GlyphClass: 1
Flags: W
LayerCount: 2
Fore
SplineSet
0 672 m 1
 112 672 l 1
 112 560 l 1
 224 560 l 1
 224 448 l 1
 336 448 l 1
 336 336 l 1
 560 336 l 1
 560 224 l 1
 672 224 l 1
 672 -224 l 1
 0 -224 l 1
 0 672 l 1
EndSplineSet
EndChar

StartChar: uni1FB52
Encoding: 129874 129874 359
Width: 672
GlyphClass: 1
Flags: W
LayerCount: 2
Fore
SplineSet
0 1120 m 1
 672 1120 l 1
 672 -224 l 1
 336 -224 l 1
 336 -112 l 1
 224 -112 l 1
 224 0 l 1
 112 0 l 1
 112 112 l 1
 0 112 l 1
 0 1120 l 1
EndSplineSet
EndChar

StartChar: uni1FB53
Encoding: 129875 129875 360
Width: 672
GlyphClass: 1
Flags: W
LayerCount: 2
Fore
SplineSet
0 1120 m 1
 672 1120 l 1
 672 -224 l 1
 560 -224 l 1
 560 -112 l 1
 448 -112 l 1
 448 0 l 1
 336 0 l 1
 336 112 l 1
 112 112 l 1
 112 224 l 1
 0 224 l 1
 0 1120 l 1
EndSplineSet
EndChar

StartChar: uni1FB54
Encoding: 129876 129876 361
Width: 672
GlyphClass: 1
Flags: W
LayerCount: 2
Fore
SplineSet
0 1120 m 1
 672 1120 l 1
 672 -224 l 1
 336 -224 l 1
 336 0 l 1
 224 0 l 1
 224 336 l 1
 112 336 l 1
 112 672 l 1
 0 672 l 1
 0 1120 l 1
EndSplineSet
EndChar

StartChar: uni1FB55
Encoding: 129877 129877 362
Width: 672
GlyphClass: 1
Flags: W
LayerCount: 2
Fore
SplineSet
0 1120 m 1
 672 1120 l 1
 672 -224 l 1
 560 -224 l 1
 560 0 l 1
 448 0 l 1
 448 112 l 1
 336 112 l 1
 336 336 l 1
 224 336 l 1
 224 448 l 1
 112 448 l 1
 112 672 l 1
 0 672 l 1
 0 1120 l 1
EndSplineSet
EndChar

StartChar: uni1FB56
Encoding: 129878 129878 363
Width: 672
GlyphClass: 1
Flags: W
LayerCount: 2
Fore
SplineSet
0 1120 m 1
 672 1120 l 1
 672 -224 l 1
 336 -224 l 1
 336 112 l 1
 224 112 l 1
 224 448 l 1
 112 448 l 1
 112 784 l 1
 0 784 l 1
 0 1120 l 1
EndSplineSet
EndChar

StartChar: uni1FB57
Encoding: 129879 129879 364
Width: 672
GlyphClass: 1
Flags: W
LayerCount: 2
Fore
SplineSet
0 1120 m 1
 336 1120 l 1
 336 1008 l 1
 224 1008 l 1
 224 896 l 1
 112 896 l 1
 112 672 l 1
 0 672 l 1
 0 1120 l 1
EndSplineSet
EndChar

StartChar: uni1FB58
Encoding: 129880 129880 365
Width: 672
GlyphClass: 1
Flags: W
LayerCount: 2
Fore
SplineSet
0 1120 m 1
 672 1120 l 1
 672 1008 l 1
 448 1008 l 1
 448 896 l 1
 224 896 l 1
 224 784 l 1
 112 784 l 1
 112 672 l 1
 0 672 l 1
 0 1120 l 1
EndSplineSet
EndChar

StartChar: uni1FB59
Encoding: 129881 129881 366
Width: 672
GlyphClass: 1
Flags: W
LayerCount: 2
Fore
SplineSet
0 1120 m 1
 336 1120 l 1
 336 896 l 1
 224 896 l 1
 224 560 l 1
 112 560 l 1
 112 224 l 1
 0 224 l 1
 0 1120 l 1
EndSplineSet
EndChar

StartChar: uni1FB5A
Encoding: 129882 129882 367
Width: 672
GlyphClass: 1
Flags: W
LayerCount: 2
Fore
SplineSet
0 1120 m 1
 672 1120 l 1
 672 1008 l 1
 560 1008 l 1
 560 896 l 1
 448 896 l 1
 448 784 l 1
 336 784 l 1
 336 672 l 1
 224 672 l 1
 224 448 l 1
 112 448 l 1
 112 224 l 1
 0 224 l 1
 0 1120 l 1
EndSplineSet
EndChar

StartChar: uni1FB5B
Encoding: 129883 129883 368
Width: 672
GlyphClass: 1
Flags: W
LayerCount: 2
Fore
SplineSet
0 1120 m 1
 336 1120 l 1
 336 672 l 1
 224 672 l 1
 224 224 l 1
 112 224 l 1
 112 -224 l 1
 0 -224 l 1
 0 1120 l 1
EndSplineSet
EndChar

StartChar: uni1FB5C
Encoding: 129884 129884 369
Width: 672
GlyphClass: 1
Flags: W
LayerCount: 2
Fore
SplineSet
0 1120 m 1
 672 1120 l 1
 672 672 l 1
 560 672 l 1
 560 560 l 1
 336 560 l 1
 336 448 l 1
 224 448 l 1
 224 336 l 1
 112 336 l 1
 112 224 l 1
 0 224 l 1
 0 1120 l 1
EndSplineSet
EndChar

StartChar: uni1FB5D
Encoding: 129885 129885 370
Width: 672
GlyphClass: 1
Flags: W
LayerCount: 2
Fore
SplineSet
0 1120 m 1
 672 1120 l 1
 672 112 l 1
 560 112 l 1
 560 0 l 1
 448 0 l 1
 448 -112 l 1
 336 -112 l 1
 336 -224 l 1
 0 -224 l 1
 0 1120 l 1
EndSplineSet
EndChar

StartChar: uni1FB5E
Encoding: 129886 129886 371
Width: 672
GlyphClass: 1
Flags: W
LayerCount: 2
Fore
SplineSet
0 1120 m 1
 672 1120 l 1
 672 224 l 1
 560 224 l 1
 560 112 l 1
 336 112 l 1
 336 0 l 1
 224 0 l 1
 224 -112 l 1
 112 -112 l 1
 112 -224 l 1
 0 -224 l 1
 0 1120 l 1
EndSplineSet
EndChar

StartChar: uni1FB5F
Encoding: 129887 129887 372
Width: 672
GlyphClass: 1
Flags: W
LayerCount: 2
Fore
SplineSet
0 1120 m 1
 672 1120 l 1
 672 672 l 1
 560 672 l 1
 560 336 l 1
 448 336 l 1
 448 0 l 1
 336 0 l 1
 336 -224 l 1
 0 -224 l 1
 0 1120 l 1
EndSplineSet
EndChar

StartChar: uni1FB60
Encoding: 129888 129888 373
Width: 672
GlyphClass: 1
Flags: W
LayerCount: 2
Fore
SplineSet
0 1120 m 1
 672 1120 l 1
 672 672 l 1
 560 672 l 1
 560 448 l 1
 448 448 l 1
 448 336 l 1
 336 336 l 1
 336 112 l 1
 224 112 l 1
 224 0 l 1
 112 0 l 1
 112 -224 l 1
 0 -224 l 1
 0 1120 l 1
EndSplineSet
EndChar

StartChar: uni1FB61
Encoding: 129889 129889 374
Width: 672
GlyphClass: 1
Flags: W
LayerCount: 2
Fore
SplineSet
0 1120 m 1
 672 1120 l 1
 672 784 l 1
 560 784 l 1
 560 448 l 1
 448 448 l 1
 448 112 l 1
 336 112 l 1
 336 -224 l 1
 0 -224 l 1
 0 1120 l 1
EndSplineSet
EndChar

StartChar: uni1FB62
Encoding: 129890 129890 375
Width: 672
GlyphClass: 1
Flags: W
LayerCount: 2
Fore
SplineSet
336 1120 m 1
 672 1120 l 1
 672 672 l 1
 560 672 l 1
 560 896 l 1
 448 896 l 1
 448 1008 l 1
 336 1008 l 1
 336 1120 l 1
EndSplineSet
EndChar

StartChar: uni1FB63
Encoding: 129891 129891 376
Width: 672
GlyphClass: 1
Flags: W
LayerCount: 2
Fore
SplineSet
0 1120 m 1
 672 1120 l 1
 672 672 l 1
 560 672 l 1
 560 784 l 1
 448 784 l 1
 448 896 l 1
 224 896 l 1
 224 1008 l 1
 0 1008 l 1
 0 1120 l 1
EndSplineSet
EndChar

StartChar: uni1FB64
Encoding: 129892 129892 377
Width: 672
GlyphClass: 1
Flags: W
LayerCount: 2
Fore
SplineSet
336 1120 m 1
 672 1120 l 1
 672 224 l 1
 560 224 l 1
 560 560 l 1
 448 560 l 1
 448 896 l 1
 336 896 l 1
 336 1120 l 1
EndSplineSet
EndChar

StartChar: uni1FB65
Encoding: 129893 129893 378
Width: 672
GlyphClass: 1
Flags: W
LayerCount: 2
Fore
SplineSet
0 1120 m 1
 672 1120 l 1
 672 224 l 1
 560 224 l 1
 560 448 l 1
 448 448 l 1
 448 672 l 1
 336 672 l 1
 336 784 l 1
 224 784 l 1
 224 896 l 1
 112 896 l 1
 112 1008 l 1
 0 1008 l 1
 0 1120 l 1
EndSplineSet
EndChar

StartChar: uni1FB66
Encoding: 129894 129894 379
Width: 672
GlyphClass: 1
Flags: W
LayerCount: 2
Fore
SplineSet
336 1120 m 1
 672 1120 l 1
 672 -224 l 1
 560 -224 l 1
 560 224 l 1
 448 224 l 1
 448 672 l 1
 336 672 l 1
 336 1120 l 1
EndSplineSet
EndChar

StartChar: uni1FB67
Encoding: 129895 129895 380
Width: 672
GlyphClass: 1
Flags: W
LayerCount: 2
Fore
SplineSet
0 1120 m 1
 672 1120 l 1
 672 224 l 1
 560 224 l 1
 560 336 l 1
 448 336 l 1
 448 448 l 1
 336 448 l 1
 336 560 l 1
 112 560 l 1
 112 672 l 1
 0 672 l 1
 0 1120 l 1
EndSplineSet
EndChar

StartChar: uni1FB68
Encoding: 129896 129896 381
Width: 672
GlyphClass: 1
Flags: W
LayerCount: 2
Fore
SplineSet
0 1120 m 1
 672 1120 l 1
 672 -224 l 1
 0 -224 l 1
 0 -112 l 1
 112 -112 l 1
 112 112 l 1
 224 112 l 1
 224 336 l 1
 336 336 l 1
 336 560 l 1
 224 560 l 1
 224 784 l 1
 112 784 l 1
 112 1008 l 1
 0 1008 l 1
 0 1120 l 1
EndSplineSet
EndChar

StartChar: uni1FB69
Encoding: 129897 129897 382
Width: 672
GlyphClass: 1
Flags: W
LayerCount: 2
Fore
SplineSet
0 1008 m 1
 112 1008 l 1
 112 784 l 1
 224 784 l 1
 224 560 l 1
 448 560 l 1
 448 784 l 1
 560 784 l 1
 560 1008 l 1
 672 1008 l 1
 672 -224 l 1
 0 -224 l 1
 0 1008 l 1
EndSplineSet
EndChar

StartChar: uni1FB6A
Encoding: 129898 129898 383
Width: 672
GlyphClass: 1
Flags: W
LayerCount: 2
Fore
SplineSet
0 1120 m 1
 672 1120 l 1
 672 1008 l 1
 560 1008 l 1
 560 784 l 1
 448 784 l 1
 448 560 l 1
 336 560 l 1
 336 336 l 1
 448 336 l 1
 448 112 l 1
 560 112 l 1
 560 -112 l 1
 672 -112 l 1
 672 -224 l 1
 0 -224 l 1
 0 1120 l 1
EndSplineSet
EndChar

StartChar: uni1FB6B
Encoding: 129899 129899 384
Width: 672
GlyphClass: 1
Flags: W
LayerCount: 2
Fore
SplineSet
0 1120 m 1
 672 1120 l 1
 672 -112 l 1
 560 -112 l 1
 560 112 l 1
 448 112 l 1
 448 336 l 1
 224 336 l 1
 224 112 l 1
 112 112 l 1
 112 -112 l 1
 0 -112 l 1
 0 1120 l 1
EndSplineSet
EndChar

StartChar: uni1FB6C
Encoding: 129900 129900 385
Width: 672
GlyphClass: 1
Flags: W
LayerCount: 2
Fore
SplineSet
0 1008 m 1
 112 1008 l 1
 112 784 l 1
 224 784 l 1
 224 560 l 1
 336 560 l 1
 336 336 l 1
 224 336 l 1
 224 112 l 1
 112 112 l 1
 112 -112 l 1
 0 -112 l 1
 0 1008 l 1
EndSplineSet
EndChar

StartChar: uni1FB6D
Encoding: 129901 129901 386
Width: 672
GlyphClass: 1
Flags: W
LayerCount: 2
Fore
SplineSet
0 1120 m 1
 672 1120 l 1
 672 1008 l 1
 560 1008 l 1
 560 784 l 1
 448 784 l 1
 448 560 l 1
 224 560 l 1
 224 784 l 1
 112 784 l 1
 112 1008 l 1
 0 1008 l 1
 0 1120 l 1
EndSplineSet
EndChar

StartChar: uni1FB6E
Encoding: 129902 129902 387
Width: 672
GlyphClass: 1
Flags: W
LayerCount: 2
Fore
SplineSet
560 1008 m 1
 672 1008 l 1
 672 -112 l 1
 560 -112 l 1
 560 112 l 1
 448 112 l 1
 448 336 l 1
 336 336 l 1
 336 560 l 1
 448 560 l 1
 448 784 l 1
 560 784 l 1
 560 1008 l 1
EndSplineSet
EndChar

StartChar: uni1FB6F
Encoding: 129903 129903 388
Width: 672
GlyphClass: 1
Flags: W
LayerCount: 2
Fore
SplineSet
224 336 m 1
 448 336 l 1
 448 112 l 1
 560 112 l 1
 560 -112 l 1
 672 -112 l 1
 672 -224 l 1
 0 -224 l 1
 0 -112 l 1
 112 -112 l 1
 112 112 l 1
 224 112 l 1
 224 336 l 1
EndSplineSet
EndChar

StartChar: uni1FB8C
Encoding: 129932 129932 389
Width: 672
GlyphClass: 1
Flags: W
LayerCount: 2
Fore
SplineSet
336 1008 m 1
 224 1008 l 1
 224 1120 l 1
 336 1120 l 1
 336 1008 l 1
112 0 m 1
 112 112 l 1
 0 112 l 1
 0 224 l 1
 112 224 l 1
 112 336 l 1
 0 336 l 1
 0 448 l 1
 112 448 l 1
 112 560 l 1
 0 560 l 1
 0 672 l 1
 112 672 l 1
 112 784 l 1
 0 784 l 1
 0 896 l 1
 112 896 l 1
 112 1008 l 1
 0 1008 l 1
 0 1120 l 1
 112 1120 l 1
 112 1008 l 1
 224 1008 l 1
 224 896 l 1
 336 896 l 1
 336 784 l 1
 224 784 l 1
 224 896 l 1
 112 896 l 1
 112 784 l 1
 224 784 l 1
 224 672 l 1
 336 672 l 1
 336 560 l 1
 224 560 l 1
 224 672 l 1
 112 672 l 1
 112 560 l 1
 224 560 l 1
 224 448 l 1
 336 448 l 1
 336 336 l 1
 224 336 l 1
 224 448 l 1
 112 448 l 1
 112 336 l 1
 224 336 l 1
 224 224 l 1
 336 224 l 1
 336 112 l 1
 224 112 l 1
 224 224 l 1
 112 224 l 1
 112 112 l 1
 224 112 l 1
 224 0 l 1
 336 0 l 1
 336 -112 l 1
 224 -112 l 1
 224 0 l 1
 112 0 l 1
 112 -112 l 1
 224 -112 l 1
 224 -224 l 1
 112 -224 l 1
 112 -112 l 1
 0 -112 l 1
 0 0 l 1
 112 0 l 1
EndSplineSet
EndChar

StartChar: uni1FB8D
Encoding: 129933 129933 390
Width: 672
GlyphClass: 1
Flags: W
LayerCount: 2
Fore
SplineSet
448 112 m 1
 448 224 l 1
 336 224 l 1
 336 336 l 1
 448 336 l 1
 448 448 l 1
 336 448 l 1
 336 560 l 1
 448 560 l 1
 448 672 l 1
 336 672 l 1
 336 784 l 1
 448 784 l 1
 448 896 l 1
 336 896 l 1
 336 1008 l 1
 448 1008 l 1
 448 1120 l 1
 560 1120 l 1
 560 1008 l 1
 672 1008 l 1
 672 896 l 1
 560 896 l 1
 560 1008 l 1
 448 1008 l 1
 448 896 l 1
 560 896 l 1
 560 784 l 1
 672 784 l 1
 672 672 l 1
 560 672 l 1
 560 784 l 1
 448 784 l 1
 448 672 l 1
 560 672 l 1
 560 560 l 1
 672 560 l 1
 672 448 l 1
 560 448 l 1
 560 560 l 1
 448 560 l 1
 448 448 l 1
 560 448 l 1
 560 336 l 1
 672 336 l 1
 672 224 l 1
 560 224 l 1
 560 336 l 1
 448 336 l 1
 448 224 l 1
 560 224 l 1
 560 112 l 1
 672 112 l 1
 672 0 l 1
 560 0 l 1
 560 112 l 1
 448 112 l 1
 448 0 l 1
 560 0 l 1
 560 -112 l 1
 672 -112 l 1
 672 -224 l 1
 560 -224 l 1
 560 -112 l 1
 448 -112 l 1
 448 -224 l 1
 336 -224 l 1
 336 -112 l 1
 448 -112 l 1
 448 0 l 1
 336 0 l 1
 336 112 l 1
 448 112 l 1
EndSplineSet
EndChar

StartChar: uni1FB8E
Encoding: 129934 129934 391
Width: 672
GlyphClass: 1
Flags: W
LayerCount: 2
Fore
SplineSet
112 672 m 1
 112 784 l 1
 0 784 l 1
 0 896 l 1
 112 896 l 1
 112 1008 l 1
 0 1008 l 1
 0 1120 l 1
 112 1120 l 1
 112 1008 l 1
 224 1008 l 1
 224 1120 l 1
 336 1120 l 1
 336 1008 l 1
 448 1008 l 1
 448 1120 l 1
 560 1120 l 1
 560 1008 l 1
 672 1008 l 1
 672 896 l 1
 560 896 l 1
 560 1008 l 1
 448 1008 l 1
 448 896 l 1
 560 896 l 1
 560 784 l 1
 672 784 l 1
 672 672 l 1
 560 672 l 1
 560 784 l 1
 448 784 l 1
 448 672 l 1
 560 672 l 1
 560 560 l 1
 672 560 l 1
 672 448 l 1
 560 448 l 1
 560 560 l 1
 448 560 l 1
 448 448 l 1
 336 448 l 1
 336 560 l 1
 224 560 l 1
 224 448 l 1
 112 448 l 1
 112 560 l 1
 0 560 l 1
 0 672 l 1
 112 672 l 1
224 1008 m 1
 224 896 l 1
 336 896 l 1
 336 1008 l 1
 224 1008 l 1
112 896 m 1
 112 784 l 1
 224 784 l 1
 224 896 l 1
 112 896 l 1
336 896 m 1
 336 784 l 1
 448 784 l 1
 448 896 l 1
 336 896 l 1
224 784 m 1
 224 672 l 1
 336 672 l 1
 336 784 l 1
 224 784 l 1
112 672 m 1
 112 560 l 1
 224 560 l 1
 224 672 l 1
 112 672 l 1
336 672 m 1
 336 560 l 1
 448 560 l 1
 448 672 l 1
 336 672 l 1
EndSplineSet
EndChar

StartChar: uni1FB8F
Encoding: 129935 129935 392
Width: 672
GlyphClass: 1
Flags: W
LayerCount: 2
Fore
SplineSet
112 0 m 1
 112 112 l 1
 0 112 l 1
 0 224 l 1
 112 224 l 1
 112 336 l 1
 0 336 l 1
 0 448 l 1
 112 448 l 1
 112 336 l 1
 224 336 l 1
 224 448 l 1
 336 448 l 1
 336 336 l 1
 448 336 l 1
 448 448 l 1
 560 448 l 1
 560 336 l 1
 672 336 l 1
 672 224 l 1
 560 224 l 1
 560 336 l 1
 448 336 l 1
 448 224 l 1
 560 224 l 1
 560 112 l 1
 672 112 l 1
 672 0 l 1
 560 0 l 1
 560 112 l 1
 448 112 l 1
 448 0 l 1
 560 0 l 1
 560 -112 l 1
 672 -112 l 1
 672 -224 l 1
 560 -224 l 1
 560 -112 l 1
 448 -112 l 1
 448 -224 l 1
 336 -224 l 1
 336 -112 l 1
 224 -112 l 1
 224 -224 l 1
 112 -224 l 1
 112 -112 l 1
 0 -112 l 1
 0 0 l 1
 112 0 l 1
224 336 m 1
 224 224 l 1
 336 224 l 1
 336 336 l 1
 224 336 l 1
112 224 m 1
 112 112 l 1
 224 112 l 1
 224 224 l 1
 112 224 l 1
336 224 m 1
 336 112 l 1
 448 112 l 1
 448 224 l 1
 336 224 l 1
224 112 m 1
 224 0 l 1
 336 0 l 1
 336 112 l 1
 224 112 l 1
112 0 m 1
 112 -112 l 1
 224 -112 l 1
 224 0 l 1
 112 0 l 1
336 0 m 1
 336 -112 l 1
 448 -112 l 1
 448 0 l 1
 336 0 l 1
EndSplineSet
EndChar

StartChar: uni1FB90
Encoding: 129936 129936 393
Width: 672
GlyphClass: 1
Flags: W
LayerCount: 2
Fore
SplineSet
672 1008 m 1
 560 1008 l 1
 560 1120 l 1
 672 1120 l 1
 672 1008 l 1
112 112 m 1
 112 224 l 1
 0 224 l 1
 0 336 l 1
 112 336 l 1
 112 448 l 1
 0 448 l 1
 0 560 l 1
 112 560 l 1
 112 672 l 1
 0 672 l 1
 0 784 l 1
 112 784 l 1
 112 896 l 1
 0 896 l 1
 0 1008 l 1
 112 1008 l 1
 112 1120 l 1
 224 1120 l 1
 224 1008 l 1
 336 1008 l 1
 336 1120 l 1
 448 1120 l 1
 448 1008 l 1
 560 1008 l 1
 560 896 l 1
 672 896 l 1
 672 784 l 1
 560 784 l 1
 560 896 l 1
 448 896 l 1
 448 784 l 1
 560 784 l 1
 560 672 l 1
 672 672 l 1
 672 560 l 1
 560 560 l 1
 560 672 l 1
 448 672 l 1
 448 560 l 1
 560 560 l 1
 560 448 l 1
 672 448 l 1
 672 336 l 1
 560 336 l 1
 560 448 l 1
 448 448 l 1
 448 336 l 1
 560 336 l 1
 560 224 l 1
 672 224 l 1
 672 112 l 1
 560 112 l 1
 560 224 l 1
 448 224 l 1
 448 112 l 1
 560 112 l 1
 560 0 l 1
 672 0 l 1
 672 -112 l 1
 560 -112 l 1
 560 0 l 1
 448 0 l 1
 448 -112 l 1
 560 -112 l 1
 560 -224 l 1
 448 -224 l 1
 448 -112 l 1
 336 -112 l 1
 336 -224 l 1
 224 -224 l 1
 224 -112 l 1
 112 -112 l 1
 112 -224 l 1
 0 -224 l 1
 0 -112 l 1
 112 -112 l 1
 112 0 l 1
 0 0 l 1
 0 112 l 1
 112 112 l 1
112 1008 m 1
 112 896 l 1
 224 896 l 1
 224 1008 l 1
 112 1008 l 1
336 1008 m 1
 336 896 l 1
 448 896 l 1
 448 1008 l 1
 336 1008 l 1
224 896 m 1
 224 784 l 1
 336 784 l 1
 336 896 l 1
 224 896 l 1
112 784 m 1
 112 672 l 1
 224 672 l 1
 224 784 l 1
 112 784 l 1
336 784 m 1
 336 672 l 1
 448 672 l 1
 448 784 l 1
 336 784 l 1
224 672 m 1
 224 560 l 1
 336 560 l 1
 336 672 l 1
 224 672 l 1
112 560 m 1
 112 448 l 1
 224 448 l 1
 224 560 l 1
 112 560 l 1
336 560 m 1
 336 448 l 1
 448 448 l 1
 448 560 l 1
 336 560 l 1
224 448 m 1
 224 336 l 1
 336 336 l 1
 336 448 l 1
 224 448 l 1
112 336 m 1
 112 224 l 1
 224 224 l 1
 224 336 l 1
 112 336 l 1
336 336 m 1
 336 224 l 1
 448 224 l 1
 448 336 l 1
 336 336 l 1
224 224 m 1
 224 112 l 1
 336 112 l 1
 336 224 l 1
 224 224 l 1
112 112 m 1
 112 0 l 1
 224 0 l 1
 224 112 l 1
 112 112 l 1
336 112 m 1
 336 0 l 1
 448 0 l 1
 448 112 l 1
 336 112 l 1
224 0 m 1
 224 -112 l 1
 336 -112 l 1
 336 0 l 1
 224 0 l 1
EndSplineSet
EndChar

StartChar: uni1FB91
Encoding: 129937 129937 394
Width: 672
GlyphClass: 1
Flags: W
LayerCount: 2
Fore
SplineSet
112 112 m 1
 112 224 l 1
 0 224 l 1
 0 336 l 1
 112 336 l 1
 112 448 l 1
 0 448 l 1
 0 1120 l 1
 672 1120 l 1
 672 336 l 1
 560 336 l 1
 560 448 l 1
 448 448 l 1
 448 336 l 1
 560 336 l 1
 560 224 l 1
 672 224 l 1
 672 112 l 1
 560 112 l 1
 560 224 l 1
 448 224 l 1
 448 112 l 1
 560 112 l 1
 560 0 l 1
 672 0 l 1
 672 -112 l 1
 560 -112 l 1
 560 0 l 1
 448 0 l 1
 448 -112 l 1
 560 -112 l 1
 560 -224 l 1
 448 -224 l 1
 448 -112 l 1
 336 -112 l 1
 336 -224 l 1
 224 -224 l 1
 224 -112 l 1
 112 -112 l 1
 112 -224 l 1
 0 -224 l 1
 0 -112 l 1
 112 -112 l 1
 112 0 l 1
 0 0 l 1
 0 112 l 1
 112 112 l 1
224 448 m 1
 224 336 l 1
 336 336 l 1
 336 448 l 1
 224 448 l 1
112 336 m 1
 112 224 l 1
 224 224 l 1
 224 336 l 1
 112 336 l 1
336 336 m 1
 336 224 l 1
 448 224 l 1
 448 336 l 1
 336 336 l 1
224 224 m 1
 224 112 l 1
 336 112 l 1
 336 224 l 1
 224 224 l 1
112 112 m 1
 112 0 l 1
 224 0 l 1
 224 112 l 1
 112 112 l 1
336 112 m 1
 336 0 l 1
 448 0 l 1
 448 112 l 1
 336 112 l 1
224 0 m 1
 224 -112 l 1
 336 -112 l 1
 336 0 l 1
 224 0 l 1
EndSplineSet
EndChar

StartChar: uni1FB92
Encoding: 129938 129938 395
Width: 672
GlyphClass: 1
Flags: W
LayerCount: 2
Fore
SplineSet
672 1008 m 1
 560 1008 l 1
 560 1120 l 1
 672 1120 l 1
 672 1008 l 1
112 560 m 1
 112 672 l 1
 0 672 l 1
 0 784 l 1
 112 784 l 1
 112 896 l 1
 0 896 l 1
 0 1008 l 1
 112 1008 l 1
 112 1120 l 1
 224 1120 l 1
 224 1008 l 1
 336 1008 l 1
 336 1120 l 1
 448 1120 l 1
 448 1008 l 1
 560 1008 l 1
 560 896 l 1
 672 896 l 1
 672 784 l 1
 560 784 l 1
 560 896 l 1
 448 896 l 1
 448 784 l 1
 560 784 l 1
 560 672 l 1
 672 672 l 1
 672 560 l 1
 560 560 l 1
 560 672 l 1
 448 672 l 1
 448 560 l 1
 560 560 l 1
 560 448 l 1
 672 448 l 1
 672 -224 l 1
 0 -224 l 1
 0 560 l 1
 112 560 l 1
112 1008 m 1
 112 896 l 1
 224 896 l 1
 224 1008 l 1
 112 1008 l 1
336 1008 m 1
 336 896 l 1
 448 896 l 1
 448 1008 l 1
 336 1008 l 1
224 896 m 1
 224 784 l 1
 336 784 l 1
 336 896 l 1
 224 896 l 1
112 784 m 1
 112 672 l 1
 224 672 l 1
 224 784 l 1
 112 784 l 1
336 784 m 1
 336 672 l 1
 448 672 l 1
 448 784 l 1
 336 784 l 1
224 672 m 1
 224 560 l 1
 336 560 l 1
 336 672 l 1
 224 672 l 1
112 560 m 1
 112 448 l 1
 224 448 l 1
 224 560 l 1
 112 560 l 1
336 560 m 1
 336 448 l 1
 448 448 l 1
 448 560 l 1
 336 560 l 1
EndSplineSet
EndChar

StartChar: uni1FB94
Encoding: 129940 129940 396
Width: 672
GlyphClass: 1
Flags: W
LayerCount: 2
Fore
SplineSet
112 112 m 1
 112 224 l 1
 0 224 l 1
 0 336 l 1
 112 336 l 1
 112 448 l 1
 0 448 l 1
 0 560 l 1
 112 560 l 1
 112 672 l 1
 0 672 l 1
 0 784 l 1
 112 784 l 1
 112 896 l 1
 0 896 l 1
 0 1008 l 1
 112 1008 l 1
 112 1120 l 1
 224 1120 l 1
 224 1008 l 1
 336 1008 l 1
 336 1120 l 1
 672 1120 l 1
 672 -224 l 1
 224 -224 l 1
 224 -112 l 1
 112 -112 l 1
 112 -224 l 1
 0 -224 l 1
 0 -112 l 1
 112 -112 l 1
 112 0 l 1
 0 0 l 1
 0 112 l 1
 112 112 l 1
112 1008 m 1
 112 896 l 1
 224 896 l 1
 224 1008 l 1
 112 1008 l 1
224 896 m 1
 224 784 l 1
 336 784 l 1
 336 896 l 1
 224 896 l 1
112 784 m 1
 112 672 l 1
 224 672 l 1
 224 784 l 1
 112 784 l 1
224 672 m 1
 224 560 l 1
 336 560 l 1
 336 672 l 1
 224 672 l 1
112 560 m 1
 112 448 l 1
 224 448 l 1
 224 560 l 1
 112 560 l 1
224 448 m 1
 224 336 l 1
 336 336 l 1
 336 448 l 1
 224 448 l 1
112 336 m 1
 112 224 l 1
 224 224 l 1
 224 336 l 1
 112 336 l 1
224 224 m 1
 224 112 l 1
 336 112 l 1
 336 224 l 1
 224 224 l 1
112 112 m 1
 112 0 l 1
 224 0 l 1
 224 112 l 1
 112 112 l 1
224 0 m 1
 224 -112 l 1
 336 -112 l 1
 336 0 l 1
 224 0 l 1
EndSplineSet
EndChar

StartChar: uni1FB95
Encoding: 129941 129941 397
Width: 672
GlyphClass: 1
Flags: W
LayerCount: 2
Fore
SplineSet
112 448 m 1
 112 784 l 1
 0 784 l 1
 0 1120 l 1
 112 1120 l 1
 112 784 l 1
 224 784 l 1
 224 1120 l 1
 336 1120 l 1
 336 784 l 1
 448 784 l 1
 448 1120 l 1
 560 1120 l 1
 560 784 l 1
 672 784 l 1
 672 448 l 1
 560 448 l 1
 560 784 l 1
 448 784 l 1
 448 448 l 1
 560 448 l 1
 560 112 l 1
 672 112 l 1
 672 -224 l 1
 560 -224 l 1
 560 112 l 1
 448 112 l 1
 448 -224 l 1
 336 -224 l 1
 336 112 l 1
 224 112 l 1
 224 -224 l 1
 112 -224 l 1
 112 112 l 1
 0 112 l 1
 0 448 l 1
 112 448 l 1
336 448 m 1
 336 784 l 1
 224 784 l 1
 224 448 l 1
 336 448 l 1
112 448 m 1
 112 112 l 1
 224 112 l 1
 224 448 l 1
 112 448 l 1
336 448 m 1
 336 112 l 1
 448 112 l 1
 448 448 l 1
 336 448 l 1
EndSplineSet
EndChar

StartChar: uni1FB96
Encoding: 129942 129942 398
Width: 672
GlyphClass: 1
Flags: W
LayerCount: 2
Fore
SplineSet
672 784 m 1
 560 784 l 1
 560 1120 l 1
 672 1120 l 1
 672 784 l 1
448 448 m 1
 448 112 l 1
 560 112 l 1
 560 -224 l 1
 448 -224 l 1
 448 112 l 1
 336 112 l 1
 336 -224 l 1
 224 -224 l 1
 224 112 l 1
 112 112 l 1
 112 -224 l 1
 0 -224 l 1
 0 112 l 1
 112 112 l 1
 112 448 l 1
 0 448 l 1
 0 784 l 1
 112 784 l 1
 112 1120 l 1
 224 1120 l 1
 224 784 l 1
 336 784 l 1
 336 1120 l 1
 448 1120 l 1
 448 784 l 1
 560 784 l 1
 560 448 l 1
 672 448 l 1
 672 112 l 1
 560 112 l 1
 560 448 l 1
 448 448 l 1
224 448 m 1
 224 784 l 1
 112 784 l 1
 112 448 l 1
 224 448 l 1
448 448 m 1
 448 784 l 1
 336 784 l 1
 336 448 l 1
 448 448 l 1
224 448 m 1
 224 112 l 1
 336 112 l 1
 336 448 l 1
 224 448 l 1
EndSplineSet
EndChar

StartChar: uni1FB97
Encoding: 129943 129943 399
Width: 672
GlyphClass: 1
Flags: W
LayerCount: 2
Fore
SplineSet
0 784 m 1
 672 784 l 1
 672 448 l 1
 0 448 l 1
 0 784 l 1
0 112 m 1
 672 112 l 1
 672 -224 l 1
 0 -224 l 1
 0 112 l 1
EndSplineSet
EndChar

StartChar: uni1FB98
Encoding: 129944 129944 400
Width: 672
GlyphClass: 1
Flags: W
LayerCount: 2
Fore
SplineSet
224 1120 m 1
 336 1120 l 1
 336 1008 l 1
 448 1008 l 1
 448 896 l 1
 560 896 l 1
 560 784 l 1
 672 784 l 1
 672 672 l 1
 560 672 l 1
 560 784 l 1
 448 784 l 1
 448 896 l 1
 336 896 l 1
 336 1008 l 1
 224 1008 l 1
 224 1120 l 1
560 1120 m 1
 672 1120 l 1
 672 1008 l 1
 560 1008 l 1
 560 1120 l 1
0 1008 m 1
 112 1008 l 1
 112 896 l 1
 224 896 l 1
 224 784 l 1
 336 784 l 1
 336 672 l 1
 448 672 l 1
 448 560 l 1
 560 560 l 1
 560 448 l 1
 672 448 l 1
 672 336 l 1
 560 336 l 1
 560 448 l 1
 448 448 l 1
 448 560 l 1
 336 560 l 1
 336 672 l 1
 224 672 l 1
 224 784 l 1
 112 784 l 1
 112 896 l 1
 0 896 l 1
 0 1008 l 1
0 672 m 1
 112 672 l 1
 112 560 l 1
 224 560 l 1
 224 448 l 1
 336 448 l 1
 336 336 l 1
 448 336 l 1
 448 224 l 1
 560 224 l 1
 560 112 l 1
 672 112 l 1
 672 0 l 1
 560 0 l 1
 560 112 l 1
 448 112 l 1
 448 224 l 1
 336 224 l 1
 336 336 l 1
 224 336 l 1
 224 448 l 1
 112 448 l 1
 112 560 l 1
 0 560 l 1
 0 672 l 1
0 336 m 1
 112 336 l 1
 112 224 l 1
 224 224 l 1
 224 112 l 1
 336 112 l 1
 336 0 l 1
 448 0 l 1
 448 -112 l 1
 560 -112 l 1
 560 -224 l 1
 448 -224 l 1
 448 -112 l 1
 336 -112 l 1
 336 0 l 1
 224 0 l 1
 224 112 l 1
 112 112 l 1
 112 224 l 1
 0 224 l 1
 0 336 l 1
0 0 m 1
 112 0 l 1
 112 -112 l 1
 224 -112 l 1
 224 -224 l 1
 112 -224 l 1
 112 -112 l 1
 0 -112 l 1
 0 0 l 1
EndSplineSet
EndChar

StartChar: uni1FB99
Encoding: 129945 129945 401
Width: 672
GlyphClass: 1
Flags: W
LayerCount: 2
Fore
SplineSet
0 1120 m 1
 112 1120 l 1
 112 1008 l 1
 0 1008 l 1
 0 1120 l 1
336 1120 m 1
 448 1120 l 1
 448 1008 l 1
 336 1008 l 1
 336 896 l 1
 224 896 l 1
 224 784 l 1
 112 784 l 1
 112 672 l 1
 0 672 l 1
 0 784 l 1
 112 784 l 1
 112 896 l 1
 224 896 l 1
 224 1008 l 1
 336 1008 l 1
 336 1120 l 1
560 1008 m 1
 672 1008 l 1
 672 896 l 1
 560 896 l 1
 560 784 l 1
 448 784 l 1
 448 672 l 1
 336 672 l 1
 336 560 l 1
 224 560 l 1
 224 448 l 1
 112 448 l 1
 112 336 l 1
 0 336 l 1
 0 448 l 1
 112 448 l 1
 112 560 l 1
 224 560 l 1
 224 672 l 1
 336 672 l 1
 336 784 l 1
 448 784 l 1
 448 896 l 1
 560 896 l 1
 560 1008 l 1
560 672 m 1
 672 672 l 1
 672 560 l 1
 560 560 l 1
 560 448 l 1
 448 448 l 1
 448 336 l 1
 336 336 l 1
 336 224 l 1
 224 224 l 1
 224 112 l 1
 112 112 l 1
 112 0 l 1
 0 0 l 1
 0 112 l 1
 112 112 l 1
 112 224 l 1
 224 224 l 1
 224 336 l 1
 336 336 l 1
 336 448 l 1
 448 448 l 1
 448 560 l 1
 560 560 l 1
 560 672 l 1
560 336 m 1
 672 336 l 1
 672 224 l 1
 560 224 l 1
 560 112 l 1
 448 112 l 1
 448 0 l 1
 336 0 l 1
 336 -112 l 1
 224 -112 l 1
 224 -224 l 1
 112 -224 l 1
 112 -112 l 1
 224 -112 l 1
 224 0 l 1
 336 0 l 1
 336 112 l 1
 448 112 l 1
 448 224 l 1
 560 224 l 1
 560 336 l 1
560 0 m 1
 672 0 l 1
 672 -112 l 1
 560 -112 l 1
 560 -224 l 1
 448 -224 l 1
 448 -112 l 1
 560 -112 l 1
 560 0 l 1
EndSplineSet
EndChar

StartChar: uni1FB9A
Encoding: 129946 129946 402
Width: 672
GlyphClass: 1
Flags: W
LayerCount: 2
Fore
SplineSet
0 1120 m 1
 672 1120 l 1
 672 1008 l 1
 560 1008 l 1
 560 784 l 1
 448 784 l 1
 448 112 l 1
 560 112 l 1
 560 -112 l 1
 672 -112 l 1
 672 -224 l 1
 0 -224 l 1
 0 -112 l 1
 112 -112 l 1
 112 112 l 1
 224 112 l 1
 224 784 l 1
 112 784 l 1
 112 1008 l 1
 0 1008 l 1
 0 1120 l 1
EndSplineSet
EndChar

StartChar: uni1FB9B
Encoding: 129947 129947 403
Width: 672
GlyphClass: 1
Flags: W
LayerCount: 2
Fore
SplineSet
0 1008 m 1
 112 1008 l 1
 112 784 l 1
 224 784 l 1
 224 560 l 1
 448 560 l 1
 448 784 l 1
 560 784 l 1
 560 1008 l 1
 672 1008 l 1
 672 -112 l 1
 560 -112 l 1
 560 112 l 1
 448 112 l 1
 448 336 l 1
 224 336 l 1
 224 112 l 1
 112 112 l 1
 112 -112 l 1
 0 -112 l 1
 0 1008 l 1
EndSplineSet
EndChar

StartChar: uni1FB9C
Encoding: 129948 129948 404
Width: 672
GlyphClass: 1
Flags: W
LayerCount: 2
Fore
SplineSet
112 448 m 1
 112 560 l 1
 0 560 l 1
 0 672 l 1
 112 672 l 1
 112 784 l 1
 0 784 l 1
 0 896 l 1
 112 896 l 1
 112 1008 l 1
 0 1008 l 1
 0 1120 l 1
 112 1120 l 1
 112 1008 l 1
 224 1008 l 1
 224 1120 l 1
 336 1120 l 1
 336 1008 l 1
 448 1008 l 1
 448 1120 l 1
 560 1120 l 1
 560 1008 l 1
 672 1008 l 1
 672 896 l 1
 560 896 l 1
 560 1008 l 1
 448 1008 l 1
 448 896 l 1
 560 896 l 1
 560 784 l 1
 448 784 l 1
 448 896 l 1
 336 896 l 1
 336 784 l 1
 448 784 l 1
 448 672 l 1
 336 672 l 1
 336 784 l 1
 224 784 l 1
 224 672 l 1
 336 672 l 1
 336 560 l 1
 448 560 l 1
 448 448 l 1
 336 448 l 1
 336 560 l 1
 224 560 l 1
 224 448 l 1
 336 448 l 1
 336 336 l 1
 224 336 l 1
 224 448 l 1
 112 448 l 1
 112 336 l 1
 224 336 l 1
 224 224 l 1
 112 224 l 1
 112 112 l 1
 224 112 l 1
 224 0 l 1
 112 0 l 1
 112 -112 l 1
 0 -112 l 1
 0 0 l 1
 112 0 l 1
 112 112 l 1
 0 112 l 1
 0 224 l 1
 112 224 l 1
 112 336 l 1
 0 336 l 1
 0 448 l 1
 112 448 l 1
224 1008 m 1
 224 896 l 1
 336 896 l 1
 336 1008 l 1
 224 1008 l 1
112 896 m 1
 112 784 l 1
 224 784 l 1
 224 896 l 1
 112 896 l 1
112 672 m 1
 112 560 l 1
 224 560 l 1
 224 672 l 1
 112 672 l 1
EndSplineSet
EndChar

StartChar: uni1FB9D
Encoding: 129949 129949 405
Width: 672
GlyphClass: 1
Flags: W
LayerCount: 2
Fore
SplineSet
448 336 m 1
 448 448 l 1
 336 448 l 1
 336 560 l 1
 224 560 l 1
 224 672 l 1
 112 672 l 1
 112 784 l 1
 0 784 l 1
 0 896 l 1
 112 896 l 1
 112 1008 l 1
 0 1008 l 1
 0 1120 l 1
 112 1120 l 1
 112 1008 l 1
 224 1008 l 1
 224 1120 l 1
 336 1120 l 1
 336 1008 l 1
 448 1008 l 1
 448 1120 l 1
 560 1120 l 1
 560 1008 l 1
 672 1008 l 1
 672 896 l 1
 560 896 l 1
 560 1008 l 1
 448 1008 l 1
 448 896 l 1
 560 896 l 1
 560 784 l 1
 672 784 l 1
 672 672 l 1
 560 672 l 1
 560 784 l 1
 448 784 l 1
 448 672 l 1
 560 672 l 1
 560 560 l 1
 672 560 l 1
 672 448 l 1
 560 448 l 1
 560 560 l 1
 448 560 l 1
 448 448 l 1
 560 448 l 1
 560 336 l 1
 672 336 l 1
 672 224 l 1
 560 224 l 1
 560 336 l 1
 448 336 l 1
 448 224 l 1
 560 224 l 1
 560 112 l 1
 672 112 l 1
 672 0 l 1
 560 0 l 1
 560 112 l 1
 448 112 l 1
 448 224 l 1
 336 224 l 1
 336 336 l 1
 448 336 l 1
224 1008 m 1
 224 896 l 1
 336 896 l 1
 336 1008 l 1
 224 1008 l 1
112 896 m 1
 112 784 l 1
 224 784 l 1
 224 896 l 1
 112 896 l 1
336 896 m 1
 336 784 l 1
 448 784 l 1
 448 896 l 1
 336 896 l 1
224 784 m 1
 224 672 l 1
 336 672 l 1
 336 784 l 1
 224 784 l 1
336 672 m 1
 336 560 l 1
 448 560 l 1
 448 672 l 1
 336 672 l 1
560 -112 m 1
 672 -112 l 1
 672 -224 l 1
 560 -224 l 1
 560 -112 l 1
EndSplineSet
EndChar

StartChar: uni1FB9E
Encoding: 129950 129950 406
Width: 672
GlyphClass: 1
Flags: W
LayerCount: 2
Fore
SplineSet
112 0 m 1
 112 112 l 1
 224 112 l 1
 224 224 l 1
 336 224 l 1
 336 336 l 1
 224 336 l 1
 224 448 l 1
 336 448 l 1
 336 560 l 1
 448 560 l 1
 448 672 l 1
 560 672 l 1
 560 784 l 1
 448 784 l 1
 448 896 l 1
 560 896 l 1
 560 1008 l 1
 672 1008 l 1
 672 896 l 1
 560 896 l 1
 560 784 l 1
 672 784 l 1
 672 672 l 1
 560 672 l 1
 560 560 l 1
 672 560 l 1
 672 448 l 1
 560 448 l 1
 560 560 l 1
 448 560 l 1
 448 448 l 1
 560 448 l 1
 560 336 l 1
 672 336 l 1
 672 224 l 1
 560 224 l 1
 560 336 l 1
 448 336 l 1
 448 224 l 1
 560 224 l 1
 560 112 l 1
 672 112 l 1
 672 0 l 1
 560 0 l 1
 560 112 l 1
 448 112 l 1
 448 0 l 1
 560 0 l 1
 560 -112 l 1
 672 -112 l 1
 672 -224 l 1
 560 -224 l 1
 560 -112 l 1
 448 -112 l 1
 448 -224 l 1
 336 -224 l 1
 336 -112 l 1
 224 -112 l 1
 224 -224 l 1
 112 -224 l 1
 112 -112 l 1
 0 -112 l 1
 0 0 l 1
 112 0 l 1
336 448 m 1
 336 336 l 1
 448 336 l 1
 448 448 l 1
 336 448 l 1
336 224 m 1
 336 112 l 1
 448 112 l 1
 448 224 l 1
 336 224 l 1
224 112 m 1
 224 0 l 1
 336 0 l 1
 336 112 l 1
 224 112 l 1
112 0 m 1
 112 -112 l 1
 224 -112 l 1
 224 0 l 1
 112 0 l 1
336 0 m 1
 336 -112 l 1
 448 -112 l 1
 448 0 l 1
 336 0 l 1
EndSplineSet
EndChar

StartChar: uni1FB9F
Encoding: 129951 129951 407
Width: 672
GlyphClass: 1
Flags: W
LayerCount: 2
Fore
SplineSet
0 1120 m 1
 112 1120 l 1
 112 1008 l 1
 0 1008 l 1
 0 1120 l 1
112 0 m 1
 112 112 l 1
 0 112 l 1
 0 224 l 1
 112 224 l 1
 112 336 l 1
 0 336 l 1
 0 448 l 1
 112 448 l 1
 112 560 l 1
 0 560 l 1
 0 672 l 1
 112 672 l 1
 112 784 l 1
 0 784 l 1
 0 896 l 1
 112 896 l 1
 112 784 l 1
 224 784 l 1
 224 672 l 1
 336 672 l 1
 336 560 l 1
 224 560 l 1
 224 672 l 1
 112 672 l 1
 112 560 l 1
 224 560 l 1
 224 448 l 1
 336 448 l 1
 336 336 l 1
 448 336 l 1
 448 224 l 1
 560 224 l 1
 560 112 l 1
 672 112 l 1
 672 0 l 1
 560 0 l 1
 560 112 l 1
 448 112 l 1
 448 0 l 1
 560 0 l 1
 560 -112 l 1
 672 -112 l 1
 672 -224 l 1
 560 -224 l 1
 560 -112 l 1
 448 -112 l 1
 448 -224 l 1
 336 -224 l 1
 336 -112 l 1
 224 -112 l 1
 224 -224 l 1
 112 -224 l 1
 112 -112 l 1
 0 -112 l 1
 0 0 l 1
 112 0 l 1
112 448 m 1
 112 336 l 1
 224 336 l 1
 224 448 l 1
 112 448 l 1
224 336 m 1
 224 224 l 1
 336 224 l 1
 336 336 l 1
 224 336 l 1
112 224 m 1
 112 112 l 1
 224 112 l 1
 224 224 l 1
 112 224 l 1
336 224 m 1
 336 112 l 1
 448 112 l 1
 448 224 l 1
 336 224 l 1
224 112 m 1
 224 0 l 1
 336 0 l 1
 336 112 l 1
 224 112 l 1
112 0 m 1
 112 -112 l 1
 224 -112 l 1
 224 0 l 1
 112 0 l 1
336 0 m 1
 336 -112 l 1
 448 -112 l 1
 448 0 l 1
 336 0 l 1
EndSplineSet
EndChar

StartChar: uni1FBA0
Encoding: 129952 129952 408
Width: 672
GlyphClass: 1
Flags: W
LayerCount: 2
Fore
SplineSet
224 1120 m 1
 336 1120 l 1
 336 896 l 1
 224 896 l 1
 224 672 l 1
 112 672 l 1
 112 448 l 1
 0 448 l 1
 0 672 l 1
 112 672 l 1
 112 896 l 1
 224 896 l 1
 224 1120 l 1
EndSplineSet
EndChar

StartChar: uni1FBA1
Encoding: 129953 129953 409
Width: 672
GlyphClass: 1
Flags: W
LayerCount: 2
Fore
SplineSet
336 1120 m 1
 448 1120 l 1
 448 896 l 1
 560 896 l 1
 560 672 l 1
 672 672 l 1
 672 448 l 1
 560 448 l 1
 560 672 l 1
 448 672 l 1
 448 896 l 1
 336 896 l 1
 336 1120 l 1
EndSplineSet
EndChar

StartChar: uni1FBA2
Encoding: 129954 129954 410
Width: 672
GlyphClass: 1
Flags: W
LayerCount: 2
Fore
SplineSet
0 448 m 1
 112 448 l 1
 112 224 l 1
 224 224 l 1
 224 0 l 1
 336 0 l 1
 336 -224 l 1
 224 -224 l 1
 224 0 l 1
 112 0 l 1
 112 224 l 1
 0 224 l 1
 0 448 l 1
EndSplineSet
EndChar

StartChar: uni1FBA3
Encoding: 129955 129955 411
Width: 672
GlyphClass: 1
Flags: W
LayerCount: 2
Fore
SplineSet
560 448 m 1
 672 448 l 1
 672 224 l 1
 560 224 l 1
 560 0 l 1
 448 0 l 1
 448 -224 l 1
 336 -224 l 1
 336 0 l 1
 448 0 l 1
 448 224 l 1
 560 224 l 1
 560 448 l 1
EndSplineSet
EndChar

StartChar: uni1FBA4
Encoding: 129956 129956 412
Width: 672
GlyphClass: 1
Flags: W
LayerCount: 2
Fore
SplineSet
224 1120 m 1
 336 1120 l 1
 336 896 l 1
 224 896 l 1
 224 672 l 1
 112 672 l 1
 112 224 l 1
 224 224 l 1
 224 0 l 1
 336 0 l 1
 336 -224 l 1
 224 -224 l 1
 224 0 l 1
 112 0 l 1
 112 224 l 1
 0 224 l 1
 0 672 l 1
 112 672 l 1
 112 896 l 1
 224 896 l 1
 224 1120 l 1
EndSplineSet
EndChar

StartChar: uni1FBA5
Encoding: 129957 129957 413
Width: 672
GlyphClass: 1
Flags: W
LayerCount: 2
Fore
SplineSet
336 1120 m 1
 448 1120 l 1
 448 896 l 1
 560 896 l 1
 560 672 l 1
 672 672 l 1
 672 224 l 1
 560 224 l 1
 560 0 l 1
 448 0 l 1
 448 -224 l 1
 336 -224 l 1
 336 0 l 1
 448 0 l 1
 448 224 l 1
 560 224 l 1
 560 672 l 1
 448 672 l 1
 448 896 l 1
 336 896 l 1
 336 1120 l 1
EndSplineSet
EndChar

StartChar: uni1FBA6
Encoding: 129958 129958 414
Width: 672
GlyphClass: 1
Flags: W
LayerCount: 2
Fore
SplineSet
560 0 m 1
 448 0 l 1
 448 224 l 1
 560 224 l 1
 560 448 l 1
 672 448 l 1
 672 224 l 1
 560 224 l 1
 560 0 l 1
0 448 m 1
 112 448 l 1
 112 224 l 1
 224 224 l 1
 224 0 l 1
 448 0 l 1
 448 -224 l 1
 224 -224 l 1
 224 0 l 1
 112 0 l 1
 112 224 l 1
 0 224 l 1
 0 448 l 1
EndSplineSet
EndChar

StartChar: uni1FBA7
Encoding: 129959 129959 415
Width: 672
GlyphClass: 1
Flags: W
LayerCount: 2
Fore
SplineSet
224 1120 m 1
 448 1120 l 1
 448 896 l 1
 560 896 l 1
 560 672 l 1
 672 672 l 1
 672 448 l 1
 560 448 l 1
 560 672 l 1
 448 672 l 1
 448 896 l 1
 224 896 l 1
 224 672 l 1
 112 672 l 1
 112 448 l 1
 0 448 l 1
 0 672 l 1
 112 672 l 1
 112 896 l 1
 224 896 l 1
 224 1120 l 1
EndSplineSet
EndChar

StartChar: uni1FBA8
Encoding: 129960 129960 416
Width: 672
GlyphClass: 1
Flags: W
LayerCount: 2
Fore
SplineSet
224 1120 m 1
 336 1120 l 1
 336 896 l 1
 224 896 l 1
 224 672 l 1
 112 672 l 1
 112 448 l 1
 0 448 l 1
 0 672 l 1
 112 672 l 1
 112 896 l 1
 224 896 l 1
 224 1120 l 1
560 448 m 1
 672 448 l 1
 672 224 l 1
 560 224 l 1
 560 0 l 1
 448 0 l 1
 448 -224 l 1
 336 -224 l 1
 336 0 l 1
 448 0 l 1
 448 224 l 1
 560 224 l 1
 560 448 l 1
EndSplineSet
EndChar

StartChar: uni1FBA9
Encoding: 129961 129961 417
Width: 672
GlyphClass: 1
Flags: W
LayerCount: 2
Fore
SplineSet
336 1120 m 1
 448 1120 l 1
 448 896 l 1
 560 896 l 1
 560 672 l 1
 672 672 l 1
 672 448 l 1
 560 448 l 1
 560 672 l 1
 448 672 l 1
 448 896 l 1
 336 896 l 1
 336 1120 l 1
0 448 m 1
 112 448 l 1
 112 224 l 1
 224 224 l 1
 224 0 l 1
 336 0 l 1
 336 -224 l 1
 224 -224 l 1
 224 0 l 1
 112 0 l 1
 112 224 l 1
 0 224 l 1
 0 448 l 1
EndSplineSet
EndChar

StartChar: uni1FBAA
Encoding: 129962 129962 418
Width: 672
GlyphClass: 1
Flags: W
LayerCount: 2
Fore
SplineSet
336 1120 m 1
 448 1120 l 1
 448 896 l 1
 560 896 l 1
 560 672 l 1
 672 672 l 1
 672 224 l 1
 560 224 l 1
 560 0 l 1
 448 0 l 1
 448 224 l 1
 560 224 l 1
 560 672 l 1
 448 672 l 1
 448 896 l 1
 336 896 l 1
 336 1120 l 1
448 0 m 1
 448 -224 l 1
 224 -224 l 1
 224 0 l 1
 112 0 l 1
 112 224 l 1
 0 224 l 1
 0 448 l 1
 112 448 l 1
 112 224 l 1
 224 224 l 1
 224 0 l 1
 448 0 l 1
EndSplineSet
EndChar

StartChar: uni1FBAB
Encoding: 129963 129963 419
Width: 672
GlyphClass: 1
Flags: W
LayerCount: 2
Fore
SplineSet
224 1120 m 1
 336 1120 l 1
 336 896 l 1
 224 896 l 1
 224 672 l 1
 112 672 l 1
 112 224 l 1
 224 224 l 1
 224 0 l 1
 448 0 l 1
 448 -224 l 1
 224 -224 l 1
 224 0 l 1
 112 0 l 1
 112 224 l 1
 0 224 l 1
 0 672 l 1
 112 672 l 1
 112 896 l 1
 224 896 l 1
 224 1120 l 1
560 0 m 1
 448 0 l 1
 448 224 l 1
 560 224 l 1
 560 448 l 1
 672 448 l 1
 672 224 l 1
 560 224 l 1
 560 0 l 1
EndSplineSet
EndChar

StartChar: uni1FBAC
Encoding: 129964 129964 420
Width: 672
GlyphClass: 1
Flags: W
LayerCount: 2
Fore
SplineSet
224 1120 m 1
 448 1120 l 1
 448 896 l 1
 560 896 l 1
 560 672 l 1
 672 672 l 1
 672 224 l 1
 560 224 l 1
 560 0 l 1
 448 0 l 1
 448 -224 l 1
 336 -224 l 1
 336 0 l 1
 448 0 l 1
 448 224 l 1
 560 224 l 1
 560 672 l 1
 448 672 l 1
 448 896 l 1
 224 896 l 1
 224 672 l 1
 112 672 l 1
 112 448 l 1
 0 448 l 1
 0 672 l 1
 112 672 l 1
 112 896 l 1
 224 896 l 1
 224 1120 l 1
EndSplineSet
EndChar

StartChar: uni1FBAD
Encoding: 129965 129965 421
Width: 672
GlyphClass: 1
Flags: W
LayerCount: 2
Fore
SplineSet
224 1120 m 1
 448 1120 l 1
 448 896 l 1
 560 896 l 1
 560 672 l 1
 672 672 l 1
 672 336 l 1
 560 336 l 1
 560 672 l 1
 448 672 l 1
 448 896 l 1
 224 896 l 1
 224 672 l 1
 112 672 l 1
 112 224 l 1
 224 224 l 1
 224 0 l 1
 336 0 l 1
 336 -224 l 1
 224 -224 l 1
 224 0 l 1
 112 0 l 1
 112 224 l 1
 0 224 l 1
 0 672 l 1
 112 672 l 1
 112 896 l 1
 224 896 l 1
 224 1120 l 1
EndSplineSet
EndChar

StartChar: uni1FBAE
Encoding: 129966 129966 422
Width: 672
GlyphClass: 1
Flags: W
LayerCount: 2
Fore
SplineSet
224 896 m 1
 224 1120 l 1
 448 1120 l 1
 448 896 l 1
 560 896 l 1
 560 672 l 1
 672 672 l 1
 672 224 l 1
 560 224 l 1
 560 0 l 1
 448 0 l 1
 448 224 l 1
 560 224 l 1
 560 672 l 1
 448 672 l 1
 448 896 l 1
 224 896 l 1
 224 672 l 1
 112 672 l 1
 112 224 l 1
 224 224 l 1
 224 0 l 1
 448 0 l 1
 448 -224 l 1
 224 -224 l 1
 224 0 l 1
 112 0 l 1
 112 224 l 1
 0 224 l 1
 0 672 l 1
 112 672 l 1
 112 896 l 1
 224 896 l 1
EndSplineSet
EndChar

StartChar: uni1FBAF
Encoding: 129967 129967 423
Width: 672
GlyphClass: 1
Flags: W
LayerCount: 2
Fore
SplineSet
112 1120 m 1
 448 1120 l 1
 448 448 l 1
 672 448 l 1
 672 336 l 1
 448 336 l 1
 448 -224 l 1
 112 -224 l 1
 112 336 l 1
 0 336 l 1
 0 448 l 1
 112 448 l 1
 112 1120 l 1
EndSplineSet
EndChar

StartChar: uni1FBB0
Encoding: 129968 129968 424
Width: 672
GlyphClass: 1
Flags: W
LayerCount: 2
Fore
SplineSet
0 896 m 1
 112 896 l 1
 112 784 l 1
 224 784 l 1
 224 672 l 1
 336 672 l 1
 336 560 l 1
 448 560 l 1
 448 448 l 1
 560 448 l 1
 560 336 l 1
 672 336 l 1
 672 112 l 1
 560 112 l 1
 560 224 l 1
 336 224 l 1
 336 336 l 1
 224 336 l 1
 224 112 l 1
 112 112 l 1
 112 -112 l 1
 0 -112 l 1
 0 896 l 1
EndSplineSet
EndChar

StartChar: uni1FBB1
Encoding: 129969 129969 425
Width: 672
GlyphClass: 1
Flags: W
LayerCount: 2
Fore
SplineSet
0 1120 m 1
 672 1120 l 1
 672 -224 l 1
 0 -224 l 1
 0 1120 l 1
448 784 m 1
 448 560 l 1
 560 560 l 1
 560 784 l 1
 448 784 l 1
336 560 m 1
 336 336 l 1
 448 336 l 1
 448 560 l 1
 336 560 l 1
112 448 m 1
 112 336 l 1
 224 336 l 1
 224 448 l 1
 112 448 l 1
224 336 m 1
 224 112 l 1
 336 112 l 1
 336 336 l 1
 224 336 l 1
EndSplineSet
EndChar

StartChar: uni1FBB2
Encoding: 129970 129970 426
Width: 672
GlyphClass: 1
Flags: W
LayerCount: 2
Fore
SplineSet
336 1008 m 1
 560 1008 l 1
 560 784 l 1
 672 784 l 1
 672 336 l 1
 560 336 l 1
 560 112 l 1
 448 112 l 1
 448 0 l 1
 224 0 l 1
 224 -112 l 1
 112 -112 l 1
 112 112 l 1
 448 112 l 1
 448 448 l 1
 336 448 l 1
 336 560 l 1
 224 560 l 1
 224 336 l 1
 112 336 l 1
 112 560 l 1
 224 560 l 1
 224 672 l 1
 448 672 l 1
 448 784 l 1
 336 784 l 1
 336 1008 l 1
EndSplineSet
EndChar

StartChar: uni1FBB3
Encoding: 129971 129971 427
Width: 672
GlyphClass: 1
Flags: W
LayerCount: 2
Fore
SplineSet
224 784 m 1
 336 784 l 1
 336 672 l 1
 224 672 l 1
 224 560 l 1
 0 560 l 1
 0 672 l 1
 224 672 l 1
 224 784 l 1
0 448 m 1
 112 448 l 1
 112 224 l 1
 224 224 l 1
 224 112 l 1
 336 112 l 1
 336 0 l 1
 448 0 l 1
 448 -112 l 1
 224 -112 l 1
 224 112 l 1
 112 112 l 1
 112 224 l 1
 0 224 l 1
 0 448 l 1
EndSplineSet
EndChar

StartChar: uni1FBB4
Encoding: 129972 129972 428
Width: 672
GlyphClass: 1
Flags: W
LayerCount: 2
Fore
SplineSet
0 1120 m 1
 672 1120 l 1
 672 -224 l 1
 0 -224 l 1
 0 1120 l 1
448 784 m 1
 448 336 l 1
 336 336 l 1
 336 448 l 1
 224 448 l 1
 224 336 l 1
 112 336 l 1
 112 224 l 1
 224 224 l 1
 224 112 l 1
 336 112 l 1
 336 224 l 1
 560 224 l 1
 560 784 l 1
 448 784 l 1
EndSplineSet
EndChar

StartChar: uni1FBB5
Encoding: 129973 129973 429
Width: 672
GlyphClass: 1
Flags: W
LayerCount: 2
Fore
SplineSet
0 1120 m 1
 672 1120 l 1
 672 896 l 1
 0 896 l 1
 0 1120 l 1
336 672 m 1
 448 672 l 1
 448 448 l 1
 672 448 l 1
 672 336 l 1
 448 336 l 1
 448 112 l 1
 336 112 l 1
 336 224 l 1
 224 224 l 1
 224 336 l 1
 112 336 l 1
 112 448 l 1
 224 448 l 1
 224 560 l 1
 336 560 l 1
 336 672 l 1
0 0 m 1
 672 0 l 1
 672 -224 l 1
 0 -224 l 1
 0 0 l 1
EndSplineSet
EndChar

StartChar: uni1FBB6
Encoding: 129974 129974 430
Width: 672
GlyphClass: 1
Flags: W
LayerCount: 2
Fore
SplineSet
0 1120 m 1
 672 1120 l 1
 672 896 l 1
 0 896 l 1
 0 1120 l 1
224 672 m 1
 336 672 l 1
 336 560 l 1
 448 560 l 1
 448 448 l 1
 560 448 l 1
 560 336 l 1
 448 336 l 1
 448 224 l 1
 336 224 l 1
 336 112 l 1
 224 112 l 1
 224 336 l 1
 0 336 l 1
 0 448 l 1
 224 448 l 1
 224 672 l 1
0 0 m 1
 672 0 l 1
 672 -224 l 1
 0 -224 l 1
 0 0 l 1
EndSplineSet
EndChar

StartChar: uni1FBB7
Encoding: 129975 129975 431
Width: 672
GlyphClass: 1
Flags: W
LayerCount: 2
Fore
SplineSet
560 1120 m 1
 672 1120 l 1
 672 560 l 1
 560 560 l 1
 560 1120 l 1
224 784 m 1
 336 784 l 1
 336 448 l 1
 560 448 l 1
 560 336 l 1
 448 336 l 1
 448 224 l 1
 336 224 l 1
 336 112 l 1
 224 112 l 1
 224 224 l 1
 112 224 l 1
 112 336 l 1
 0 336 l 1
 0 448 l 1
 224 448 l 1
 224 784 l 1
560 224 m 1
 672 224 l 1
 672 -224 l 1
 560 -224 l 1
 560 224 l 1
EndSplineSet
EndChar

StartChar: uni1FBB8
Encoding: 129976 129976 432
Width: 672
GlyphClass: 1
Flags: W
LayerCount: 2
Fore
SplineSet
560 1120 m 1
 672 1120 l 1
 672 560 l 1
 560 560 l 1
 560 1120 l 1
224 672 m 1
 336 672 l 1
 336 560 l 1
 448 560 l 1
 448 448 l 1
 560 448 l 1
 560 336 l 1
 336 336 l 1
 336 0 l 1
 224 0 l 1
 224 336 l 1
 0 336 l 1
 0 448 l 1
 112 448 l 1
 112 560 l 1
 224 560 l 1
 224 672 l 1
560 224 m 1
 672 224 l 1
 672 -224 l 1
 560 -224 l 1
 560 224 l 1
EndSplineSet
EndChar

StartChar: uni1FBB9
Encoding: 129977 129977 433
Width: 672
GlyphClass: 1
Flags: W
LayerCount: 2
Fore
SplineSet
224 784 m 1
 672 784 l 1
 672 560 l 1
 224 560 l 1
 224 112 l 1
 672 112 l 1
 672 0 l 1
 112 0 l 1
 112 672 l 1
 224 672 l 1
 224 784 l 1
EndSplineSet
EndChar

StartChar: uni1FBBA
Encoding: 129978 129978 434
Width: 672
GlyphClass: 1
Flags: W
LayerCount: 2
Fore
SplineSet
0 672 m 1
 448 672 l 1
 448 0 l 1
 0 0 l 1
 0 112 l 1
 336 112 l 1
 336 560 l 1
 0 560 l 1
 0 672 l 1
EndSplineSet
EndChar

StartChar: uni1FBBB
Encoding: 129979 129979 435
Width: 672
GlyphClass: 1
Flags: W
LayerCount: 2
Fore
SplineSet
112 1120 m 1
 224 1120 l 1
 224 560 l 1
 0 560 l 1
 0 672 l 1
 112 672 l 1
 112 1120 l 1
448 1120 m 1
 560 1120 l 1
 560 672 l 1
 672 672 l 1
 672 560 l 1
 448 560 l 1
 448 1120 l 1
0 336 m 1
 224 336 l 1
 224 -224 l 1
 112 -224 l 1
 112 224 l 1
 0 224 l 1
 0 336 l 1
448 336 m 1
 672 336 l 1
 672 224 l 1
 560 224 l 1
 560 -224 l 1
 448 -224 l 1
 448 336 l 1
EndSplineSet
EndChar

StartChar: uni1FBBC
Encoding: 129980 129980 436
Width: 672
GlyphClass: 1
Flags: W
LayerCount: 2
Fore
SplineSet
0 1120 m 1
 672 1120 l 1
 672 -224 l 1
 0 -224 l 1
 0 -112 l 1
 560 -112 l 1
 560 1008 l 1
 0 1008 l 1
 0 1120 l 1
224 560 m 1
 448 560 l 1
 448 336 l 1
 224 336 l 1
 224 560 l 1
EndSplineSet
EndChar

StartChar: uni1FBBD
Encoding: 129981 129981 437
Width: 672
GlyphClass: 1
Flags: W
LayerCount: 2
Fore
SplineSet
448 224 m 1
 448 0 l 1
 560 0 l 1
 560 -224 l 1
 112 -224 l 1
 112 0 l 1
 0 0 l 1
 0 896 l 1
 112 896 l 1
 112 1120 l 1
 560 1120 l 1
 560 896 l 1
 672 896 l 1
 672 0 l 1
 560 0 l 1
 560 224 l 1
 448 224 l 1
224 672 m 1
 224 896 l 1
 112 896 l 1
 112 672 l 1
 224 672 l 1
448 896 m 1
 448 672 l 1
 560 672 l 1
 560 896 l 1
 448 896 l 1
448 224 m 1
 448 672 l 1
 224 672 l 1
 224 224 l 1
 448 224 l 1
112 224 m 1
 112 0 l 1
 224 0 l 1
 224 224 l 1
 112 224 l 1
EndSplineSet
EndChar

StartChar: uni1FBBE
Encoding: 129982 129982 438
Width: 672
GlyphClass: 1
Flags: W
LayerCount: 2
Fore
SplineSet
0 1120 m 1
 672 1120 l 1
 672 448 l 1
 560 448 l 1
 560 224 l 1
 672 224 l 1
 672 -224 l 1
 448 -224 l 1
 448 0 l 1
 336 0 l 1
 336 -224 l 1
 0 -224 l 1
 0 1120 l 1
448 224 m 1
 448 0 l 1
 560 0 l 1
 560 224 l 1
 448 224 l 1
EndSplineSet
EndChar

StartChar: uni1FBBF
Encoding: 129983 129983 439
Width: 672
GlyphClass: 1
Flags: W
LayerCount: 2
Fore
SplineSet
112 224 m 1
 112 672 l 1
 0 672 l 1
 0 1120 l 1
 224 1120 l 1
 224 896 l 1
 448 896 l 1
 448 1120 l 1
 672 1120 l 1
 672 672 l 1
 560 672 l 1
 560 896 l 1
 448 896 l 1
 448 672 l 1
 560 672 l 1
 560 224 l 1
 672 224 l 1
 672 -224 l 1
 448 -224 l 1
 448 0 l 1
 224 0 l 1
 224 -224 l 1
 0 -224 l 1
 0 224 l 1
 112 224 l 1
112 896 m 1
 112 672 l 1
 224 672 l 1
 224 896 l 1
 112 896 l 1
112 224 m 1
 112 0 l 1
 224 0 l 1
 224 224 l 1
 112 224 l 1
448 224 m 1
 448 0 l 1
 560 0 l 1
 560 224 l 1
 448 224 l 1
EndSplineSet
EndChar

StartChar: uni1FBC0
Encoding: 129984 129984 440
Width: 672
GlyphClass: 1
Flags: W
LayerCount: 2
Fore
SplineSet
112 672 m 1
 112 784 l 1
 224 784 l 1
 224 672 l 1
 336 672 l 1
 336 784 l 1
 448 784 l 1
 448 672 l 1
 560 672 l 1
 560 448 l 1
 448 448 l 1
 448 336 l 1
 560 336 l 1
 560 112 l 1
 448 112 l 1
 448 336 l 1
 336 336 l 1
 336 448 l 1
 448 448 l 1
 448 672 l 1
 336 672 l 1
 336 560 l 1
 224 560 l 1
 224 672 l 1
 112 672 l 1
 112 448 l 1
 224 448 l 1
 224 336 l 1
 112 336 l 1
 112 112 l 1
 224 112 l 1
 224 224 l 1
 336 224 l 1
 336 112 l 1
 448 112 l 1
 448 0 l 1
 336 0 l 1
 336 112 l 1
 224 112 l 1
 224 0 l 1
 112 0 l 1
 112 112 l 1
 0 112 l 1
 0 336 l 1
 112 336 l 1
 112 448 l 1
 0 448 l 1
 0 672 l 1
 112 672 l 1
EndSplineSet
EndChar

StartChar: uni1FBC1
Encoding: 129985 129985 441
Width: 672
GlyphClass: 1
Flags: W
LayerCount: 2
Fore
SplineSet
672 784 m 1
 448 784 l 1
 448 896 l 1
 672 896 l 1
 672 784 l 1
0 896 m 1
 224 896 l 1
 224 784 l 1
 448 784 l 1
 448 672 l 1
 336 672 l 1
 336 336 l 1
 560 336 l 1
 560 224 l 1
 672 224 l 1
 672 112 l 1
 560 112 l 1
 560 224 l 1
 336 224 l 1
 336 0 l 1
 672 0 l 1
 672 -112 l 1
 336 -112 l 1
 336 0 l 1
 224 0 l 1
 224 -112 l 1
 0 -112 l 1
 0 896 l 1
112 784 m 1
 112 0 l 1
 224 0 l 1
 224 784 l 1
 112 784 l 1
672 336 m 1
 560 336 l 1
 560 448 l 1
 672 448 l 1
 672 336 l 1
EndSplineSet
EndChar

StartChar: uni1FBC2
Encoding: 129986 129986 442
Width: 672
GlyphClass: 1
Flags: W
LayerCount: 2
Fore
SplineSet
336 560 m 1
 336 672 l 1
 0 672 l 1
 0 896 l 1
 672 896 l 1
 672 784 l 1
 448 784 l 1
 448 672 l 1
 672 672 l 1
 672 560 l 1
 560 560 l 1
 560 336 l 1
 448 336 l 1
 448 560 l 1
 336 560 l 1
 336 448 l 1
 112 448 l 1
 112 336 l 1
 448 336 l 1
 448 112 l 1
 336 112 l 1
 336 0 l 1
 0 0 l 1
 0 112 l 1
 336 112 l 1
 336 224 l 1
 112 224 l 1
 112 336 l 1
 0 336 l 1
 0 560 l 1
 336 560 l 1
EndSplineSet
EndChar

StartChar: uni1FBC3
Encoding: 129987 129987 443
Width: 672
GlyphClass: 1
Flags: W
LayerCount: 2
Fore
SplineSet
0 896 m 1
 448 896 l 1
 448 784 l 1
 560 784 l 1
 560 560 l 1
 0 560 l 1
 0 672 l 1
 448 672 l 1
 448 784 l 1
 0 784 l 1
 0 896 l 1
EndSplineSet
EndChar

StartChar: uni1FBC4
Encoding: 129988 129988 444
Width: 672
GlyphClass: 1
Flags: W
LayerCount: 2
Fore
SplineSet
0 1120 m 1
 672 1120 l 1
 672 -224 l 1
 0 -224 l 1
 0 1120 l 1
448 672 m 1
 448 784 l 1
 224 784 l 1
 224 672 l 1
 448 672 l 1
112 672 m 1
 112 560 l 1
 224 560 l 1
 224 672 l 1
 112 672 l 1
448 672 m 1
 448 448 l 1
 560 448 l 1
 560 672 l 1
 448 672 l 1
224 448 m 1
 224 224 l 1
 336 224 l 1
 336 336 l 1
 448 336 l 1
 448 448 l 1
 224 448 l 1
224 112 m 1
 224 0 l 1
 336 0 l 1
 336 112 l 1
 224 112 l 1
EndSplineSet
EndChar

StartChar: uni1FBC5
Encoding: 129989 129989 445
Width: 672
GlyphClass: 1
Flags: W
LayerCount: 2
Fore
SplineSet
112 896 m 1
 112 1008 l 1
 448 1008 l 1
 448 896 l 1
 560 896 l 1
 560 672 l 1
 448 672 l 1
 448 896 l 1
 112 896 l 1
 112 672 l 1
 448 672 l 1
 448 560 l 1
 336 560 l 1
 336 448 l 1
 448 448 l 1
 448 336 l 1
 560 336 l 1
 560 224 l 1
 448 224 l 1
 448 336 l 1
 336 336 l 1
 336 112 l 1
 448 112 l 1
 448 0 l 1
 560 0 l 1
 560 -112 l 1
 448 -112 l 1
 448 0 l 1
 336 0 l 1
 336 112 l 1
 224 112 l 1
 224 0 l 1
 112 0 l 1
 112 -112 l 1
 0 -112 l 1
 0 0 l 1
 112 0 l 1
 112 112 l 1
 224 112 l 1
 224 336 l 1
 112 336 l 1
 112 224 l 1
 0 224 l 1
 0 336 l 1
 112 336 l 1
 112 448 l 1
 224 448 l 1
 224 560 l 1
 112 560 l 1
 112 672 l 1
 0 672 l 1
 0 896 l 1
 112 896 l 1
EndSplineSet
EndChar

StartChar: uni1FBC6
Encoding: 129990 129990 446
Width: 672
GlyphClass: 1
Flags: W
LayerCount: 2
Fore
SplineSet
112 560 m 1
 112 672 l 1
 0 672 l 1
 0 896 l 1
 112 896 l 1
 112 1008 l 1
 448 1008 l 1
 448 896 l 1
 560 896 l 1
 560 672 l 1
 448 672 l 1
 448 896 l 1
 112 896 l 1
 112 672 l 1
 448 672 l 1
 448 560 l 1
 560 560 l 1
 560 448 l 1
 448 448 l 1
 448 560 l 1
 336 560 l 1
 336 448 l 1
 448 448 l 1
 448 336 l 1
 336 336 l 1
 336 112 l 1
 448 112 l 1
 448 0 l 1
 560 0 l 1
 560 -112 l 1
 448 -112 l 1
 448 0 l 1
 336 0 l 1
 336 112 l 1
 224 112 l 1
 224 0 l 1
 112 0 l 1
 112 -112 l 1
 0 -112 l 1
 0 0 l 1
 112 0 l 1
 112 112 l 1
 224 112 l 1
 224 336 l 1
 112 336 l 1
 112 448 l 1
 0 448 l 1
 0 560 l 1
 112 560 l 1
112 560 m 1
 112 448 l 1
 224 448 l 1
 224 560 l 1
 112 560 l 1
EndSplineSet
EndChar

StartChar: uni1FBC7
Encoding: 129991 129991 447
Width: 672
GlyphClass: 1
Flags: W
LayerCount: 2
Fore
SplineSet
336 560 m 1
 336 448 l 1
 448 448 l 1
 448 336 l 1
 336 336 l 1
 336 112 l 1
 448 112 l 1
 448 0 l 1
 560 0 l 1
 560 -112 l 1
 448 -112 l 1
 448 0 l 1
 336 0 l 1
 336 112 l 1
 224 112 l 1
 224 -112 l 1
 112 -112 l 1
 112 112 l 1
 224 112 l 1
 224 336 l 1
 112 336 l 1
 112 224 l 1
 0 224 l 1
 0 336 l 1
 112 336 l 1
 112 448 l 1
 224 448 l 1
 224 560 l 1
 112 560 l 1
 112 672 l 1
 0 672 l 1
 0 896 l 1
 112 896 l 1
 112 1008 l 1
 448 1008 l 1
 448 896 l 1
 560 896 l 1
 560 672 l 1
 448 672 l 1
 448 896 l 1
 112 896 l 1
 112 672 l 1
 448 672 l 1
 448 560 l 1
 560 560 l 1
 560 448 l 1
 448 448 l 1
 448 560 l 1
 336 560 l 1
EndSplineSet
EndChar

StartChar: uni1FBC8
Encoding: 129992 129992 448
Width: 672
GlyphClass: 1
Flags: W
LayerCount: 2
Fore
SplineSet
112 560 m 1
 112 672 l 1
 0 672 l 1
 0 896 l 1
 112 896 l 1
 112 1008 l 1
 448 1008 l 1
 448 896 l 1
 560 896 l 1
 560 672 l 1
 448 672 l 1
 448 896 l 1
 112 896 l 1
 112 672 l 1
 448 672 l 1
 448 560 l 1
 336 560 l 1
 336 448 l 1
 448 448 l 1
 448 336 l 1
 560 336 l 1
 560 224 l 1
 448 224 l 1
 448 336 l 1
 336 336 l 1
 336 112 l 1
 448 112 l 1
 448 -112 l 1
 336 -112 l 1
 336 112 l 1
 224 112 l 1
 224 0 l 1
 112 0 l 1
 112 -112 l 1
 0 -112 l 1
 0 0 l 1
 112 0 l 1
 112 112 l 1
 224 112 l 1
 224 336 l 1
 112 336 l 1
 112 448 l 1
 0 448 l 1
 0 560 l 1
 112 560 l 1
112 560 m 1
 112 448 l 1
 224 448 l 1
 224 560 l 1
 112 560 l 1
EndSplineSet
EndChar

StartChar: uni1FBC9
Encoding: 129993 129993 449
Width: 672
GlyphClass: 1
Flags: W
LayerCount: 2
Fore
SplineSet
224 448 m 1
 224 560 l 1
 112 560 l 1
 112 672 l 1
 0 672 l 1
 0 896 l 1
 112 896 l 1
 112 1008 l 1
 448 1008 l 1
 448 896 l 1
 560 896 l 1
 560 672 l 1
 448 672 l 1
 448 896 l 1
 112 896 l 1
 112 672 l 1
 448 672 l 1
 448 560 l 1
 336 560 l 1
 336 448 l 1
 560 448 l 1
 560 336 l 1
 448 336 l 1
 448 224 l 1
 560 224 l 1
 560 0 l 1
 448 0 l 1
 448 -112 l 1
 336 -112 l 1
 336 0 l 1
 224 0 l 1
 224 -112 l 1
 112 -112 l 1
 112 0 l 1
 0 0 l 1
 0 224 l 1
 112 224 l 1
 112 336 l 1
 0 336 l 1
 0 448 l 1
 224 448 l 1
224 448 m 1
 224 224 l 1
 112 224 l 1
 112 112 l 1
 448 112 l 1
 448 224 l 1
 336 224 l 1
 336 448 l 1
 224 448 l 1
EndSplineSet
EndChar

StartChar: uni1FBCA
Encoding: 129994 129994 450
Width: 672
GlyphClass: 1
Flags: W
LayerCount: 2
Fore
SplineSet
224 672 m 1
 224 784 l 1
 336 784 l 1
 336 672 l 1
 448 672 l 1
 448 560 l 1
 560 560 l 1
 560 0 l 1
 448 0 l 1
 448 112 l 1
 336 112 l 1
 336 224 l 1
 224 224 l 1
 224 112 l 1
 112 112 l 1
 112 0 l 1
 0 0 l 1
 0 560 l 1
 112 560 l 1
 112 672 l 1
 224 672 l 1
224 672 m 1
 224 560 l 1
 112 560 l 1
 112 224 l 1
 224 224 l 1
 224 336 l 1
 336 336 l 1
 336 224 l 1
 448 224 l 1
 448 560 l 1
 336 560 l 1
 336 672 l 1
 224 672 l 1
EndSplineSet
EndChar

StartChar: uni1FBF0
Encoding: 130032 130032 451
Width: 672
GlyphClass: 1
Flags: W
LayerCount: 2
Fore
SplineSet
112 784 m 1
 448 784 l 1
 448 672 l 1
 560 672 l 1
 560 448 l 1
 448 448 l 1
 448 672 l 1
 112 672 l 1
 112 448 l 1
 0 448 l 1
 0 672 l 1
 112 672 l 1
 112 784 l 1
560 112 m 1
 448 112 l 1
 448 336 l 1
 560 336 l 1
 560 112 l 1
0 336 m 1
 112 336 l 1
 112 112 l 1
 448 112 l 1
 448 0 l 1
 112 0 l 1
 112 112 l 1
 0 112 l 1
 0 336 l 1
EndSplineSet
EndChar

StartChar: uni1FBF1
Encoding: 130033 130033 452
Width: 672
GlyphClass: 1
Flags: W
LayerCount: 2
Fore
SplineSet
448 672 m 1
 560 672 l 1
 560 448 l 1
 448 448 l 1
 448 672 l 1
448 336 m 1
 560 336 l 1
 560 112 l 1
 448 112 l 1
 448 336 l 1
EndSplineSet
EndChar

StartChar: uni1FBF2
Encoding: 130034 130034 453
Width: 672
GlyphClass: 1
Flags: W
LayerCount: 2
Fore
SplineSet
112 784 m 1
 448 784 l 1
 448 672 l 1
 560 672 l 1
 560 448 l 1
 448 448 l 1
 448 336 l 1
 112 336 l 1
 112 112 l 1
 448 112 l 1
 448 0 l 1
 112 0 l 1
 112 112 l 1
 0 112 l 1
 0 336 l 1
 112 336 l 1
 112 448 l 1
 448 448 l 1
 448 672 l 1
 112 672 l 1
 112 784 l 1
EndSplineSet
EndChar

StartChar: uni1FBF3
Encoding: 130035 130035 454
Width: 672
GlyphClass: 1
Flags: W
LayerCount: 2
Fore
SplineSet
112 784 m 1
 448 784 l 1
 448 672 l 1
 560 672 l 1
 560 448 l 1
 448 448 l 1
 448 336 l 1
 560 336 l 1
 560 112 l 1
 448 112 l 1
 448 0 l 1
 112 0 l 1
 112 112 l 1
 448 112 l 1
 448 336 l 1
 112 336 l 1
 112 448 l 1
 448 448 l 1
 448 672 l 1
 112 672 l 1
 112 784 l 1
EndSplineSet
EndChar

StartChar: uni1FBF4
Encoding: 130036 130036 455
Width: 672
GlyphClass: 1
Flags: W
LayerCount: 2
Fore
SplineSet
560 448 m 1
 448 448 l 1
 448 672 l 1
 560 672 l 1
 560 448 l 1
0 672 m 1
 112 672 l 1
 112 448 l 1
 448 448 l 1
 448 336 l 1
 560 336 l 1
 560 112 l 1
 448 112 l 1
 448 336 l 1
 112 336 l 1
 112 448 l 1
 0 448 l 1
 0 672 l 1
EndSplineSet
EndChar

StartChar: uni1FBF5
Encoding: 130037 130037 456
Width: 672
GlyphClass: 1
Flags: W
LayerCount: 2
Fore
SplineSet
112 784 m 1
 448 784 l 1
 448 672 l 1
 112 672 l 1
 112 448 l 1
 448 448 l 1
 448 336 l 1
 560 336 l 1
 560 112 l 1
 448 112 l 1
 448 0 l 1
 112 0 l 1
 112 112 l 1
 448 112 l 1
 448 336 l 1
 112 336 l 1
 112 448 l 1
 0 448 l 1
 0 672 l 1
 112 672 l 1
 112 784 l 1
EndSplineSet
EndChar

StartChar: uni1FBF6
Encoding: 130038 130038 457
Width: 672
GlyphClass: 1
Flags: W
LayerCount: 2
Fore
SplineSet
112 336 m 1
 112 448 l 1
 0 448 l 1
 0 672 l 1
 112 672 l 1
 112 784 l 1
 448 784 l 1
 448 672 l 1
 112 672 l 1
 112 448 l 1
 448 448 l 1
 448 336 l 1
 560 336 l 1
 560 112 l 1
 448 112 l 1
 448 336 l 1
 112 336 l 1
 112 112 l 1
 448 112 l 1
 448 0 l 1
 112 0 l 1
 112 112 l 1
 0 112 l 1
 0 336 l 1
 112 336 l 1
EndSplineSet
EndChar

StartChar: uni1FBF7
Encoding: 130039 130039 458
Width: 672
GlyphClass: 1
Flags: W
LayerCount: 2
Fore
SplineSet
112 784 m 1
 448 784 l 1
 448 672 l 1
 560 672 l 1
 560 448 l 1
 448 448 l 1
 448 672 l 1
 112 672 l 1
 112 784 l 1
448 336 m 1
 560 336 l 1
 560 112 l 1
 448 112 l 1
 448 336 l 1
EndSplineSet
EndChar

StartChar: uni1FBF8
Encoding: 130040 130040 459
Width: 672
GlyphClass: 1
Flags: W
LayerCount: 2
Fore
SplineSet
112 336 m 1
 112 448 l 1
 0 448 l 1
 0 672 l 1
 112 672 l 1
 112 784 l 1
 448 784 l 1
 448 672 l 1
 560 672 l 1
 560 448 l 1
 448 448 l 1
 448 672 l 1
 112 672 l 1
 112 448 l 1
 448 448 l 1
 448 336 l 1
 560 336 l 1
 560 112 l 1
 448 112 l 1
 448 336 l 1
 112 336 l 1
 112 112 l 1
 448 112 l 1
 448 0 l 1
 112 0 l 1
 112 112 l 1
 0 112 l 1
 0 336 l 1
 112 336 l 1
EndSplineSet
EndChar

StartChar: uni1FBF9
Encoding: 130041 130041 460
Width: 672
GlyphClass: 1
Flags: W
LayerCount: 2
Fore
SplineSet
112 672 m 1
 112 784 l 1
 448 784 l 1
 448 672 l 1
 560 672 l 1
 560 448 l 1
 448 448 l 1
 448 672 l 1
 112 672 l 1
 112 448 l 1
 448 448 l 1
 448 336 l 1
 560 336 l 1
 560 112 l 1
 448 112 l 1
 448 0 l 1
 112 0 l 1
 112 112 l 1
 448 112 l 1
 448 336 l 1
 112 336 l 1
 112 448 l 1
 0 448 l 1
 0 672 l 1
 112 672 l 1
EndSplineSet
EndChar

StartChar: uni2070
Encoding: 8304 8304 461
Width: 672
GlyphClass: 1
Flags: W
LayerCount: 2
Fore
SplineSet
224 672 m 1
 224 784 l 1
 336 784 l 1
 336 672 l 1
 448 672 l 1
 448 448 l 1
 336 448 l 1
 336 672 l 1
 224 672 l 1
 224 448 l 1
 336 448 l 1
 336 336 l 1
 224 336 l 1
 224 448 l 1
 112 448 l 1
 112 672 l 1
 224 672 l 1
EndSplineSet
EndChar

StartChar: uni2071
Encoding: 8305 8305 462
Width: 672
GlyphClass: 1
Flags: W
LayerCount: 2
Fore
SplineSet
224 784 m 1
 336 784 l 1
 336 672 l 1
 224 672 l 1
 224 784 l 1
224 560 m 1
 336 560 l 1
 336 336 l 1
 224 336 l 1
 224 560 l 1
EndSplineSet
EndChar

StartChar: uni2074
Encoding: 8308 8308 463
Width: 672
GlyphClass: 1
Flags: W
LayerCount: 2
Fore
SplineSet
336 784 m 1
 448 784 l 1
 448 336 l 1
 336 336 l 1
 336 448 l 1
 112 448 l 1
 112 672 l 1
 224 672 l 1
 224 560 l 1
 336 560 l 1
 336 784 l 1
EndSplineSet
EndChar

StartChar: uni2075
Encoding: 8309 8309 464
Width: 672
GlyphClass: 1
Flags: W
LayerCount: 2
Fore
SplineSet
112 784 m 1
 448 784 l 1
 448 672 l 1
 224 672 l 1
 224 560 l 1
 448 560 l 1
 448 448 l 1
 336 448 l 1
 336 336 l 1
 112 336 l 1
 112 448 l 1
 224 448 l 1
 224 560 l 1
 112 560 l 1
 112 784 l 1
EndSplineSet
EndChar

StartChar: uni2076
Encoding: 8310 8310 465
Width: 672
GlyphClass: 1
Flags: W
LayerCount: 2
Fore
SplineSet
224 784 m 1
 336 784 l 1
 336 672 l 1
 224 672 l 1
 224 560 l 1
 448 560 l 1
 448 448 l 1
 336 448 l 1
 336 336 l 1
 224 336 l 1
 224 448 l 1
 112 448 l 1
 112 672 l 1
 224 672 l 1
 224 784 l 1
EndSplineSet
EndChar

StartChar: uni2077
Encoding: 8311 8311 466
Width: 672
GlyphClass: 1
Flags: W
LayerCount: 2
Fore
SplineSet
112 784 m 1
 448 784 l 1
 448 560 l 1
 336 560 l 1
 336 336 l 1
 224 336 l 1
 224 560 l 1
 336 560 l 1
 336 672 l 1
 112 672 l 1
 112 784 l 1
EndSplineSet
EndChar

StartChar: uni2078
Encoding: 8312 8312 467
Width: 672
GlyphClass: 1
Flags: W
LayerCount: 2
Fore
SplineSet
224 560 m 1
 224 672 l 1
 112 672 l 1
 112 784 l 1
 224 784 l 1
 224 896 l 1
 336 896 l 1
 336 784 l 1
 448 784 l 1
 448 672 l 1
 336 672 l 1
 336 784 l 1
 224 784 l 1
 224 672 l 1
 336 672 l 1
 336 560 l 1
 448 560 l 1
 448 448 l 1
 336 448 l 1
 336 560 l 1
 224 560 l 1
 224 448 l 1
 336 448 l 1
 336 336 l 1
 224 336 l 1
 224 448 l 1
 112 448 l 1
 112 560 l 1
 224 560 l 1
EndSplineSet
EndChar

StartChar: uni2079
Encoding: 8313 8313 468
Width: 672
GlyphClass: 1
Flags: W
LayerCount: 2
Fore
SplineSet
224 784 m 1
 336 784 l 1
 336 672 l 1
 448 672 l 1
 448 448 l 1
 336 448 l 1
 336 336 l 1
 224 336 l 1
 224 448 l 1
 336 448 l 1
 336 560 l 1
 112 560 l 1
 112 672 l 1
 224 672 l 1
 224 784 l 1
EndSplineSet
EndChar

StartChar: uni207A
Encoding: 8314 8314 469
Width: 672
GlyphClass: 1
Flags: W
LayerCount: 2
Fore
SplineSet
224 784 m 1
 336 784 l 1
 336 672 l 1
 448 672 l 1
 448 560 l 1
 336 560 l 1
 336 448 l 1
 224 448 l 1
 224 560 l 1
 112 560 l 1
 112 672 l 1
 224 672 l 1
 224 784 l 1
EndSplineSet
EndChar

StartChar: uni207B
Encoding: 8315 8315 470
Width: 672
GlyphClass: 1
Flags: W
LayerCount: 2
Fore
SplineSet
112 672 m 1
 448 672 l 1
 448 560 l 1
 112 560 l 1
 112 672 l 1
EndSplineSet
EndChar

StartChar: uni207C
Encoding: 8316 8316 471
Width: 672
GlyphClass: 1
Flags: W
LayerCount: 2
Fore
SplineSet
112 784 m 1
 448 784 l 1
 448 672 l 1
 112 672 l 1
 112 784 l 1
112 560 m 1
 448 560 l 1
 448 448 l 1
 112 448 l 1
 112 560 l 1
EndSplineSet
EndChar

StartChar: uni207D
Encoding: 8317 8317 472
Width: 672
GlyphClass: 1
Flags: W
LayerCount: 2
Fore
SplineSet
336 896 m 1
 448 896 l 1
 448 784 l 1
 336 784 l 1
 336 336 l 1
 448 336 l 1
 448 224 l 1
 336 224 l 1
 336 336 l 1
 224 336 l 1
 224 784 l 1
 336 784 l 1
 336 896 l 1
EndSplineSet
EndChar

StartChar: uni207E
Encoding: 8318 8318 473
Width: 672
GlyphClass: 1
Flags: W
LayerCount: 2
Fore
SplineSet
112 896 m 1
 224 896 l 1
 224 784 l 1
 336 784 l 1
 336 336 l 1
 224 336 l 1
 224 224 l 1
 112 224 l 1
 112 336 l 1
 224 336 l 1
 224 784 l 1
 112 784 l 1
 112 896 l 1
EndSplineSet
EndChar

StartChar: uni207F
Encoding: 8319 8319 474
Width: 672
GlyphClass: 1
Flags: W
LayerCount: 2
Fore
SplineSet
0 784 m 1
 112 784 l 1
 112 672 l 1
 224 672 l 1
 224 784 l 1
 336 784 l 1
 336 672 l 1
 448 672 l 1
 448 336 l 1
 336 336 l 1
 336 672 l 1
 224 672 l 1
 224 560 l 1
 112 560 l 1
 112 336 l 1
 0 336 l 1
 0 784 l 1
EndSplineSet
EndChar

StartChar: uni2080
Encoding: 8320 8320 475
Width: 672
GlyphClass: 1
Flags: W
LayerCount: 2
Fore
SplineSet
224 112 m 1
 224 224 l 1
 336 224 l 1
 336 112 l 1
 448 112 l 1
 448 -112 l 1
 336 -112 l 1
 336 112 l 1
 224 112 l 1
 224 -112 l 1
 336 -112 l 1
 336 -224 l 1
 224 -224 l 1
 224 -112 l 1
 112 -112 l 1
 112 112 l 1
 224 112 l 1
EndSplineSet
EndChar

StartChar: uni2081
Encoding: 8321 8321 476
Width: 672
GlyphClass: 1
Flags: W
LayerCount: 2
Fore
SplineSet
224 224 m 1
 336 224 l 1
 336 -112 l 1
 448 -112 l 1
 448 -224 l 1
 112 -224 l 1
 112 -112 l 1
 224 -112 l 1
 224 0 l 1
 112 0 l 1
 112 112 l 1
 224 112 l 1
 224 224 l 1
EndSplineSet
EndChar

StartChar: uni2082
Encoding: 8322 8322 477
Width: 672
GlyphClass: 1
Flags: W
LayerCount: 2
Fore
SplineSet
112 224 m 1
 336 224 l 1
 336 112 l 1
 448 112 l 1
 448 0 l 1
 336 0 l 1
 336 -112 l 1
 448 -112 l 1
 448 -224 l 1
 112 -224 l 1
 112 -112 l 1
 224 -112 l 1
 224 0 l 1
 336 0 l 1
 336 112 l 1
 112 112 l 1
 112 224 l 1
EndSplineSet
EndChar

StartChar: uni2083
Encoding: 8323 8323 478
Width: 672
GlyphClass: 1
Flags: W
LayerCount: 2
Fore
SplineSet
112 224 m 1
 336 224 l 1
 336 112 l 1
 448 112 l 1
 448 -112 l 1
 336 -112 l 1
 336 -224 l 1
 112 -224 l 1
 112 -112 l 1
 336 -112 l 1
 336 0 l 1
 224 0 l 1
 224 112 l 1
 112 112 l 1
 112 224 l 1
EndSplineSet
EndChar

StartChar: uni2084
Encoding: 8324 8324 479
Width: 672
GlyphClass: 1
Flags: W
LayerCount: 2
Fore
SplineSet
336 224 m 1
 448 224 l 1
 448 -224 l 1
 336 -224 l 1
 336 -112 l 1
 112 -112 l 1
 112 112 l 1
 224 112 l 1
 224 0 l 1
 336 0 l 1
 336 224 l 1
EndSplineSet
EndChar

StartChar: uni2085
Encoding: 8325 8325 480
Width: 672
GlyphClass: 1
Flags: W
LayerCount: 2
Fore
SplineSet
112 224 m 1
 448 224 l 1
 448 112 l 1
 224 112 l 1
 224 0 l 1
 448 0 l 1
 448 -112 l 1
 336 -112 l 1
 336 -224 l 1
 112 -224 l 1
 112 -112 l 1
 224 -112 l 1
 224 0 l 1
 112 0 l 1
 112 224 l 1
EndSplineSet
EndChar

StartChar: uni2086
Encoding: 8326 8326 481
Width: 672
GlyphClass: 1
Flags: W
LayerCount: 2
Fore
SplineSet
224 224 m 1
 336 224 l 1
 336 112 l 1
 224 112 l 1
 224 0 l 1
 448 0 l 1
 448 -112 l 1
 336 -112 l 1
 336 -224 l 1
 224 -224 l 1
 224 -112 l 1
 112 -112 l 1
 112 112 l 1
 224 112 l 1
 224 224 l 1
EndSplineSet
EndChar

StartChar: uni2087
Encoding: 8327 8327 482
Width: 672
GlyphClass: 1
Flags: W
LayerCount: 2
Fore
SplineSet
112 224 m 1
 448 224 l 1
 448 0 l 1
 336 0 l 1
 336 -224 l 1
 224 -224 l 1
 224 0 l 1
 336 0 l 1
 336 112 l 1
 112 112 l 1
 112 224 l 1
EndSplineSet
EndChar

StartChar: uni2088
Encoding: 8328 8328 483
Width: 672
GlyphClass: 1
Flags: W
LayerCount: 2
Fore
SplineSet
224 0 m 1
 224 112 l 1
 112 112 l 1
 112 224 l 1
 224 224 l 1
 224 336 l 1
 336 336 l 1
 336 224 l 1
 448 224 l 1
 448 112 l 1
 336 112 l 1
 336 224 l 1
 224 224 l 1
 224 112 l 1
 336 112 l 1
 336 0 l 1
 448 0 l 1
 448 -112 l 1
 336 -112 l 1
 336 0 l 1
 224 0 l 1
 224 -112 l 1
 336 -112 l 1
 336 -224 l 1
 224 -224 l 1
 224 -112 l 1
 112 -112 l 1
 112 0 l 1
 224 0 l 1
EndSplineSet
EndChar

StartChar: uni2089
Encoding: 8329 8329 484
Width: 672
GlyphClass: 1
Flags: W
LayerCount: 2
Fore
SplineSet
224 224 m 1
 336 224 l 1
 336 112 l 1
 448 112 l 1
 448 -112 l 1
 336 -112 l 1
 336 -224 l 1
 224 -224 l 1
 224 -112 l 1
 336 -112 l 1
 336 0 l 1
 112 0 l 1
 112 112 l 1
 224 112 l 1
 224 224 l 1
EndSplineSet
EndChar

StartChar: uni208A
Encoding: 8330 8330 485
Width: 672
GlyphClass: 1
Flags: W
LayerCount: 2
Fore
SplineSet
224 224 m 1
 336 224 l 1
 336 112 l 1
 448 112 l 1
 448 0 l 1
 336 0 l 1
 336 -112 l 1
 224 -112 l 1
 224 0 l 1
 112 0 l 1
 112 112 l 1
 224 112 l 1
 224 224 l 1
EndSplineSet
EndChar

StartChar: uni208B
Encoding: 8331 8331 486
Width: 672
GlyphClass: 1
Flags: W
LayerCount: 2
Fore
SplineSet
112 112 m 1
 448 112 l 1
 448 0 l 1
 112 0 l 1
 112 112 l 1
EndSplineSet
EndChar

StartChar: uni208C
Encoding: 8332 8332 487
Width: 672
GlyphClass: 1
Flags: W
LayerCount: 2
Fore
SplineSet
112 224 m 1
 448 224 l 1
 448 112 l 1
 112 112 l 1
 112 224 l 1
112 0 m 1
 448 0 l 1
 448 -112 l 1
 112 -112 l 1
 112 0 l 1
EndSplineSet
EndChar

StartChar: uni208D
Encoding: 8333 8333 488
Width: 672
GlyphClass: 1
Flags: W
LayerCount: 2
Fore
SplineSet
336 336 m 1
 448 336 l 1
 448 224 l 1
 336 224 l 1
 336 -112 l 1
 448 -112 l 1
 448 -224 l 1
 336 -224 l 1
 336 -112 l 1
 224 -112 l 1
 224 224 l 1
 336 224 l 1
 336 336 l 1
EndSplineSet
EndChar

StartChar: uni208E
Encoding: 8334 8334 489
Width: 672
GlyphClass: 1
Flags: W
LayerCount: 2
Fore
SplineSet
112 336 m 1
 224 336 l 1
 224 224 l 1
 336 224 l 1
 336 -112 l 1
 224 -112 l 1
 224 -224 l 1
 112 -224 l 1
 112 -112 l 1
 224 -112 l 1
 224 224 l 1
 112 224 l 1
 112 336 l 1
EndSplineSet
EndChar

StartChar: uni2090
Encoding: 8336 8336 490
Width: 672
GlyphClass: 1
Flags: W
LayerCount: 2
Fore
SplineSet
224 224 m 1
 224 336 l 1
 448 336 l 1
 448 0 l 1
 560 0 l 1
 560 -112 l 1
 448 -112 l 1
 448 0 l 1
 336 0 l 1
 336 -112 l 1
 224 -112 l 1
 224 0 l 1
 112 0 l 1
 112 224 l 1
 224 224 l 1
224 224 m 1
 224 0 l 1
 336 0 l 1
 336 224 l 1
 224 224 l 1
EndSplineSet
EndChar

StartChar: uni2091
Encoding: 8337 8337 491
Width: 672
GlyphClass: 1
Flags: W
LayerCount: 2
Fore
SplineSet
224 336 m 1
 336 336 l 1
 336 224 l 1
 448 224 l 1
 448 112 l 1
 224 112 l 1
 224 0 l 1
 448 0 l 1
 448 -112 l 1
 224 -112 l 1
 224 0 l 1
 112 0 l 1
 112 224 l 1
 224 224 l 1
 224 336 l 1
EndSplineSet
EndChar

StartChar: uni2092
Encoding: 8338 8338 492
Width: 672
GlyphClass: 1
Flags: W
LayerCount: 2
Fore
SplineSet
112 224 m 1
 112 336 l 1
 336 336 l 1
 336 224 l 1
 448 224 l 1
 448 0 l 1
 336 0 l 1
 336 224 l 1
 112 224 l 1
 112 0 l 1
 336 0 l 1
 336 -112 l 1
 112 -112 l 1
 112 0 l 1
 0 0 l 1
 0 224 l 1
 112 224 l 1
EndSplineSet
EndChar

StartChar: uni2093
Encoding: 8339 8339 493
Width: 672
GlyphClass: 1
Flags: W
LayerCount: 2
Fore
SplineSet
448 224 m 1
 336 224 l 1
 336 336 l 1
 448 336 l 1
 448 224 l 1
0 336 m 1
 112 336 l 1
 112 224 l 1
 336 224 l 1
 336 0 l 1
 448 0 l 1
 448 -112 l 1
 336 -112 l 1
 336 0 l 1
 112 0 l 1
 112 -112 l 1
 0 -112 l 1
 0 0 l 1
 112 0 l 1
 112 224 l 1
 0 224 l 1
 0 336 l 1
EndSplineSet
EndChar

StartChar: uni2095
Encoding: 8341 8341 494
Width: 672
GlyphClass: 1
Flags: W
LayerCount: 2
Fore
SplineSet
0 448 m 1
 112 448 l 1
 112 112 l 1
 224 112 l 1
 224 224 l 1
 336 224 l 1
 336 112 l 1
 448 112 l 1
 448 -112 l 1
 336 -112 l 1
 336 112 l 1
 224 112 l 1
 224 0 l 1
 112 0 l 1
 112 -112 l 1
 0 -112 l 1
 0 448 l 1
EndSplineSet
EndChar

StartChar: uni2096
Encoding: 8342 8342 495
Width: 672
GlyphClass: 1
Flags: W
LayerCount: 2
Fore
SplineSet
112 448 m 1
 224 448 l 1
 224 112 l 1
 336 112 l 1
 336 0 l 1
 448 0 l 1
 448 -112 l 1
 336 -112 l 1
 336 0 l 1
 224 0 l 1
 224 -112 l 1
 112 -112 l 1
 112 448 l 1
448 112 m 1
 336 112 l 1
 336 224 l 1
 448 224 l 1
 448 112 l 1
EndSplineSet
EndChar

StartChar: uni2097
Encoding: 8343 8343 496
Width: 672
GlyphClass: 1
Flags: W
LayerCount: 2
Fore
SplineSet
224 448 m 1
 336 448 l 1
 336 0 l 1
 448 0 l 1
 448 -112 l 1
 336 -112 l 1
 336 0 l 1
 224 0 l 1
 224 448 l 1
EndSplineSet
EndChar

StartChar: uni2098
Encoding: 8344 8344 497
Width: 672
GlyphClass: 1
Flags: W
LayerCount: 2
Fore
SplineSet
0 336 m 1
 224 336 l 1
 224 224 l 1
 336 224 l 1
 336 336 l 1
 448 336 l 1
 448 224 l 1
 560 224 l 1
 560 -112 l 1
 448 -112 l 1
 448 224 l 1
 336 224 l 1
 336 -112 l 1
 224 -112 l 1
 224 224 l 1
 112 224 l 1
 112 -112 l 1
 0 -112 l 1
 0 336 l 1
EndSplineSet
EndChar

